<?xml version="1.0" encoding="utf-8"?>
<!-- Generator: Adobe Illustrator 15.0.0, SVG Export Plug-In . SVG Version: 6.00 Build 0)  -->
<!DOCTYPE svg PUBLIC "-//W3C//DTD SVG 1.1//EN" "http://www.w3.org/Graphics/SVG/1.1/DTD/svg11.dtd">
<svg version="1.1" id="Layer_1" xmlns="http://www.w3.org/2000/svg" xmlns:xlink="http://www.w3.org/1999/xlink" x="0px" y="0px"
	 width="201.105px" height="210.43px" viewBox="0 0 201.105 210.43" enable-background="new 0 0 201.105 210.43"
	 xml:space="preserve">
<polygon id="_x30_3_newmexico" fill="#2ABFF4" points="26.271,0 0.217,206.336 0,207.487 24.005,210.43 26.271,209.497 
	27.619,197.293 28.981,194.354 78.961,199.778 79.173,199.778 79.173,198.879 77.811,197.083 76.477,192.526 76.477,191.403 
	100.001,193.887 130.288,196.368 157.248,198.624 184.375,200.456 185.502,200.456 187.541,198.194 190.035,159.963 
	192.959,126.479 198.41,37.805 198.631,35.299 199.994,34.865 201.105,16.295 168.537,14.27 116.948,9.971 74.196,5.674 "/>
</svg>
