<?xml version="1.0" encoding="utf-8"?>
<!-- Generator: Adobe Illustrator 15.0.0, SVG Export Plug-In . SVG Version: 6.00 Build 0)  -->
<!DOCTYPE svg PUBLIC "-//W3C//DTD SVG 1.1//EN" "http://www.w3.org/Graphics/SVG/1.1/DTD/svg11.dtd">
<svg version="1.1" id="Layer_1" xmlns="http://www.w3.org/2000/svg" xmlns:xlink="http://www.w3.org/1999/xlink" x="0px" y="0px"
	 width="453.677px" height="353.654px" viewBox="0 0 453.677 353.654" enable-background="new 0 0 453.677 353.654"
	 xml:space="preserve">
<path id="_x30_4_alaska" fill="#EDC51B" d="M212.886,0c-1.398,1.586-6.391,7.137-6.391,7.137l-13.133,0.494
	c0,0-1.527-1.307-2.123-1.801c-0.334,0.07-0.449,0.115-0.662,0.115c-0.926,0.492-8.598,4.848-8.598,4.848l-8.084,1.873
	c0,0-2.162-1.277-3.203-1.873c-1.896,1.203-5.053,3.271-6.148,3.973c-0.574,1.527-2.557,6.971-2.557,6.971l-10.074,9.584
	l-11.668,0.5c0,0-3.438-1.254-4.23-1.521h-6.072c-0.723,0.469-1.902,1.219-3.531,2.334c1.615,2.809,4.201,7.279,4.201,7.279
	l7.076,11.35l2.154,10.4c0,0-0.73,2.35-1.068,3.469c0.164,0.295,0.164,0.35,0.277,0.619c1.418,0.816,10.973,6.262,10.973,6.262
	s-3.891,3.219-4.172,3.471c0.605,2.057,1.473,4.932,1.588,5.303c0.268,0.488,6.596,12.699,6.596,12.699l-8.066,4.346l-13.396-4.678
	l-8.85-5.223l2.064-6.244c0,0,1.111-1.66,1.988-2.857c-0.166-0.119-0.273-0.238-0.389-0.279c-1.127-0.158-4.076-0.506-4.732-0.619
	c-0.535,0.113-3.219,0.572-5.719,0.945c0,0.311,0.43,4.332,0.43,4.332h-6.309c0,0-1.609-1.633-2.262-2.254h-3.588
	c0,0-9.21,0.621-12.938,0.93c1.192,2.287,2.611,5.008,2.935,5.684c0.794,0.588,5.969,4.988,5.969,4.988s-1.854,7.021-1.968,7.396
	c-0.018,0.34-0.681,5.348-0.931,7.361c1.398,1.518,5.18,5.471,6.412,6.703c2.023,0.096,11.133,0.371,11.133,0.371
	s8.033,4.031,8.639,4.309c0.461,0.166,2.441,0.629,3.418,0.867c1.238-0.334,6.814-1.686,6.814-1.686l8.285-2.611l5.096,8.797
	l-1.285,1.223l-3.053,3.057l0.359-0.334c-0.414,0.656-1.062,3.598-1.389,6.104l-2.123,11.877l-7.357,4.195h-5.533
	c0,0-2.365-1.607-2.807-1.902c-0.275-0.064-0.922-0.387-1.818-0.711c-1.875,1.361-6.832,5.117-6.832,5.117l-9.596,1.283
	c0,0-0.705-5.395-0.932-7.035c-1.205-0.576-2.062-0.898-3.113-1.361c-1.336,0.604-3.145,1.445-4.172,1.938
	c-0.798,1.533-4.446,8.523-4.446,8.523l-6.783,4.215c0,0-7.727,5.562-9.419,6.764c-0.331,1.793-1.575,8.176-1.854,9.582
	c0.279,0.594,0.609,1.365,1.153,2.671l1.572-0.555l6.654,3.998c0,0-3.888,3.85-4.698,4.646c-0.048,1.357-0.438,5.779-0.438,5.779
	s-3.091,1.16-4.372,1.676c1.111,1.891,4.429,7.498,4.429,7.498s1.119,6.783,1.419,8.52c0.608,0.576,1.039,0.924,1.697,1.494h11.324
	c0.488-0.898,2.997-5.414,2.997-5.414l6.118,6.131v10.943c0.311,0.816,2.701,7.354,2.701,7.354s-5.385,0.678-6.207,0.791
	c-0.219,0.143-0.434,0.252-0.82,0.52c0.387,1.08,1.037,3.051,1.037,3.051s-1.133,6.105-1.247,6.568
	c1.413-0.799,3.581-1.938,3.581-1.938l12.949-0.49c0,0,0.629,3.646,0.781,4.488c0.279-0.355,4.686-4.771,4.686-4.771
	s2.129,8.455,2.877,11.504c0.234-0.189,3.928-3.871,3.928-3.871l6.598,1.607c0,0,0.824,3.24,1.199,4.629
	c1.988-0.354,3.57-0.682,4.295-0.816c0.885-0.678,9.248-7.354,9.248-7.354l-1.889,14.84c0,0-3.504,3.223-4.191,3.809
	c-0.488,0.986-5.066,10.084-5.066,10.084l-5.123,9.828c0,0-7.129,2.59-9.174,3.359c-0.676,1.963-3.27,9.307-3.27,9.307h-5.176
	c0,0-1.055-0.75-1.168-0.809c-0.756,0.217-1.572,0.375-1.572,0.375s-7.543,1.473-7.939,1.527c-0.264,0.049-4.762,1.518-6.123,1.912
	c-0.919,1.146-5.291,6.424-5.291,6.424l-4.732,1.574c0,0-3.351-2.656-4.327-3.482c-1.229-0.055-3.688-0.195-4.66-0.215
	c-0.945,0.408-3.76,1.662-3.76,1.662s-4.873,1.107-6.199,1.391c-1.016,0.975-4.775,4.787-4.775,4.787s-2.404,0.852-3.595,1.307
	h7.319c1.269-0.842,7.362-4.963,7.362-4.963s6.839,2.672,8.422,3.223c1.546-0.467,5.738-1.914,5.738-1.914l13.137-4.73
	c0,0-0.168,1.008-0.291,1.957c0.564-0.02,7.908-0.436,7.908-0.436s2.451,0.879,4.252,1.518c0-0.104,0.213-0.479,0.213-0.479
	s0.938-0.996,1.193-1.264c-0.482-0.324-5.658-4.109-5.658-4.109l17.865-7.605c0,0,11.52-2.439,12.369-2.596
	c0.65-0.373,4.523-2.441,4.523-2.441l18.131-9.822c0,0,13.785-8.984,14.549-9.42c0.408-0.551,3.406-4.037,4.9-5.824
	c-0.359-0.875-0.475-1.207-0.762-1.912c-1.449-0.633-6.408-2.773-6.408-2.773l1.475-7.363l8.475-7.189c0,0,7.301-2.453,9.145-3.154
	c0.746-1.365,2.174-4.324,2.174-4.324l4.309-6.219l6.109-8.629l13.174-7.186l11.441,0.979l6.107,12.188H225.39
	c0,0-1.344-1.732-1.609-2.17c-2.305,1.252-5.027,2.609-6.506,3.432v0.059v4.682c0,0-5.396,9.26-5.623,9.668
	c-0.035,0.137-0.43,1.107-0.889,2.197c0.93,0.23,4.221,1.201,4.221,1.201v8.006c0,0-3.98,0.773-4.799,0.879
	c2.094,0.061,3.539,0.135,4.232,0.162c1.209-0.766,6.008-3.746,6.717-4.137c0.529-0.65,4.086-4.91,4.086-4.91l9.262-6.369
	c0,0,4.299,2.828,6.203,4.078c0.613-0.561,3.002-2.633,3.002-2.633s3.674,2.309,4.412,2.777c0,0,0.596-1.848,0.934-2.777
	c-1.207-0.137-2.514-0.322-2.514-0.322l-1.365-12.938l10.949-4.467l10.951-1.01c0,0,5.561,11.709,6.699,14.137
	c1.471,0.215,3.873,0.57,3.873,0.57s10.99,6.592,13.832,8.271c0.221-0.131,0.66-0.465,0.66-0.465h14.568l13.807,5.945
	c0,0,5.715,1.688,7.348,2.234c1.314-0.576,4.467-1.803,5.232-2.07c0.711-0.654,4.633-4.195,5.195-4.717h-0.186
	c-0.918,0.711-3.432,2.697-3.432,2.697l-9.158-0.484l-5.979-3.605c0,0,0.758-196.441,0.758-199.794
	c-2.047-1.35-8.127-5.383-8.555-5.719c-0.484-0.166-7.951-3.143-9.83-3.92c-1.277,0.578-3.357,1.395-3.357,1.395l-6.412,2.045
	c0,0-9.158-4.607-11.584-5.861c-0.951,0.627-3.639,2.422-3.639,2.422s-14.604-9.742-15.836-10.559
	c-1.445-0.137-16.717-1.461-16.717-1.461l-6.381-4.807c0,0-0.428-4.941-0.65-7.459c-2.066-0.164-3.648-0.332-4.949-0.441
	c-1.154,1.09-5.73,5.676-5.73,5.676l-4.299-7.635c0,0,0.822-1.791,0.93-2.127c-1.25-1.355-2.609-2.85-2.889-3.186
	c-0.518-0.33-5.957-4.111-7.244-4.936H212.886z M40.68,108.65c0.05,0.545,0.05,0.953,0.163,1.926h1.903
	c-0.213-0.211-1.092-1.082-1.092-1.082s-0.514-1.09-0.59-1.338C40.93,108.35,40.783,108.508,40.68,108.65 M50.265,115.182
	c0,0,2.784,6.248,3.762,8.469c0.433,0.061,0.594,0.061,1.14,0.172c-1.097-2.672-2.611-6.707-3.352-8.557
	c-0.735-0.189-1.01-0.217-1.977-0.498C50.001,114.947,50.265,115.182,50.265,115.182 M51.506,195.99
	c1.158,1.201,5.075,5.324,6.301,6.561c1.071,0.082,2.158,0.107,3.771,0.221c0.777-1.717,1.432-3.32,2.14-4.924l-7.728-2.012
	c0,0-2.264-0.504-4.517-0.992C51.473,195.332,51.506,195.642,51.506,195.99 M342.048,255.197v0.598c0,0-1.35,3.492-2.25,5.721
	c2.584,1.639,7.279,4.633,7.279,4.633s8.852,4.676,10.285,5.469c-0.242-1.273-0.371-1.977-0.545-2.773
	c-1.227-1.219-13.336-13.049-14.77-14.377V255.197z M378.991,259.611l-0.623,0.465c0,0-1.578,0.24-2.328,0.352
	c-0.639,0.76-1.326,1.479-1.953,2.17c-0.137,1.486-0.859,8.309-0.859,8.309s-2.789,0.711-3.225,0.857
	c-0.684,0.4-7.82,4.422-7.83,4.461c1.348,1.57,2.488,2.857,2.715,3.049c0.436,0.326,4.793,3.479,6.449,4.66
	c1.662-0.418,6.004-1.506,6.004-1.506l6.381,4.25c0,0-6.145,3.754-7.623,4.684v1.883c1.145,0.816,3.059,2.158,3.059,2.158
	l4.387,7.889c0,0,0.834,4.807,1.246,7.199c1.391,0.311,4.17,0.953,4.17,0.953s3.734,6.23,6.209,10.375
	c-0.215-3.172-0.705-12.262-0.705-12.262l8.213,4.961l1.748,10.076c0,0,0.225,0.824,0.279,1.094
	c0.127-0.547,0.977-4.031,0.977-4.031h7.48v13.559c1.021,0.957,4.602,4.627,4.602,4.627s-1.086,1.172-1.586,1.746
	c0.619,1.365,1.264,2.754,1.264,2.754l0.072,0.129c0.729,0.436,11.891,7.332,11.891,7.332s1.139,1.105,1.889,1.852
	c-0.059-1.934-0.123-3.236-0.172-3.842c-0.523-0.979-4.166-7.836-4.166-7.836l5.307-5.344l6.322,4.027l7.141,3.783
	c0,0,2.662,5.67,3.336,7.107c0.26,0.111,0.314,0.145,0.518,0.273c1.102-1.314,1.848-2.334,2.236-2.744
	c0.246-0.953,1.586-5.705,1.863-6.699c-0.105-1.119-0.99-6.518-0.99-6.518s-1.355-6.15-1.873-8.438
	c-2.32-0.93-10.605-4.277-10.605-4.277l-12.91-4.6c0,0-3.42-8.721-3.756-9.537c-0.531-0.678-4.979-6.049-4.979-6.049l-6.541-9.26
	c0,0-6.717-11.854-7.635-13.369c-1.471-0.684-9.191-4.25-9.191-4.25s-2.156-4.543-2.701-5.795c-1.148-0.648-4.896-2.828-4.896-2.828
	s-1.188-5.316-1.527-6.93c-1.086-0.783-2.666-1.85-4.305-2.99C380.466,258.513,378.991,259.611,378.991,259.611 M191.78,276.648
	c-0.055,0.041-2.016,1.514-3.656,2.766c0.768,0.352,1.043,0.465,1.752,0.73c1.248-0.6,3.207-1.527,5.33-2.514
	c-0.76-0.266-2.553-0.805-3.316-1.084L191.78,276.648z M169.458,291.808c-0.184,0.166-0.754,0.631-1.475,1.221
	c0.479,2.283,1.475,7.568,1.959,9.934c1.461,0.408,2.551,0.707,3.654,1.041c1.85-1.115,10.557-6.158,10.557-6.158
	s4.404-2.615,7.35-4.35c-0.977-1.418-2.523-3.76-2.611-3.932c0,0-9.531-2.602-10.844-2.986
	C174.94,288.501,169.827,291.583,169.458,291.808 M54.069,315.603l-0.644,0.291c0,0-5.097-0.561-9.264-0.949
	c0.83,0.334,4.571,1.967,5.171,2.246c0.551,0.104,2.41,0.383,3.521,0.547c1.062-0.547,2.891-1.475,2.891-1.475
	s4.917-3.002,5.176-3.16C57.885,314.183,54.069,315.603,54.069,315.603 M34.198,316.263v0.816c0.106,0.111,0.16,0.111,0.301,0.215
	c0.08-0.129,0.951-0.982,0.951-0.982s5.393-1.516,5.821-1.66c-0.898-0.117-2.271-0.244-2.552-0.309
	C37.895,314.732,35.99,315.484,34.198,316.263 M2.611,321.072c0.021,0.312,0.482,2.48,0.482,2.48S0.909,325.708,0,326.636
	c1.875-0.494,5.956-1.559,7.506-1.932c0.221-0.334,0.279-0.439,0.54-0.883c-1.492-1.354-2.519-2.246-3.591-3.152
	C3.742,320.771,3.537,320.865,2.611,321.072"/>
</svg>
