<?xml version="1.0" encoding="utf-8"?>
<!-- Generator: Adobe Illustrator 15.0.0, SVG Export Plug-In . SVG Version: 6.00 Build 0)  -->
<!DOCTYPE svg PUBLIC "-//W3C//DTD SVG 1.1//EN" "http://www.w3.org/Graphics/SVG/1.1/DTD/svg11.dtd">
<svg version="1.1" id="Layer_1" xmlns="http://www.w3.org/2000/svg" xmlns:xlink="http://www.w3.org/1999/xlink" x="0px" y="0px"
	 width="298.168px" height="185.273px" viewBox="0 0 298.168 185.273" enable-background="new 0 0 298.168 185.273"
	 xml:space="preserve">
<polygon id="_x30_5_montana" fill="#175AC6" points="7.248,0 7.027,1.111 0,35.98 3.837,42.945 3.837,44.09 5.885,48.828 
	6.347,51.34 5.199,53.836 6.57,56.07 4.062,56.562 7.898,61.059 8.825,63.322 12.446,65.363 13.13,67.617 14.706,69.906 
	15.634,72.363 18.552,77.156 20.359,79.387 19.912,80.527 20.359,82.98 22.606,85.053 23.75,87.525 26.009,87.525 25.573,89.793 
	27.833,91.154 30.998,90.936 33.253,91.832 30.773,98.833 28.272,103.572 27.607,106.078 25.798,108.367 26.476,110.595 
	25.332,113.105 26.689,115.335 25.798,120.103 23.537,120.56 22.175,122.8 22.822,125.306 21.034,127.564 20.359,130.042 
	23.097,130.97 25.332,134.125 27.607,133.693 37.095,128.468 37.556,130.531 39.816,132.769 39.816,137.501 40.71,143.876 
	42.544,148.611 44.339,150.849 45.005,153.351 45.24,155.619 44.125,158.8 44.779,161.283 46.597,163.542 49.078,162.83 
	51.58,165.117 52.948,169.427 52.257,171.71 53.591,173.945 53.148,176.173 54.525,178.691 56.756,180.974 57.683,180.509 
	58.119,178.035 60.41,176.88 65.152,177.814 67.646,178.691 69.879,178.691 72.169,176.669 73.537,176.173 78.503,178.035 
	83.012,178.035 85.521,179.367 87.748,178.691 92.298,180.048 92.298,178.464 96.144,173.728 98.402,174.408 99.975,178.691 
	101.343,181.193 103.605,183.427 106.115,167.169 108.335,165.562 155.622,172.148 201.568,177.539 252.46,182.55 287.304,185.273 
	288.417,182.767 290.425,150.849 298.168,40.715 298.168,39.814 280.497,38.426 233.212,34.152 195.447,29.869 159.92,25.545 
	105.182,17.619 42.749,7.002 "/>
</svg>
