<?xml version="1.0" encoding="utf-8"?>
<!-- Generator: Adobe Illustrator 15.0.0, SVG Export Plug-In . SVG Version: 6.00 Build 0)  -->
<!DOCTYPE svg PUBLIC "-//W3C//DTD SVG 1.1//EN" "http://www.w3.org/Graphics/SVG/1.1/DTD/svg11.dtd">
<svg version="1.1" id="Layer_1" xmlns="http://www.w3.org/2000/svg" xmlns:xlink="http://www.w3.org/1999/xlink" x="0px" y="0px"
	 width="195.92px" height="229.405px" viewBox="0 0 195.92 229.405" enable-background="new 0 0 195.92 229.405"
	 xml:space="preserve">
<polygon id="_x30_6_arizona" fill="#175AC6" points="52.49,0 47.283,28.727 45.029,32.111 42.303,34.826 39.799,34.4 38.896,31.666 
	36.863,29.387 34.381,29.387 32.119,27.805 29.398,28.27 26.695,30.096 25.566,33.027 27.127,37.768 25.77,40.029 25.566,42.293 
	26.01,47.062 25.088,50.182 24.883,52.688 25.77,57.436 25.34,62.885 22.857,64.922 22.363,70.129 21.934,72.389 21.934,74.877 
	24.643,79.85 25.566,83.039 25.77,85.277 26.695,87.77 26.455,90.494 30.965,95.236 32.58,97.461 30.541,99.756 22.629,104.057 
	21.5,106.332 19.242,107.682 18.096,111.957 17.887,116.483 16.551,118.768 15.611,121.928 11.525,126.915 9.02,128.499 
	7.934,130.752 8.812,133.444 8.59,135.702 7.475,138.208 7.934,140.471 10.383,141.374 12.672,142.735 13.109,145.026 
	12.896,148.84 10.383,150.413 9.725,152.706 7.475,152.243 6.568,151.555 5.424,151.776 4.281,151.999 0.916,156.745 0,159.237 
	7.256,163.536 68.094,198.616 107.914,220.997 154.27,227.573 169.648,229.405 169.869,228.252 195.92,21.916 156.311,16.748 
	118.068,11.074 78.936,4.736 "/>
</svg>
