<?xml version="1.0" encoding="utf-8"?>
<!-- Generator: Adobe Illustrator 15.0.0, SVG Export Plug-In . SVG Version: 6.00 Build 0)  -->
<!DOCTYPE svg PUBLIC "-//W3C//DTD SVG 1.1//EN" "http://www.w3.org/Graphics/SVG/1.1/DTD/svg11.dtd">
<svg version="1.1" id="Layer_1" xmlns="http://www.w3.org/2000/svg" xmlns:xlink="http://www.w3.org/1999/xlink" x="0px" y="0px"
	 width="172.59px" height="279.597px" viewBox="0 0 172.59 279.597" enable-background="new 0 0 172.59 279.597"
	 xml:space="preserve">
<polygon id="_x30_8_idaho" fill="#2ABFF4" points="52.475,0 52.268,1.367 34.613,83.691 33.699,91.156 32.547,93.416 34.15,98.178 
	33.006,105.432 33.699,107.688 34.15,110.846 35.277,113.355 36.199,114.719 40.717,118.988 41.617,123.723 40.25,125.99 
	34.832,132.115 31.182,139.365 27.123,143.857 26.904,145.904 25.537,148.373 23.51,150.66 19.678,153.142 16.746,157.662 
	14.455,159.923 12.889,167.171 13.779,168.529 16.043,169.185 18.328,170.787 19.678,173.048 17.822,175.552 17.621,178.714 
	15.607,183.449 14.713,184.14 13.559,185.958 0,251.109 42.949,259.929 79.172,266.47 89.58,268.539 127.576,274.849 
	159.246,279.597 172.59,188.412 170.328,186.177 168.961,183.679 167.389,179.396 165.133,178.714 161.283,183.449 161.283,185.033 
	156.732,183.679 154.506,184.353 151.996,183.019 147.488,183.019 142.523,181.162 141.154,181.66 138.865,183.679 136.635,183.679 
	134.137,182.802 129.396,181.869 127.107,183.019 126.672,185.5 125.748,185.958 123.512,183.679 122.133,181.162 122.578,178.929 
	121.242,176.701 121.934,174.412 120.564,170.103 118.064,167.818 115.586,168.529 113.764,166.267 113.109,163.783 
	114.225,160.603 113.992,158.337 113.324,155.833 111.533,153.599 109.695,148.865 108.801,142.486 108.801,137.758 
	106.543,135.516 106.078,133.457 96.592,138.68 94.318,139.113 92.084,135.955 89.344,135.029 90.018,132.553 91.811,130.295 
	91.158,127.789 92.523,125.549 94.783,125.09 95.676,120.324 94.318,118.092 95.461,115.582 94.783,113.355 96.592,111.066 
	97.256,108.559 99.76,103.822 102.242,96.818 99.986,95.924 96.818,96.143 94.561,94.781 94.994,92.514 92.74,92.514 91.59,90.041 
	89.344,87.973 88.896,85.516 89.344,84.371 87.537,82.143 84.623,77.352 83.691,74.893 82.111,72.604 81.434,70.35 77.812,68.307 
	76.881,66.043 73.045,61.553 75.555,61.059 74.188,58.822 75.336,56.324 74.869,53.814 72.822,49.074 72.822,47.932 68.984,40.965 
	76.012,6.094 76.234,4.988 70.789,3.844 "/>
</svg>
