<?xml version="1.0" encoding="utf-8"?>
<!-- Generator: Adobe Illustrator 15.0.0, SVG Export Plug-In . SVG Version: 6.00 Build 0)  -->
<!DOCTYPE svg PUBLIC "-//W3C//DTD SVG 1.1//EN" "http://www.w3.org/Graphics/SVG/1.1/DTD/svg11.dtd">
<svg version="1.1" id="Layer_1" xmlns="http://www.w3.org/2000/svg" xmlns:xlink="http://www.w3.org/1999/xlink" x="0px" y="0px"
	 width="184.383px" height="285.477px" viewBox="0 0 184.383 285.477" enable-background="new 0 0 184.383 285.477"
	 xml:space="preserve">
<polygon id="_x30_9_nevada" fill="#D3462F" points="26.262,0 6.104,83.008 0,107.438 85.521,232.095 121.684,285.478 
	122.178,280.272 124.656,278.233 125.09,272.786 124.203,268.042 124.404,265.532 125.33,262.413 124.887,257.644 125.09,255.378 
	126.449,253.118 124.887,248.378 126.018,245.446 128.717,243.618 131.436,243.153 133.697,244.731 136.184,244.731 
	138.217,247.017 139.119,249.751 141.625,250.177 144.35,247.46 146.605,244.075 151.809,215.353 184.383,33.229 148.156,26.689 
	105.211,17.871 72.391,10.844 "/>
</svg>
