<?xml version="1.0" encoding="utf-8"?>
<!-- Generator: Adobe Illustrator 15.0.0, SVG Export Plug-In . SVG Version: 6.00 Build 0)  -->
<!DOCTYPE svg PUBLIC "-//W3C//DTD SVG 1.1//EN" "http://www.w3.org/Graphics/SVG/1.1/DTD/svg11.dtd">
<svg version="1.1" id="Layer_1" xmlns="http://www.w3.org/2000/svg" xmlns:xlink="http://www.w3.org/1999/xlink" x="0px" y="0px"
	 width="236.865px" height="397.254px" viewBox="0 0 236.865 397.254" enable-background="new 0 0 236.865 397.254"
	 xml:space="preserve">
<polygon id="_x31_0_california" fill="#2ABFF4" points="21.49,0 19.938,4.965 18.582,7.254 20.158,9.979 19.938,12.205 
	20.389,16.971 19.938,17.436 19.232,21.953 13.562,32.141 14.027,34.381 13.139,36.879 11.561,39.113 10.416,41.619 11.086,42.303 
	8.818,43.908 6.316,44.998 4.959,47.283 2.73,49.768 0.682,54.539 0.682,58.344 0,60.844 4.959,67.877 4.959,70.129 6.605,72.395 
	8.818,79.639 8.611,81.898 9.051,84.383 8.611,86.67 8.611,89.582 7.029,91.844 4.959,96.367 5.447,105.896 4.959,109.496 
	2.951,111.781 4.959,116.518 7.684,121.25 10.186,128.281 11.779,130.762 13.783,133.02 14.93,135.281 15.393,137.754 
	15.172,140.045 15.611,139.123 15.846,139.342 17.867,144.107 18.582,148.846 16.98,144.107 16.549,146.582 14.93,149.09 
	14.027,151.562 16.549,149.984 19.021,152.684 19.664,154.973 22.174,156.551 23.531,159.057 25.832,161.289 27.844,159.928 
	26.699,157.455 28.512,155.867 28.066,153.389 29.195,150.885 31.662,149.984 33.941,152.025 35.738,154.539 38.025,155.867 
	40.037,154.76 42.299,154.973 44.35,157.234 48.867,157.455 51.158,155.65 50.436,157.234 48.186,158.779 50.436,158.779 
	52.949,157.66 55.211,159.928 56.787,162.186 56.787,162.865 53.158,157.912 48.41,159.707 41.4,156.305 37.783,156.551 
	35.512,154.76 33.508,155.65 31.215,155.65 29.881,158.131 31.436,160.426 30.773,162.652 31.662,165.154 33.02,166.033 
	33.723,170.578 33.723,175.094 35.512,177.576 33.285,177.137 31.006,174.424 29.641,171.914 27.371,170.359 27.617,168.094 
	28.953,165.812 28.738,163.328 28.275,162.43 25.832,162.43 24.693,164.477 24.434,166.734 22.639,171.479 23.965,173.762 
	24.227,178.5 23.531,180.732 22.639,182.334 22.639,184.598 23.531,186.836 27.371,193.863 29.881,195.91 34.373,196.373 
	35.738,201.112 35.738,206.061 34.619,205.622 33.723,207.917 28.953,210.149 28.953,215.163 28.275,219.893 29.422,222.379 
	33.285,227.147 34.373,231.889 36.416,233.684 36.879,238.667 39.391,243.194 39.598,245.661 40.5,247.952 43.451,250.428 
	44.768,255.196 49.076,259.725 49.545,262.2 47.752,263.776 47.293,266.241 49.076,268.542 51.586,269.403 53.385,271.909 
	53.158,274.157 51.158,277.575 51.158,282.317 49.791,284.579 50.225,287.057 48.646,289.571 48.41,292.045 50.008,292.51 
	51.586,295.004 53.605,297.241 60.631,298.393 62.881,299.293 65.367,299.752 69.908,302.911 72.174,303.817 76.91,304.27 
	80.785,307.208 82.58,309.473 84.811,311.518 85.52,316.266 90.725,320.549 95.465,323.495 104.752,325.086 105.189,325.536 
	107.041,330.278 107.26,332.54 106.551,334.825 106.762,337.065 109.275,338.649 110.406,336.846 112.645,337.278 115.154,338.649 
	117.416,342.51 119.238,344.764 121.717,346.819 129.4,356.75 131.666,361.518 133.244,366.915 133.732,371.68 133.244,376.44 
	132.092,380.963 132.092,383.448 132.803,381.614 135.281,383.198 134.383,385.489 133.244,382.981 134.166,385.489 
	134.818,388.872 135.963,389.083 208.568,396.547 209.709,396.327 210.854,396.104 211.762,396.79 214.012,397.254 214.668,394.963 
	217.182,393.387 217.393,389.575 216.959,387.288 214.668,385.922 212.221,385.018 211.762,382.758 212.873,380.252 
	213.098,377.995 212.221,375.299 213.305,373.049 215.814,371.463 219.9,366.479 220.836,363.319 222.17,361.034 222.381,356.506 
	223.527,352.233 225.783,350.883 226.918,348.606 234.83,344.305 236.865,342.012 235.25,339.786 230.742,335.045 230.982,332.317 
	230.059,329.827 229.852,327.59 228.93,324.401 226.219,319.424 226.219,316.94 226.648,314.68 190.494,261.295 104.967,136.643 
	111.07,112.209 131.23,29.199 81.438,16.504 22.639,0.223 "/>
</svg>
