<?xml version="1.0" encoding="utf-8"?>
<!-- Generator: Adobe Illustrator 15.0.0, SVG Export Plug-In . SVG Version: 6.00 Build 0)  -->
<!DOCTYPE svg PUBLIC "-//W3C//DTD SVG 1.1//EN" "http://www.w3.org/Graphics/SVG/1.1/DTD/svg11.dtd">
<svg version="1.1" id="Layer_1" xmlns="http://www.w3.org/2000/svg" xmlns:xlink="http://www.w3.org/1999/xlink" x="0px" y="0px"
	 width="106.76px" height="168.531px" viewBox="0 0 106.76 168.531" enable-background="new 0 0 106.76 168.531"
	 xml:space="preserve">
<polygon id="_x31_1_maine" fill="#2ABFF4" points="48.201,0 45.473,1.143 43.686,3.621 41.395,4.762 39.379,7.238 37.086,8.145 
	34.854,10.428 32.133,9.721 29.408,7.705 28.053,2.912 25.762,2.691 23.531,3.182 12.707,35.293 14.271,45.02 12.195,48.42 
	11.111,55.422 12.42,57.711 12.42,62.451 14.486,64.682 11.77,69.689 12.904,71.488 9.051,76.227 7.676,78.516 7.238,80.992 
	6.805,81.426 9.318,86.195 7.041,85.271 6.316,85.484 5.891,87.777 6.316,90.01 4.09,90.938 1.801,89.793 0,92.08 0.441,93.191 
	17.867,146.145 20.576,153.137 20.576,155.645 21.307,157.881 22.391,160.17 24.689,162.201 27.133,163.33 27.398,165.609 
	29.643,168.064 30.771,168.531 32.789,166.258 33.721,163.76 33.014,161.277 33.014,159.021 35.307,156.76 37.086,152.488 
	36.004,150.199 39.102,145.457 37.58,144.748 37.369,142.521 38.02,140.012 41.615,135.055 42.756,139.357 42.982,137.068 
	43.18,139.357 44.332,137.068 44.979,134.592 45.701,134.836 47.488,139.572 48.201,137.068 44.979,129.82 44.113,130.754 
	44.332,128.482 45.473,126.229 45.27,128.709 48.639,136.42 49.564,134.127 47.729,131.674 48.426,128.482 49.348,128.02 
	50.703,130.316 50.002,132.555 52.461,133.695 51.367,129.172 51.578,126.67 52.021,126.229 51.793,128.482 52.461,130.967 
	54.307,132.326 54.75,130.076 54.527,127.59 55.443,125.303 57.895,125.578 60.416,126.449 61.328,124.217 63.125,121.492 
	61.996,119.205 62.438,116.727 62.209,114.246 62.918,111.957 63.125,109.512 61.764,107.221 65.145,105.205 64.486,101.336 
	66.295,103.623 65.797,105.857 68.1,105.428 67.867,107.896 66.734,109.512 71.463,109.512 74.896,110.873 73.527,108.365 
	73.053,106.076 73.75,103.623 73.527,101.336 75.545,103.623 77.838,101.592 77.402,99.32 83.502,100.906 85.08,103.354 
	85.953,101.119 85.08,98.891 86.389,97.742 87.318,99.975 87.533,97.521 88.238,99.975 88.676,97.521 88.023,95.232 89.383,92.518 
	91.396,95.023 92.549,95.232 92.986,92.977 95.273,92.977 95.273,90.717 97.273,89.572 97.496,89.572 97.496,87.99 99.746,88.453 
	98.215,85.977 101.814,86.418 104.102,84.832 106.543,80.312 106.76,78.027 104.309,76.008 104.953,76.936 103.166,79.172 
	100.887,77.15 103.824,73.285 99.516,68.758 99.072,68.33 97.496,67.865 95.697,67.865 93.908,69.902 91.396,67.865 90.041,65.387 
	90.041,62.879 88.238,60.621 87.533,58.359 88.238,55.855 86.654,54.738 84.379,55.635 81.924,55.635 79.426,54.057 77.131,54.301 
	76.473,52.039 76.691,49.973 75.332,47.736 75.332,45.453 72.387,37.553 62.209,6.562 60.184,6.096 55.443,2.691 50.703,0.676 "/>
</svg>
