<?xml version="1.0" encoding="utf-8"?>
<!-- Generator: Adobe Illustrator 15.0.0, SVG Export Plug-In . SVG Version: 6.00 Build 0)  -->
<!DOCTYPE svg PUBLIC "-//W3C//DTD SVG 1.1//EN" "http://www.w3.org/Graphics/SVG/1.1/DTD/svg11.dtd">
<svg version="1.1" id="Layer_1" xmlns="http://www.w3.org/2000/svg" xmlns:xlink="http://www.w3.org/1999/xlink" x="0px" y="0px"
	 width="48.416px" height="101.094px" viewBox="0 0 48.416 101.094" enable-background="new 0 0 48.416 101.094"
	 xml:space="preserve">
<polygon id="_x31_2_newhampshire" fill="#EDC51B" points="16.502,0 14.262,2.477 11.975,1.801 9.701,3.619 9.701,5.881 
	8.609,10.619 9.035,12.908 8.822,13.123 8.117,14.236 9.701,17.652 8.338,22.387 8.822,24.891 10.605,27.125 11.551,29.414 
	11.324,31.643 9.482,35.051 5.443,39.592 4.521,39.814 2.25,42.049 2.506,44.551 3.869,49.297 2.943,53.379 3.369,55.855 
	2.506,58.119 2.738,60.623 2.008,62.883 0.652,65.365 1.141,68.99 0,71.252 2.008,79.414 2.008,84.154 3.369,91.154 2.25,93.418 
	2.25,96.137 3.592,98.863 5.881,101.094 35.943,94.121 38.896,90.723 40.24,88.219 40.961,88.432 42.533,85.947 44.986,84.373 
	46.145,84.154 47.275,84.154 47.275,81.863 48.416,77.127 47.275,76.449 46.145,75.988 43.9,73.529 43.635,71.252 41.191,70.123 
	38.896,68.09 37.811,65.805 37.08,63.566 37.08,61.057 34.367,54.062 16.943,1.111 "/>
</svg>
