<?xml version="1.0" encoding="utf-8"?>
<!-- Generator: Adobe Illustrator 15.0.0, SVG Export Plug-In  -->
<!DOCTYPE svg PUBLIC "-//W3C//DTD SVG 1.1//EN" "http://www.w3.org/Graphics/SVG/1.1/DTD/svg11.dtd" [
	<!ENTITY ns_flows "http://ns.adobe.com/Flows/1.0/">
]>
<svg version="1.1"
	 xmlns="http://www.w3.org/2000/svg" xmlns:xlink="http://www.w3.org/1999/xlink" xmlns:a="http://ns.adobe.com/AdobeSVGViewerExtensions/3.0/"
	 x="0px" y="0px" width="67px" height="85px" viewBox="-21.853 -20.603 67 85"
	 overflow="visible" enable-background="new -21.853 -20.603 67 85" xml:space="preserve">
<defs>
</defs>
<polygon fill="#175AC6" points="21.826,0 4.256,4.58 0,5.848 0.209,6.391 0.509,7.234 0.309,8.413 1.158,9.596 1.255,12.133 
	1.695,13.311 2.742,14.379 3.078,15.444 2.975,16.609 3.387,17.775 3.516,18.852 3.078,19.393 3.078,21.622 3.822,23.857 
	4.466,24.935 5.102,27.166 4.902,29.074 5.412,30.241 5.949,28.961 7.671,30.459 10.104,41.644 10.002,42.389 10.742,43.453 
	20.443,41.425 19.364,40.375 18.731,39.091 18.731,37.812 19.259,36.745 18.618,33.448 18.618,31.217 17.673,27.372 18.21,26.307 
	17.979,24.602 18.618,23.432 18.962,22.368 18.852,21.189 19.259,20.122 19.058,18.956 19.494,17.034 18.852,14.799 18.731,13.621 
	19.802,12.569 20.237,12.465 22.137,10.326 23.005,8.723 23.112,7.672 22.668,6.594 21.826,5.54 21.6,4.361 22.241,2.133 
	21.495,0.524 "/>
</svg>
