<?xml version="1.0" encoding="utf-8"?>
<!-- Generator: Adobe Illustrator 15.0.0, SVG Export Plug-In . SVG Version: 6.00 Build 0)  -->
<!DOCTYPE svg PUBLIC "-//W3C//DTD SVG 1.1//EN" "http://www.w3.org/Graphics/SVG/1.1/DTD/svg11.dtd">
<svg version="1.1" id="Layer_1" xmlns="http://www.w3.org/2000/svg" xmlns:xlink="http://www.w3.org/1999/xlink" x="0px" y="0px"
	 width="49.08px" height="92.275px" viewBox="0 0 49.08 92.275" enable-background="new 0 0 49.08 92.275" xml:space="preserve">
<polygon id="_x31_3_vermont" fill="#175AC6" points="46.349,0 9.037,9.725 0,12.416 0.441,13.568 1.08,15.361 0.654,17.865 
	2.458,20.377 2.663,25.766 3.599,28.266 5.821,30.535 6.535,32.797 6.315,35.271 7.192,37.746 7.464,40.031 6.535,41.182 
	6.535,45.914 8.116,50.662 9.481,52.951 10.831,57.688 10.41,61.742 11.492,64.219 12.633,61.5 16.289,64.682 21.454,88.434 
	21.239,90.014 22.812,92.275 43.413,87.971 41.12,85.74 39.777,83.012 39.777,80.297 40.896,78.033 39.537,71.031 39.537,66.291 
	37.529,58.127 38.67,55.863 38.18,52.242 39.537,49.76 40.268,47.5 40.033,44.998 40.896,42.73 40.469,40.254 41.396,36.174 
	40.033,31.426 39.777,28.924 42.051,26.691 42.976,26.469 47.009,21.928 48.853,18.523 49.08,16.291 48.137,14.002 46.349,11.764 
	45.867,9.26 47.23,4.527 45.646,1.111 "/>
</svg>
