<?xml version="1.0" encoding="utf-8"?>
<!-- Generator: Adobe Illustrator 15.0.0, SVG Export Plug-In . SVG Version: 6.00 Build 0)  -->
<!DOCTYPE svg PUBLIC "-//W3C//DTD SVG 1.1//EN" "http://www.w3.org/Graphics/SVG/1.1/DTD/svg11.dtd">
<svg version="1.1" id="Layer_1" xmlns="http://www.w3.org/2000/svg" xmlns:xlink="http://www.w3.org/1999/xlink" x="0px" y="0px"
	 width="97.238px" height="51.092px" viewBox="0 0 97.238 51.092" enable-background="new 0 0 97.238 51.092" xml:space="preserve">
<polygon id="_x31_4_massachusetes" fill="#D3462F" points="61.506,0 60.35,0.223 57.898,1.795 56.318,4.283 55.605,4.07 
	54.26,6.574 51.309,9.973 21.246,16.947 0.65,21.25 0.221,23.75 0,46.361 0.871,47.727 16.506,44.344 18.732,44.344 23.268,42.764 
	24.631,42.98 27.123,41.834 40.688,38.432 43.854,37.748 45.422,38 54.535,35.295 56.758,36.889 57.629,39.119 58.998,39.816 
	59.264,41.623 60.846,43.195 61.059,43.416 62.859,44.564 64.654,43.195 65.15,40.938 65.15,43.416 64.449,45.672 66.455,46.361 
	67.594,49.738 67.869,51.092 69.447,48.641 71.682,48.863 73.061,44.996 75.334,43.195 76.42,40.938 78.727,39.363 78.727,41.623 
	79.855,46.361 82.303,45.455 84.592,43.881 85.246,41.402 86.174,41.834 93.193,38 95.916,37.098 97.238,34.594 95.916,30.074 
	92.711,25.768 90.256,23.967 87.961,23.316 85.459,23.75 87.961,24.188 90.471,25.768 91.346,28.281 93.416,28.061 94.553,31.896 
	92.502,34.156 87.756,37.748 85.459,37.098 83.016,37.316 81.643,36.396 79.355,31.896 77.135,31.438 74.852,30.291 74.852,28.061 
	77.135,29.199 75.045,26.697 70.545,22.395 68.084,21.957 65.586,23.316 63.287,21.957 61.713,19.67 64.229,19.67 63.084,17.406 
	65.15,14.932 64.654,14.004 65.805,11.748 70.316,8.611 70.766,6.107 68.518,6.574 68.951,7.008 66.723,7.467 64.449,5.643 
	64,3.379 62.203,2.236 62.639,0 "/>
</svg>
