<?xml version="1.0" encoding="utf-8"?>
<!-- Generator: Adobe Illustrator 15.0.0, SVG Export Plug-In  -->
<!DOCTYPE svg PUBLIC "-//W3C//DTD SVG 1.1//EN" "http://www.w3.org/Graphics/SVG/1.1/DTD/svg11.dtd" [
	<!ENTITY ns_flows "http://ns.adobe.com/Flows/1.0/">
]>
<svg version="1.1"
	 xmlns="http://www.w3.org/2000/svg" xmlns:xlink="http://www.w3.org/1999/xlink" xmlns:a="http://ns.adobe.com/AdobeSVGViewerExtensions/3.0/"
	 x="0px" y="0px" width="67px" height="85px" viewBox="-12.209 -30.3 67 85"
	 overflow="visible" enable-background="new -12.209 -30.3 67 85" xml:space="preserve">
<defs>
</defs>
<polygon fill="#D3462F" points="28.963,0 28.418,0.104 27.264,0.845 26.521,2.016 26.184,1.916 25.55,3.095 24.16,4.695 
	10.004,7.979 0.305,10.006 0.104,11.184 0,21.831 0.41,22.473 7.771,20.88 8.82,20.88 10.955,20.136 11.598,20.237 12.771,19.698 
	19.158,18.097 20.648,17.774 21.389,17.893 25.68,16.619 26.727,17.37 27.137,18.421 27.781,18.748 27.906,19.599 28.651,20.34 
	28.752,20.443 29.599,20.984 30.444,20.34 30.678,19.276 30.678,20.443 30.348,21.506 31.293,21.831 31.829,23.421 31.958,24.059 
	32.702,22.903 33.754,23.01 34.402,21.188 35.474,20.34 35.985,19.276 37.07,18.535 37.07,19.599 37.604,21.831 38.756,21.403 
	39.833,20.662 40.142,19.495 40.578,19.698 43.884,17.893 45.166,17.468 45.788,16.289 45.166,14.161 43.656,12.134 42.501,11.285 
	41.42,10.979 40.241,11.184 41.42,11.39 42.602,12.134 43.015,13.316 43.988,13.213 44.524,15.02 43.558,16.083 41.323,17.774 
	40.241,17.468 39.091,17.571 38.444,17.138 37.367,15.02 36.322,14.803 35.246,14.263 35.246,13.213 36.322,13.75 35.338,12.57 
	33.219,10.545 32.06,10.338 30.884,10.979 29.802,10.338 29.06,9.262 30.244,9.262 29.705,8.195 30.678,7.031 30.444,6.594 
	30.986,5.531 33.111,4.055 33.323,2.875 32.264,3.095 32.468,3.299 31.418,3.515 30.348,2.656 30.137,1.59 29.291,1.052 29.496,0 
	"/>
</svg>
