<?xml version="1.0" encoding="utf-8"?>
<!-- Generator: Adobe Illustrator 15.0.0, SVG Export Plug-In  -->
<!DOCTYPE svg PUBLIC "-//W3C//DTD SVG 1.1//EN" "http://www.w3.org/Graphics/SVG/1.1/DTD/svg11.dtd" [
	<!ENTITY ns_flows "http://ns.adobe.com/Flows/1.0/">
]>
<svg version="1.1"
	 xmlns="http://www.w3.org/2000/svg" xmlns:xlink="http://www.w3.org/1999/xlink" xmlns:a="http://ns.adobe.com/AdobeSVGViewerExtensions/3.0/"
	 x="0px" y="0px" width="67px" height="85px" viewBox="-20.166 -30.875 67 85"
	 overflow="visible" enable-background="new -20.166 -30.875 67 85" xml:space="preserve">
<defs>
</defs>
<polygon fill="#41B741" points="20.238,0 18.748,0.322 12.361,1.924 11.189,2.463 10.545,2.361 8.41,3.104 7.361,3.104 0,4.699 
	2.232,17.159 3.004,18.339 3.004,19.508 1.182,21.316 1.182,21.754 2.36,22.908 3.418,22.484 5.432,20.25 6.619,19.609 
	7.461,18.441 8.113,18.865 9.799,16.628 10.978,16.416 12.033,15.775 13.214,15.775 13.747,15.236 17.159,14.391 17.159,13.751 
	16.726,12.901 17.268,13.107 17.268,13.647 18.441,13.751 20.672,12.367 22.906,11.617 23.549,11.826 23.444,11.289 23.312,10.877 
	23.649,10.021 23.444,8.851 20.98,0.119 "/>
</svg>
