<?xml version="1.0" encoding="utf-8"?>
<!-- Generator: Adobe Illustrator 15.0.0, SVG Export Plug-In . SVG Version: 6.00 Build 0)  -->
<!DOCTYPE svg PUBLIC "-//W3C//DTD SVG 1.1//EN" "http://www.w3.org/Graphics/SVG/1.1/DTD/svg11.dtd">
<svg version="1.1" id="Layer_1" xmlns="http://www.w3.org/2000/svg" xmlns:xlink="http://www.w3.org/1999/xlink" x="0px" y="0px"
	 width="50.221px" height="48.648px" viewBox="0 0 50.221 48.648" enable-background="new 0 0 50.221 48.648" xml:space="preserve">
<polygon id="_x31_6_connecticut" fill="#41B741" points="42.979,0 39.812,0.686 26.248,4.086 23.762,5.23 22.393,5.014 
	17.857,6.594 15.631,6.594 0,9.98 4.738,36.441 6.377,38.945 6.377,41.428 2.508,45.268 2.508,46.197 5.012,48.648 7.258,47.748 
	11.533,43.004 14.057,41.645 15.842,39.164 17.229,40.062 20.807,35.311 23.312,34.861 25.553,33.5 28.059,33.5 29.193,32.355 
	36.439,30.561 36.439,29.201 35.518,27.398 36.668,27.836 36.668,28.982 39.162,29.201 43.896,26.264 48.645,24.67 50.01,25.113 
	49.783,23.973 49.504,23.098 50.221,21.281 49.783,18.795 44.553,0.254 "/>
</svg>
