<?xml version="1.0" encoding="utf-8"?>
<!-- Generator: Adobe Illustrator 15.0.0, SVG Export Plug-In . SVG Version: 6.00 Build 0)  -->
<!DOCTYPE svg PUBLIC "-//W3C//DTD SVG 1.1//EN" "http://www.w3.org/Graphics/SVG/1.1/DTD/svg11.dtd">
<svg version="1.1" id="Layer_1" xmlns="http://www.w3.org/2000/svg" xmlns:xlink="http://www.w3.org/1999/xlink" x="0px" y="0px"
	 width="218.042px" height="162.652px" viewBox="0 0 218.042 162.652" enable-background="new 0 0 218.042 162.652"
	 xml:space="preserve">
<g id="_x31_7_newyork">
	<polygon fill="#2ABFF4" points="144.784,0 126.913,4.982 110.354,8.611 108.12,8.611 103.333,11.088 95.009,20.158 87.526,32.576 
		87.759,35.518 84.112,40.262 83.233,42.107 80.724,44.125 76.431,48.635 75.983,50.91 78.267,52.729 78.708,54.092 78.267,51.586 
		80.724,50.445 81.001,53.875 84.112,52.262 82.747,54.527 82.317,56.787 80.081,57.691 82.317,62.453 82.53,64.037 83.456,66.291 
		83.671,68.793 82.095,71.033 79.579,71.033 77.12,73.76 74.204,76.018 72.843,78.525 70.771,80.785 68.538,82.143 66.946,84.379 
		65.157,83.699 60.411,83.945 55.622,85.051 50.876,87.811 44.778,85.307 35.234,85.74 26.202,87.541 21.246,89.609 19.016,90.936 
		16.498,91.623 14.213,93.201 11.714,94.344 11.714,94.566 13.133,98.869 12.848,100.668 17.874,101.588 18.08,102.488 
		16.935,104.064 19.881,109.273 19.881,111.775 15.798,116.299 14.71,118.773 12.848,121.031 9.909,123.979 6.104,128.713 
		0.869,133.949 0,134.594 0.213,135.52 1.798,144.107 23.487,140.266 56.751,133.721 94.341,125.809 119.185,120.105 
		119.388,120.609 121.677,121.688 122.835,123.979 124.858,123.516 127.343,125.561 129.794,130.543 130.284,132.801 132.3,135.303 
		136.606,137.113 138.854,137.326 141.62,138.465 141.62,139.361 166.024,147.291 164.44,141.631 162.163,139.361 161.718,137.113 
		161.944,136.422 162.649,138.688 165.104,140.266 166.239,143.885 166.673,151.133 165.587,156.109 166.466,156.109 
		167.599,153.604 170.052,152.705 170.329,150.014 172.831,145.006 170.329,142.553 170.329,141.631 174.198,137.785 
		174.198,135.303 172.563,132.801 167.821,106.336 166.948,104.971 167.171,82.359 167.599,79.859 166.024,77.602 166.239,76.018 
		161.073,52.262 157.419,49.086 156.28,51.801 155.192,49.324 155.62,45.273 154.267,40.531 152.901,38.246 151.319,33.502 
		151.319,28.764 152.247,27.619 151.976,25.332 151.101,22.855 151.319,20.383 150.61,18.119 148.384,15.852 147.446,13.348 
		147.241,7.957 145.437,5.453 145.862,2.947 145.228,1.154 	"/>
	<polygon fill="#2ABFF4" points="200.39,138.688 195.647,140.701 188.628,142.285 186.401,143.201 185.255,145.465 182.964,145.465 
		178.224,147.953 176.212,147.508 173.917,149.303 174.198,151.564 171.909,150.887 170.981,153.391 166.95,156.109 
		166.024,159.051 165.8,161.287 166.673,161.775 171.423,160.855 168.968,162.652 173.694,160.414 182.099,155.631 182.964,155.4 
		185.681,153.391 187.976,152.492 192.925,149.523 195.438,148.654 197.894,146.83 200.188,146.58 204.927,143.201 205.407,141.406 
		207.868,140.914 212.374,136.883 214.886,135.303 218.042,131.432 215.593,133.238 213.3,134.164 212.599,133.453 210.153,134.164 
		207.868,135.52 204.927,140.266 203.341,140.914 201.108,141.189 202.679,138.906 205.13,136.883 205.13,134.373 207.421,130.295 	
		"/>
</g>
</svg>
