<?xml version="1.0" encoding="utf-8"?>
<!-- Generator: Adobe Illustrator 15.0.0, SVG Export Plug-In . SVG Version: 6.00 Build 0)  -->
<!DOCTYPE svg PUBLIC "-//W3C//DTD SVG 1.1//EN" "http://www.w3.org/Graphics/SVG/1.1/DTD/svg11.dtd">
<svg version="1.1" id="Layer_1" xmlns="http://www.w3.org/2000/svg" xmlns:xlink="http://www.w3.org/1999/xlink" x="0px" y="0px"
	 width="38.447px" height="88.432px" viewBox="0 0 38.447 88.432" enable-background="new 0 0 38.447 88.432" xml:space="preserve">
<polygon id="_x31_8_newjersey" fill="#EDC51B" points="8.385,0 5.885,2.922 4.951,5.207 4.951,7.469 2.234,13.57 0,15.83 
	0.871,17.652 1.791,18.086 2.943,20.348 2.234,22.637 0.424,24.867 1.143,28.738 3.156,31.219 5.619,32.113 6.094,34.402 
	8.385,35.975 9.705,36.418 11.99,38.672 17.373,42.727 16.059,45.029 13.35,47.502 11.551,49.975 10.834,50.197 10.834,50.469 
	10.623,50.686 9.484,53.166 9.484,55.422 7.02,57.223 6.314,57.686 4.727,58.375 2.445,60.408 1.365,62.672 0.871,66.047 
	0.217,67.625 0,68.332 1.365,70.564 1.578,70.785 1.143,71.928 5.619,75.801 8.125,76.455 10.398,77.59 14.49,80.75 16.734,79.635 
	21.455,79.635 22.383,82.115 21.455,85.957 21.723,88.432 23.963,88.221 25.332,86.408 25.77,84.127 27.346,81.682 28.26,76.943 
	29.412,74.658 28.26,74.193 28.482,73.07 30.277,70.785 32.564,70.564 31.43,68.551 33.006,66.291 32.07,64.037 34.359,63.107 
	34.803,60.408 36.389,57.906 37.316,55.645 36.16,53.389 36.812,51.125 36.389,47.502 35.508,45.244 36.389,44.777 36.812,42.514 
	37.744,44.559 37.539,46.818 38.186,51.582 38.447,49.111 37.977,42.086 37.316,39.82 37.316,32.574 36.607,29.66 31.865,28.949 
	29.631,29.66 27.838,29.176 27.838,22.637 29.188,19.912 29.838,20.133 32.07,17.871 31.865,16.27 32.787,12.893 33.006,10.408 
	32.787,7.932 "/>
</svg>
