<?xml version="1.0" encoding="utf-8"?>
<!-- Generator: Adobe Illustrator 15.0.0, SVG Export Plug-In  -->
<!DOCTYPE svg PUBLIC "-//W3C//DTD SVG 1.1//EN" "http://www.w3.org/Graphics/SVG/1.1/DTD/svg11.dtd" [
	<!ENTITY ns_flows "http://ns.adobe.com/Flows/1.0/">
]>
<svg version="1.1"
	 xmlns="http://www.w3.org/2000/svg" xmlns:xlink="http://www.w3.org/1999/xlink" xmlns:a="http://ns.adobe.com/AdobeSVGViewerExtensions/3.0/"
	 x="0px" y="0px" width="67px" height="85px" viewBox="-24.364 -21.508 67 85"
	 overflow="visible" enable-background="new -24.364 -21.508 67 85" xml:space="preserve">
<defs>
</defs>
<polygon fill="#EDC51B" points="3.947,0 2.77,1.377 2.33,2.453 2.33,3.518 1.051,6.392 0,7.455 0.41,8.313 0.842,8.518 1.385,9.582 
	1.051,10.66 0.199,11.711 0.537,13.533 1.485,14.701 2.645,15.123 2.869,16.201 3.947,16.941 4.568,17.15 5.646,18.211 8.18,20.121 
	7.561,21.205 6.285,22.37 5.438,23.534 5.101,23.639 5.101,23.767 5.002,23.869 4.465,25.036 4.465,26.099 3.305,26.946 
	2.973,27.165 2.225,27.489 1.15,28.446 0.643,29.513 0.41,31.103 0.102,31.846 0,32.179 0.643,33.229 0.742,33.333 0.537,33.872 
	2.645,35.695 3.824,36.003 4.896,36.538 6.822,38.025 7.879,37.5 10.102,37.5 10.539,38.669 10.102,40.478 10.229,41.643 
	11.283,41.544 11.928,40.69 12.134,39.616 12.876,38.464 13.307,36.233 13.85,35.157 13.307,34.938 13.411,34.409 14.257,33.333 
	15.333,33.229 14.799,32.28 15.541,31.217 15.101,30.155 16.18,29.718 16.387,28.446 17.135,27.269 17.571,26.204 17.026,25.141 
	17.334,24.075 17.135,22.37 16.72,21.307 17.135,21.086 17.334,20.021 17.772,20.983 17.676,22.047 17.979,24.29 18.104,23.127 
	17.883,19.818 17.571,18.752 17.571,15.34 17.237,13.969 15.005,13.633 13.952,13.969 13.107,13.739 13.107,10.66 13.743,9.377 
	14.05,9.481 15.101,8.416 15.005,7.662 15.438,6.071 15.541,4.902 15.438,3.735 "/>
</svg>
