<?xml version="1.0" encoding="utf-8"?>
<!-- Generator: Adobe Illustrator 15.0.0, SVG Export Plug-In . SVG Version: 6.00 Build 0)  -->
<!DOCTYPE svg PUBLIC "-//W3C//DTD SVG 1.1//EN" "http://www.w3.org/Graphics/SVG/1.1/DTD/svg11.dtd">
<svg version="1.1" id="Layer_1" xmlns="http://www.w3.org/2000/svg" xmlns:xlink="http://www.w3.org/1999/xlink" x="0px" y="0px"
	 width="30.99px" height="51.557px" viewBox="0 0 30.99 51.557" enable-background="new 0 0 30.99 51.557" xml:space="preserve">
<polygon id="_x31_9_delaware" fill="#41B741" points="6.536,0 4.3,0.465 2.02,1.822 0.658,4.062 0,6.34 7.677,33.037 11.551,49.104 
	12.87,51.557 29.634,47.742 30.289,47.498 30.99,47.498 29.418,42.73 26.914,43.219 25.762,43.873 27.835,41.402 26.693,41.182 
	26.693,38.92 27.618,36.633 26.693,35.299 24.189,35.51 19.666,31.895 18.795,29.66 16.285,27.596 14.926,23.994 14.706,21.484 
	13.134,19.23 10.841,17.398 8.825,15.166 7.464,12.885 7.677,10.658 5.891,8.359 7.025,6.783 7.9,4.273 8.121,2.043 9.258,0.898 
	8.389,0.219 "/>
</svg>
