<?xml version="1.0" encoding="utf-8"?>
<!-- Generator: Adobe Illustrator 15.0.0, SVG Export Plug-In  -->
<!DOCTYPE svg PUBLIC "-//W3C//DTD SVG 1.1//EN" "http://www.w3.org/Graphics/SVG/1.1/DTD/svg11.dtd" [
	<!ENTITY ns_flows "http://ns.adobe.com/Flows/1.0/">
]>
<svg version="1.1"
	 xmlns="http://www.w3.org/2000/svg" xmlns:xlink="http://www.w3.org/1999/xlink" xmlns:a="http://ns.adobe.com/AdobeSVGViewerExtensions/3.0/"
	 x="0px" y="0px" width="67px" height="85px" viewBox="-28.272 -27.355 67 85"
	 overflow="visible" enable-background="new -28.272 -27.355 67 85" xml:space="preserve">
<defs>
</defs>
<polygon fill="#41B741" points="3.079,0 2.025,0.219 0.951,0.858 0.311,1.913 0,2.985 3.615,15.557 5.439,23.122 6.061,24.278 
	13.955,22.481 14.264,22.366 14.595,22.366 13.854,20.121 12.674,20.352 12.132,20.66 13.107,19.496 12.57,19.392 12.57,18.327 
	13.006,17.25 12.57,16.622 11.391,16.722 9.263,15.019 8.852,13.967 7.67,12.994 7.03,11.298 6.927,10.116 6.186,9.056 5.105,8.192 
	4.156,7.142 3.516,6.067 3.615,5.019 2.773,3.937 3.309,3.194 3.722,2.013 3.824,0.962 4.359,0.423 3.951,0.103 "/>
</svg>
