<?xml version="1.0" encoding="utf-8"?>
<!-- Generator: Adobe Illustrator 15.0.0, SVG Export Plug-In . SVG Version: 6.00 Build 0)  -->
<!DOCTYPE svg PUBLIC "-//W3C//DTD SVG 1.1//EN" "http://www.w3.org/Graphics/SVG/1.1/DTD/svg11.dtd">
<svg version="1.1" id="Layer_1" xmlns="http://www.w3.org/2000/svg" xmlns:xlink="http://www.w3.org/1999/xlink" x="0px" y="0px"
	 width="131.664px" height="64.227px" viewBox="0 0 131.664 64.227" enable-background="new 0 0 131.664 64.227"
	 xml:space="preserve">
<polygon id="_x32_1_maryland" fill="#D3462F" points="101.372,0 47.506,11.555 0,20.574 3.231,39.578 5.227,37.094 7.478,35.064 
	8.843,32.793 11.128,30.293 11.987,28.055 14.074,27.129 16.29,27.594 19.458,22.828 19.739,20.574 20.386,20.352 22.884,22.615 
	25.131,23.041 28.76,22.615 29.196,20.352 31.209,17.873 33.723,17.873 34.866,15.363 36.674,14.467 39.174,15.363 41.409,16.951 
	46.156,16.51 46.417,16.73 45.704,19.232 47.998,19.668 48.227,22.176 50.22,24.188 50.712,25.559 55.671,25.559 57.919,27.129 
	59.055,29.424 58.617,31.658 61.125,33.26 64.28,33.02 66.731,34.158 68.584,35.521 70.594,35.961 73.54,34.381 76.266,36.172 
	76.055,38.238 74.696,40.264 75.117,43.207 73.336,45.494 73.113,47.73 71.75,50.01 71.042,50.441 70.398,52.703 70.831,55.188 
	72.827,57.475 74.696,54.965 74.9,53.395 77.187,52.457 78.497,54.965 80.356,57.254 82.792,58.834 82.792,56.545 83.304,55.188 
	84.157,57.475 86.459,59.707 88.9,58.834 91.194,59.051 93.208,61.309 93.922,60.854 96.417,61.074 98.655,62.863 99.297,60.854 
	96.417,56.324 94.127,55.428 91.634,53.395 88.245,51.584 86.674,49.303 85.093,44.566 85.093,43.207 85.741,45.494 88.245,50.23 
	90.754,51.799 92.999,52.457 94.127,54.068 95.497,51.799 90.971,47.264 89.614,42.086 88.245,39.793 88.9,37.537 88.035,35.275 
	88.245,30.996 86.459,29.635 86.892,29.172 89.389,29.635 90.32,29.424 88.035,28.055 88.46,25.559 82.792,22.176 85.312,21.492 
	85.961,21.938 88.245,21.938 85.961,19.896 88.245,20.352 88.46,17.439 88.035,16.076 88.682,14.717 90.754,17.16 90.754,13.574 
	91.634,12.205 91.834,14.467 94.127,13.791 95.934,11.555 94.348,9.051 94.573,7.689 96.86,7.225 98.221,6.543 97.731,8.822 
	100.01,7.006 100.667,7.908 97.5,12.676 100.667,12.895 98.43,14.031 96.139,14.467 94.127,16.73 92.999,23.758 94.573,26.234 
	95.497,23.969 96.417,24.188 96.417,26.453 96.86,27.383 94.348,29.424 92.341,29.855 92.341,34.604 92.775,32.369 94.775,30.996 
	95.497,30.07 97.065,32.369 99.297,32.578 97.731,34.604 98.87,36.879 96.639,35.064 94.348,35.961 93.922,38.459 95.049,40.723 
	95.497,38.238 97.731,37.754 99.082,38.676 100.01,40.939 102.956,41.834 105.184,40.723 103.661,42.984 97.731,42.541 97.065,45 
	99.584,43.643 98.43,48.189 98.43,50.66 100.667,53.166 100.01,50.877 102.297,52.035 104.543,53.814 106.555,54.744 
	105.902,52.244 106.778,50.01 106.778,52.244 107.913,53.395 109.989,48.641 109.989,53.166 111.565,53.814 109.495,56.324 
	109.989,58.566 112.213,57.254 113.153,58.834 115.374,57.908 114.506,60.172 112.921,62.646 112.921,64.227 117.445,62.646 
	119.456,62.646 121.743,60.387 126.704,58.566 126.487,56.324 128.286,54.068 129.43,49.303 130.579,50.01 131.664,45.221 
	129.43,43.207 130.579,42.301 131.006,41.404 114.241,45.221 112.921,42.764 109.047,26.697 "/>
</svg>
