<?xml version="1.0" encoding="utf-8"?>
<!-- Generator: Adobe Illustrator 15.0.0, SVG Export Plug-In . SVG Version: 6.00 Build 0)  -->
<!DOCTYPE svg PUBLIC "-//W3C//DTD SVG 1.1//EN" "http://www.w3.org/Graphics/SVG/1.1/DTD/svg11.dtd">
<svg version="1.1" id="Layer_1" xmlns="http://www.w3.org/2000/svg" xmlns:xlink="http://www.w3.org/1999/xlink" x="0px" y="0px"
	 width="129.424px" height="130.322px" viewBox="0 0 129.424 130.322" enable-background="new 0 0 129.424 130.322"
	 xml:space="preserve">
<polygon id="_x32_2_westvirginia" fill="#41B741" points="44.123,0 42.551,1.141 41.393,1.141 40.754,3.402 42.33,5.422 
	43.91,12.451 42.98,14.924 41.85,21.949 42.33,24.432 42.061,27.367 40.969,27.596 41.393,29.875 40.969,32.115 41.193,34.611 
	40.266,39.133 37.312,41.857 34.379,46.6 29.873,50.684 25.822,49.104 23.752,52.043 23.752,54.279 20.387,56.105 19.451,58.359 
	19.451,60.867 17.879,63.348 19.67,65.605 18.309,67.871 17.438,70.346 14.926,66.75 12.707,65.814 11.066,68.33 10.193,70.562 
	10.193,73.072 9.488,73.975 8.834,76.475 9.711,77.807 10.193,82.361 7.684,83.914 7.684,86.416 5.895,88.676 2.516,90.26 
	0.236,90.719 0,90.51 0.236,92.078 1.154,93.223 1.363,95.695 0.236,100.221 5.246,105.426 5.895,107.688 8.178,109.945 
	13.135,116.273 17.879,119.688 22.615,119.924 22.404,122.146 24.41,124.652 26.93,126.877 31.658,129.645 35.08,130.322 
	39.607,127.158 40.754,124.873 44.566,126.451 46.852,126.229 52.033,123.752 54.309,123.066 54.965,121.023 54.965,118.762 
	58.613,119.924 63.139,116.055 65.588,116.52 70.102,113.328 70.592,112.893 69.893,110.629 71.693,108.363 69.893,105.857 
	70.82,101.584 73.336,96.816 75.568,93.654 76.697,88.924 76.92,86.416 78.516,84.146 79.871,79.391 80.775,78.521 81.24,76.01 
	81.24,71.27 83.674,70.562 85.967,72.639 86.186,73.748 90.92,74.432 93.217,73.506 94.346,71.27 95.279,66.264 96.361,64.027 
	96.809,60.625 97.73,58.359 100.227,58.574 102.479,57.936 104.533,53.191 106.553,52.916 108.355,50.684 109.922,46.16 
	111.494,43.66 111.283,38.922 112.217,36.406 111.777,34.152 114.23,33.031 127.135,40.066 128.711,37.557 129.424,33.256 
	128.934,31.889 126.939,29.875 126.707,27.367 124.416,26.93 125.131,24.432 124.869,24.211 120.121,24.65 117.885,23.061 
	115.385,22.164 113.578,23.061 112.436,25.57 109.922,25.57 107.904,28.051 107.471,30.314 103.84,30.738 101.596,30.314 
	99.098,28.051 98.447,28.271 98.168,30.525 95,35.293 92.787,34.828 90.695,35.756 89.838,37.992 87.555,40.494 86.186,42.762 
	83.938,44.793 81.939,47.277 78.711,28.271 50.018,33.469 "/>
</svg>
