<?xml version="1.0" encoding="utf-8"?>
<!-- Generator: Adobe Illustrator 15.0.0, SVG Export Plug-In . SVG Version: 6.00 Build 0)  -->
<!DOCTYPE svg PUBLIC "-//W3C//DTD SVG 1.1//EN" "http://www.w3.org/Graphics/SVG/1.1/DTD/svg11.dtd">
<svg version="1.1" id="Layer_1" xmlns="http://www.w3.org/2000/svg" xmlns:xlink="http://www.w3.org/1999/xlink" x="0px" y="0px"
	 width="226.426px" height="128.281px" viewBox="0 0 226.426 128.281" enable-background="new 0 0 226.426 128.281"
	 xml:space="preserve">
<path id="virginia_1_" fill="#EDC51B" d="M148.145,7.041l1.578-2.514l0.711-4.297h4.957l2.246,1.57l1.139,2.295l-0.439,2.234
	l2.51,1.602l3.152-0.24l2.453,1.139l1.857,1.365l2.006,0.438l2.014,1.133l1.164,2.484l0.207,1.359l0.717,2.48l-2.297,2.283
	l0.209,1.121l-0.65,0.904l-0.711,0.238l-1.297-0.918l-0.918,7.021l0.432,2.256l-0.875,0.221l0.875,2.289l2.289,0.213l1.584-0.707
	l2.717-2.016h2.439v2.24l3.887,3.43l1.352,0.436l2.447-0.221l0.719,0.439l4.514-0.904l0.426,1.119l2.293,1.58v1.363h2.289v0.926
	l2.236,0.215l5.006,1.828v2.479l-2.289-0.434l1.357,2.236l0.229,2.496l-1.365,3.379l-2.512-0.869l-0.211-0.709l-2.229-0.207
	l-4.805-3.629l-1.512-0.223l-2.08-2.475l-2.281-0.93l-2.02-2.479l-2.494-2.039l-2.727-1.146l-2.234,0.217l2.004,0.27l4.812,2.918
	l1.309,2.26l1.35,1.363l2.494,1.145l1.867,2.479l4.725,2.27l0.67,1.357l2.23,1.785l2.297-0.211l2.482,2.045l-0.916,0.684
	l2.283,0.641l2.24-0.215l1.133,4.301l-0.432,2.273l-2.287-1.809l-2.219-0.465l-0.939,0.689l2.068,2.258l-1.129,2.504l-4.805-2.066
	l-4.516-4.062l-2.459-0.463l4.967,3.867l2.008,2.264l4.805,1.795l2.441-0.672l0.701,2.279l2.51,0.879l0.865,2.271l-0.65,2.492
	l-1.615,0.463l-1.109,1.361l-2.277-2.506l-2.459-0.9l-2.283-2.047l-1.791-2.467l-2.291,1.814l-2.23-1.361l-2.299-2.041l-0.221,2.479
	h-1.141l-2.504-2.045l-4.729,0.93l-2.238-0.461l-0.719,1.139h7.248l4.584,1.799l2.018-0.438l2.23,0.873l2.494-0.873l0.883,2.24
	l1.631,2.504l0.211-0.244l2.242,1.605l2.289,2.236l-0.662,2.279l2.455-2.279l1.795,0.242l2.289,1.123l-0.922-1.365l0.711-2.697
	l2.225,0.461l6.547-0.24l2.062,4.756l4.303,6.996l-0.932,0.248l-1.08-2.504l-2.291-1.791l0.221,2.469l0.701,2.264l-1.131,0.459
	l-1.367-1.145l0.646,1.145l-28.482,6.324l-32.355,6.562l-63.789,11.764l-23.322,3.373l-9.025,0.943l-4.738-0.23l-3.365,0.23
	l-9.33,2.248l-11.764,1.83l-19.656,2.938l-4.75,0.223L0,128.281l4.514-3.182l2.498-0.463l2.248-1.803l5.658-2.223l0.43-2.514
	l2.287-1.816l2.244-1.127l1.85-2.285l0.213-2.232l2.67-2.041l0.283-2.486l1.58-2.502l8.096-6.094l9.057-10.615l-0.211,2.217
	l2.008,2.51l2.516,2.227l4.725,2.766l3.426,0.678l4.523-3.164l1.15-2.285l3.814,1.58l2.285-0.221l5.18-2.484l2.277-0.684
	l0.656-2.039v-2.264l3.648,1.164l4.525-3.873l2.447,0.469l4.51-3.193l0.498-0.436l-0.699-2.262l1.795-2.271l-1.795-2.5l0.924-4.275
	l2.516-4.768l2.236-3.166l1.125-4.725l0.221-2.504l1.596-2.275l1.357-4.754l0.902-0.873l0.467-2.508v-4.74l2.434-0.709l2.291,2.072
	l0.223,1.113l4.736,0.684l2.295-0.926l1.129-2.234l0.932-5.008l1.082-2.24l0.449-3.4l0.92-2.264l2.5,0.215l2.248-0.643l2.057-4.738
	l2.018-0.277l1.803-2.23l1.564-4.525l1.576-2.5l-0.211-4.742l0.93-2.514l-0.438-2.252L135.24,0L148.145,7.041z M221.465,35.057
	l-2.285,2.264l-2.016,2.287l2.248,1.58l-0.445,2.48h-2.24l-0.262,4.738l-1.807,4.053l-0.221,4.771l0.449,2.469l-0.656,0.717
	l0.207,4.736l2.504,3.404l2.025-4.543l-0.486-4.314l0.486-2.469l1.139-2.268l0.438-2.229l2.291,1.586l0.213-0.256l0.664-2.477
	l-0.223-4.518l0.912-4.768l1.602-3.404l-0.283-2.232l0.707-3.43L221.465,35.057z"/>
</svg>
