<?xml version="1.0" encoding="utf-8"?>
<!-- Generator: Adobe Illustrator 15.0.0, SVG Export Plug-In . SVG Version: 6.00 Build 0)  -->
<!DOCTYPE svg PUBLIC "-//W3C//DTD SVG 1.1//EN" "http://www.w3.org/Graphics/SVG/1.1/DTD/svg11.dtd">
<svg version="1.1" id="Layer_1" xmlns="http://www.w3.org/2000/svg" xmlns:xlink="http://www.w3.org/1999/xlink" x="0px" y="0px"
	 width="246.798px" height="111.963px" viewBox="0 0 246.798 111.963" enable-background="new 0 0 246.798 111.963"
	 xml:space="preserve">
<polygon id="_x32_4_northcarolina" fill="#2ABFF4" points="230.945,0 202.461,6.32 170.107,12.887 106.317,24.645 82.997,28.025 
	73.967,28.963 69.229,28.736 68.08,31.898 68.303,34.375 67.422,38.682 65.14,39.576 63.118,41.859 61.552,46.822 59.268,49.326 
	57.248,47.748 52.727,49.541 50.438,51.342 49.557,53.602 47.268,56.078 45.689,56.078 43.412,53.85 41.174,55.205 40.246,56.291 
	39.818,58.584 37.305,57.908 36.443,62.676 35.082,64.91 32.789,64.91 28.264,68.064 21.731,74.656 19.707,75.531 14.924,75.801 
	10.175,78.5 8.119,80.748 7.238,83.254 6.798,86.418 4.742,88.654 0,90.018 0,99.523 36.22,93.877 43.676,90.018 46.182,89.783 
	49.781,86.418 54.528,84.846 56.755,83.48 59.035,82.764 85.518,79.865 95.482,79.174 97.718,81.414 100.008,80.535 103.809,84.129 
	104.734,86.646 104.945,88.867 105.676,89.586 138.472,84.375 175.982,111.062 177.14,111.963 178.492,111.754 183.225,109.734 
	187.759,108.586 191.835,108.586 194.126,107.01 194.561,102.227 192.981,97.482 193.426,97.482 194.561,99.768 196.143,105.395 
	196.143,98.404 196.793,95.9 198.862,91.16 202.021,86.418 206.986,82.107 205.624,79.865 206.986,77.598 205.825,76.014 
	208.117,76.891 206.549,79.174 209.001,80.078 209.705,79.611 211.296,77.373 213.58,72.83 216.022,73.76 221.678,70.783 
	223.973,70.783 224.206,69.705 225.987,67.406 227.132,69.908 228.057,67.406 230.507,68.988 231.436,68.77 233.462,64.256 
	235.524,61.963 236.404,59.484 235.524,57.691 234.589,57.908 233.462,60.383 231.221,60.85 231.872,58.584 230.742,56.291 
	230.072,58.584 230.294,58.797 228.497,59.262 229.153,61.523 226.919,60.383 222.118,63.32 217.386,62.887 213.58,59.262 
	211.718,57.008 213.779,58.344 216.233,59.262 218.961,61.312 221.464,61.523 223.039,60.383 226.693,55.863 226.693,53.602 
	224.398,54.07 225.075,52.242 227.564,51.791 228.497,49.326 223.481,47.49 221.251,47.49 210.843,44.775 210.131,43.873 
	210.347,43.451 215.374,44.775 219.89,44.998 222.118,44.098 223.707,44.562 222.828,42.295 222.617,40.043 224.855,39.822 
	223.481,41.381 225.769,43.451 228.276,44.098 228.497,41.59 229.81,43.873 232.094,44.318 237.335,44.562 239.338,42.295 
	242.492,35.053 242.492,32.787 244.786,33.465 246.798,31.217 246.146,29.16 245.643,24.432 244.064,22.143 241.629,19.912 
	241.844,21.281 241.397,22.854 237.964,23.291 237.964,25.787 238.685,30.316 236.404,32.578 235.524,31.43 237.048,29.16 
	234.816,28.244 235.951,26.023 235.951,23.291 235.524,21.029 233.023,20.787 229.377,22.143 228.935,24.432 224.206,23.291 
	221.678,24.871 219.451,25.787 216.953,26.232 216.463,23.756 214.708,21.484 213.351,18.988 212.86,16.756 213.779,14.684 
	212.86,12.887 214.003,14.252 213.779,14.684 214.232,15.389 214.003,17.623 216.233,22.143 218.518,21.928 221.04,22.854 
	226.215,18.553 223.707,16.977 225.987,16.977 229.377,17.623 227.564,15.389 230.072,16.264 232.301,15.389 232.301,13.346 
	229.81,11.307 227.564,10.619 230.072,10.158 234.816,13.123 237.757,13.123 235.524,10.842 233.886,8.582 238.685,12.211 
	240.479,15.389 240.259,12.887 235.731,6.109 235.731,4.955 233.222,4.521 231.436,2.264 "/>
</svg>
