<?xml version="1.0" encoding="utf-8"?>
<!-- Generator: Adobe Illustrator 15.0.0, SVG Export Plug-In . SVG Version: 6.00 Build 0)  -->
<!DOCTYPE svg PUBLIC "-//W3C//DTD SVG 1.1//EN" "http://www.w3.org/Graphics/SVG/1.1/DTD/svg11.dtd">
<svg version="1.1" id="Layer_1" xmlns="http://www.w3.org/2000/svg" xmlns:xlink="http://www.w3.org/1999/xlink" x="0px" y="0px"
	 width="159.709px" height="164.449px" viewBox="0 0 159.709 164.449" enable-background="new 0 0 159.709 164.449"
	 xml:space="preserve">
<polygon id="_x32_6_georgia" fill="#175AC6" points="74.682,0 38.467,5.646 26.701,6.57 0,9.959 11.109,44.771 22.168,84.811 
	22.877,85.955 23.525,88.467 25.104,90.916 26.914,95.434 29.857,98.158 30.332,99.08 31.434,101.812 30.996,105.404 33.23,106.555 
	33.715,108.779 31.434,110.633 30.066,112.869 30.332,117.387 29.408,119.889 28.76,124.416 30.332,128.938 32.135,131.438 
	33.23,134.814 32.584,137.1 32.795,139.342 32.135,144.578 32.795,147.039 34.59,149.299 36.66,152.93 36.66,154.043 
	40.029,159.242 40.479,161.506 42.316,163.799 123.055,157.924 125.562,159.459 127.342,164.232 129.633,164.449 131.93,162.869 
	132.143,157.924 131.648,155.629 130.285,153.365 130.078,151.098 130.783,148.629 131.93,148.629 133.674,146.797 136.182,147.721 
	142.27,149.086 144.559,149.299 145.703,149.086 146.812,148.84 147.018,146.338 145.492,144.07 145.924,141.846 147.018,139.555 
	145.492,139.555 146.812,137.322 144.559,135.248 146.812,136.619 147.947,134.139 144.779,133.924 145.703,131.66 147.947,133.021 
	150.008,129.367 150.674,127.137 148.16,126.209 145.924,126.209 143.641,125.086 144.34,124.854 146.576,125.549 148.865,125.549 
	148.865,123.053 150.232,123.268 151.799,118.75 149.512,119.426 148.387,118.316 150.674,116.244 149.512,114.008 152.041,115.586 
	152.951,113.111 152.746,111.971 150.438,112.869 150.008,110.633 152.461,110.146 154.252,107.443 152.041,105.869 
	152.041,103.381 154.252,104.533 156.541,104.264 156.332,102.031 158.607,100.439 159.709,98.158 157.916,97.938 156.766,97.51 
	155.627,96.797 150.879,96.145 149.316,93.879 148.865,91.627 149.078,89.336 147.236,86.855 146.143,84.385 144.34,81.883 
	140.902,80.533 138.684,78.926 138.033,76.484 138.033,74.195 136.883,71.688 134.16,68.098 133.939,65.824 128.93,62.854 
	126.695,62.209 124.4,59.955 124.4,59.486 121.959,58.594 121.457,56.328 119.016,54.967 118.086,52.697 118.312,51.127 
	116.293,50.004 112.863,47.285 110.408,46.82 108.834,45.469 107.189,42.766 104.955,40.26 100.451,37.994 95.709,34.807 
	89.604,27.373 88.682,25.092 86.391,22.398 85.301,20.125 82.787,18.086 79.412,18.562 74.904,14.936 72.609,14.498 70.154,13.135 
	69.029,10.844 69.67,8.35 74.18,1.805 "/>
</svg>
