<?xml version="1.0" encoding="utf-8"?>
<!-- Generator: Adobe Illustrator 15.0.0, SVG Export Plug-In . SVG Version: 6.00 Build 0)  -->
<!DOCTYPE svg PUBLIC "-//W3C//DTD SVG 1.1//EN" "http://www.w3.org/Graphics/SVG/1.1/DTD/svg11.dtd">
<svg version="1.1" id="Layer_1" xmlns="http://www.w3.org/2000/svg" xmlns:xlink="http://www.w3.org/1999/xlink" x="0px" y="0px"
	 width="265.307px" height="201.348px" viewBox="0 0 265.307 201.348" enable-background="new 0 0 265.307 201.348"
	 xml:space="preserve">
<polygon id="_x32_7_florida" fill="#D3462F" points="178.225,0 176.477,1.828 175.332,1.828 174.621,4.303 174.834,6.566 
	176.197,8.83 176.691,11.123 176.477,16.074 174.18,17.648 171.889,17.434 170.111,12.662 167.604,11.123 86.863,17.004 
	85.025,14.709 84.578,12.443 81.209,7.242 32.083,13.121 2.938,16.074 0.708,17.865 0,20.842 3.6,25.566 5.877,26.725 8.113,28.982 
	7.019,32.359 7.901,34.623 10.173,35.516 10.395,36.654 8.113,38.918 7.019,41.184 8.378,41.424 10.822,40.496 13.115,39.139 
	15.145,35.949 16.276,33.502 15.858,32.574 15.624,32.359 16.935,30.996 18.085,34.166 19.447,31.926 20.365,29.197 20.809,31.43 
	23.295,33.707 21.501,35.949 17.862,36.877 17.157,37.314 19.656,37.098 26.897,35.291 33.007,34.623 34.139,34.402 38.873,30.068 
	39.59,32.141 41.817,30.996 44.335,30.342 48.412,32.141 49.552,34.166 47.486,33.707 44.994,32.574 42.748,33.037 42.325,34.402 
	37.519,34.166 39.81,34.861 42.1,34.861 51.563,36.877 57.454,38.918 62.21,41.645 61.759,39.383 59.476,38.018 58.33,36.23 
	60.621,35.729 62.911,36.877 66.513,34.166 66.063,36.449 64.219,37.098 63.141,39.139 66.513,41.424 69.009,40.955 70.319,43.414 
	72.825,43.195 71.461,44.838 69.009,43.195 64.219,41.424 66.513,43.678 68.798,44.838 69.655,45.701 68.798,45.701 71.252,47.072 
	73.522,47.738 75.768,50.002 77.13,52.51 77.555,54.74 75.319,55.43 74.405,52.947 74.182,50.66 73.956,53.166 74.882,55.43 
	77.13,56.328 79.62,56.107 80.51,55.43 85.24,54.07 87.52,53.854 88.002,52.732 90.465,50.66 90.891,51.797 93.188,51.578 
	100.219,45.701 102.723,45.045 104.256,44.336 106.748,45.045 105.891,42.762 102.945,41.424 106.098,42.324 105.182,41.184 
	106.316,38.918 108.607,37.098 113.068,36.654 115.586,35.949 116.934,36.23 122.166,38.918 124.396,39.139 129.191,42.08 
	132.566,46.848 137.535,49.074 138.666,51.578 138.893,53.854 145.648,58.396 147.713,61.094 150.002,61.984 151.312,64.277 
	153.594,64.932 158.332,64.492 161.979,67.865 161.979,70.158 163.779,72.4 166.234,73.533 166.504,76.012 166.943,77.135 
	167.387,84.162 168.086,86.418 167.867,89.148 165.371,101.119 166.006,103.164 166.006,107.906 164.875,111.779 166.504,114.256 
	168.945,116.514 166.504,113.115 171.027,116.053 171.244,116.947 172.826,114.689 173.965,109.943 171.672,109.943 
	171.027,109.486 171.027,107.229 169.445,105.393 169.445,104.967 174.402,107.473 175.068,109.707 177.352,107.473 
	179.354,109.707 179.854,111.779 175.77,118.805 175.068,122.604 172.826,123.545 172.826,125.111 170.545,123.285 172.117,125.557 
	176.691,127.814 177.986,130.072 177.562,130.99 182.787,139.605 184.377,141.846 187.957,145.703 190.252,146.357 192.496,146.139 
	193.414,146.576 192.709,144.354 191.361,142.086 189.107,140.484 191.566,140.703 192.709,142.312 197.008,140.043 197.5,140.484 
	194.986,142.086 196.59,144.354 196.348,149.088 196.791,151.594 197.928,153.826 197.719,155.426 199.949,155.182 202.244,152.738 
	202.668,150.445 205.834,147.939 203.158,151.312 202.904,153.826 201.09,156.111 201.316,157.463 203.594,158.121 205.834,160.176 
	208.34,168.99 212.162,173.734 213.998,173.734 211.711,174.635 213.998,176.02 216.51,175.338 218.959,175.559 220.32,175.766 
	224.848,177.576 225.5,179.865 227.787,181.65 230.738,185.738 231.865,188.223 235.973,192.773 237.984,193.428 240.479,193.428 
	242.723,195.217 241.361,197.504 238.402,196.139 236.174,194.324 234.383,196.586 235.248,198.873 237.539,201.348 
	242.289,199.744 245.203,197.949 247.443,198.375 249.957,198.375 252.193,197.268 254.039,195.217 256.328,193.641 
	258.783,194.998 257.432,193.861 260.35,194.998 259.438,192.773 260.35,190.26 261.939,188.004 260.35,183.453 261.012,182.129 
	260.574,179.865 261.73,177.355 261.939,175.096 263.787,173.047 263.523,170.812 264.229,168.312 265.104,170.812 265.307,168.541 
	264.654,165.58 264.229,160.852 264.229,153.826 263.787,151.312 263.301,140.484 260.574,131.654 259.438,130.99 258.99,128.055 
	255.186,123.285 252.902,122.18 252.193,122.604 252.68,121.721 252.68,119.443 249.732,114.926 245.879,106.756 236.818,93.879 
	229.859,82.578 228.449,80.312 225.5,73.283 223.961,68.553 224.848,68.553 227.129,69.879 226.637,72.17 229.152,74.434 
	231.383,73.533 233.445,75.109 233.883,77.621 233.445,82.363 235.033,89.359 239.766,96.852 242.289,99.301 237.322,92.322 
	236.174,90.047 234.809,85.742 234.102,80.998 235.973,78.736 234.809,76.26 233.234,73.977 228.703,69.236 215.58,52.732 
	208.137,40.283 204.48,33.242 200.881,24.67 200.176,22.176 197.719,17.434 197.008,13.121 195.918,10.891 193.625,8.6 
	192.27,6.127 193.625,7.711 194.061,2.938 191.361,2.043 190.252,2.287 189.107,2.5 186.818,2.287 180.73,0.922 "/>
</svg>
