<?xml version="1.0" encoding="utf-8"?>
<!-- Generator: Adobe Illustrator 15.0.0, SVG Export Plug-In . SVG Version: 6.00 Build 0)  -->
<!DOCTYPE svg PUBLIC "-//W3C//DTD SVG 1.1//EN" "http://www.w3.org/Graphics/SVG/1.1/DTD/svg11.dtd">
<svg version="1.1" id="Layer_1" xmlns="http://www.w3.org/2000/svg" xmlns:xlink="http://www.w3.org/1999/xlink" x="0px" y="0px"
	 width="121.736px" height="139.553px" viewBox="0 0 121.736 139.553" enable-background="new 0 0 121.736 139.553"
	 xml:space="preserve">
<polygon id="_x32_8_ohio" fill="#EDC51B" points="113.354,0 99.58,8.115 94.83,11.496 92.537,13.34 90.52,15.582 88.033,19.174 
	83.508,23.293 78.77,23.973 76.48,23.5 71.52,25.76 69.24,27.344 66.709,28.271 64.5,30.064 62.258,29.596 59.545,28.271 
	54.748,28.271 52.51,30.279 50.262,30.064 52.51,27.777 56.119,26.9 54.096,24.611 51.867,26.9 49.35,26.416 47.062,24.611 
	43.695,23.973 41.4,22.824 36.441,22.145 35.783,21.234 24.67,23.5 0,27.562 4.361,61.715 11.336,123.264 14.496,121.467 
	16.783,123.049 20.592,121.902 26.258,124.164 27.611,126.859 31.271,131.627 33.721,132.084 38.514,131.627 39.816,131.873 
	44.613,135.684 47.062,135.463 48.65,133.234 50.941,132.979 53.883,133.447 56.119,135.463 58.389,134.312 60.629,134.312 
	61.99,132.084 64.5,129.828 67.227,128.492 69.01,132.516 71.303,134.803 73.531,135.037 75.838,137.076 77.611,139.338 
	77.848,139.553 80.131,139.09 83.508,137.508 85.297,135.25 85.297,132.748 87.807,131.191 87.326,126.641 86.445,125.309 
	87.104,122.803 87.807,121.902 87.807,119.396 88.68,117.164 90.318,114.646 92.537,115.58 95.053,119.178 95.918,116.701 
	97.285,114.439 95.494,112.182 97.062,109.695 97.062,107.191 98,104.938 101.365,103.113 101.365,100.873 103.436,97.934 
	107.486,99.516 111.99,95.43 114.926,90.691 117.877,87.971 118.807,83.441 118.58,80.947 119.006,78.709 118.58,76.426 
	119.674,76.199 119.943,73.264 119.459,70.779 120.594,63.758 121.527,61.283 119.943,54.256 118.365,52.238 119.006,49.973 
	120.164,49.973 121.736,48.834 113.574,1.334 "/>
</svg>
