<?xml version="1.0" encoding="utf-8"?>
<!-- Generator: Adobe Illustrator 15.0.0, SVG Export Plug-In . SVG Version: 6.00 Build 0)  -->
<!DOCTYPE svg PUBLIC "-//W3C//DTD SVG 1.1//EN" "http://www.w3.org/Graphics/SVG/1.1/DTD/svg11.dtd">
<svg version="1.1" id="Layer_1" xmlns="http://www.w3.org/2000/svg" xmlns:xlink="http://www.w3.org/1999/xlink" x="0px" y="0px"
	 width="112.867px" height="182.748px" viewBox="0 0 112.867 182.748" enable-background="new 0 0 112.867 182.748"
	 xml:space="preserve">
<polygon id="_x32_9_alabama" fill="#41B741" points="76.208,0 42.926,3.82 0,7.223 0.222,8.123 1.304,9.699 3.598,11.064 
	1.529,122.123 8.775,176.654 9.001,177.795 11.281,177.334 15.801,178.26 18.094,178.26 18.516,169.875 18.971,167.387 
	19.892,165.355 19.674,164.236 21.04,166.039 22.125,166.256 23.471,168.541 23.968,170.775 23.047,173.066 24.193,175.289 
	26.707,176.654 27.352,176.223 28.938,178.695 28.493,180.961 25.989,181.885 23.699,181.672 22.125,182.748 31.438,181.176 
	33.939,180.252 34.596,178.02 34.152,177.334 36.617,177.795 38.901,175.756 39.562,171.461 38.68,169.195 39.772,165.82 
	37.538,163.561 35.256,162.408 31.659,157.68 32.369,154.703 34.596,152.91 63.738,149.961 112.867,144.08 112.867,142.967 
	110.795,139.338 108.999,137.076 108.342,134.615 108.999,129.379 108.788,127.137 109.436,124.852 108.342,121.477 
	106.539,118.977 104.966,114.457 105.616,109.928 106.539,107.424 106.276,102.906 107.644,100.674 109.92,98.818 109.436,96.59 
	107.203,95.443 107.644,91.85 106.539,89.117 106.063,88.197 103.12,85.469 101.314,80.953 99.731,78.504 99.086,75.992 
	98.374,74.854 87.315,34.812 "/>
</svg>
