<?xml version="1.0" encoding="utf-8"?>
<!-- Generator: Adobe Illustrator 15.0.0, SVG Export Plug-In . SVG Version: 6.00 Build 0)  -->
<!DOCTYPE svg PUBLIC "-//W3C//DTD SVG 1.1//EN" "http://www.w3.org/Graphics/SVG/1.1/DTD/svg11.dtd">
<svg version="1.1" id="Layer_1" xmlns="http://www.w3.org/2000/svg" xmlns:xlink="http://www.w3.org/1999/xlink" x="0px" y="0px"
	 width="246.789px" height="88.193px" viewBox="0 0 246.789 88.193" enable-background="new 0 0 246.789 88.193"
	 xml:space="preserve">
<polygon id="_x33_0_tennessee" fill="#D3462F" points="243.428,0.229 234.098,2.48 222.332,4.307 202.676,7.246 197.926,7.469 
	188.889,8.822 185.682,9.947 175.326,10.631 166.014,11.986 156.527,12.857 143.623,13.562 135.715,14.938 121.244,16.264 
	106.971,16.939 92.252,19.014 80.488,19.881 68.303,21.465 65.562,20.594 60.617,20.594 62.189,25.115 61.969,27.557 21.932,30.973 
	19.646,32.787 20.145,30.973 18.074,31.217 18.498,33.723 19.439,35.959 16.938,36.846 18.291,39.33 15.135,41.611 17.365,43.875 
	16.055,46.137 14.477,49.979 15.391,51.348 15.842,53.598 13.334,54.52 14.693,57.008 12.406,58.799 10.17,59.92 8.818,61.285 
	8.818,61.777 10.602,64.002 9.029,65.361 7.879,66.949 6.291,67.869 7.676,70.104 6.744,72.141 5.871,70.572 3.586,71.471 
	3.148,73.977 5.387,73.266 4.939,76.234 6.291,82.328 5.871,83.229 3.586,83.918 2.48,86.172 0.211,87.543 0,88.193 40.943,85.059 
	62.633,83.018 63.111,83.229 62.891,82.328 105.816,78.926 139.1,75.104 165.799,71.717 177.562,70.791 177.562,61.285 
	182.303,59.92 184.359,57.689 184.803,54.52 185.682,52.018 187.736,49.766 192.484,47.068 197.27,46.797 199.291,45.924 
	205.826,39.33 210.352,36.176 212.643,36.176 214.002,33.943 214.865,29.176 217.381,29.85 217.807,27.557 218.738,26.475 
	220.969,25.115 223.252,27.342 224.826,27.342 227.115,24.869 227.998,22.609 230.285,20.807 234.809,19.014 236.828,20.594 
	239.113,18.09 240.682,13.127 242.699,10.848 244.98,9.947 245.859,5.643 245.643,3.166 246.789,0 "/>
</svg>
