<?xml version="1.0" encoding="utf-8"?>
<!-- Generator: Adobe Illustrator 15.0.0, SVG Export Plug-In . SVG Version: 6.00 Build 0)  -->
<!DOCTYPE svg PUBLIC "-//W3C//DTD SVG 1.1//EN" "http://www.w3.org/Graphics/SVG/1.1/DTD/svg11.dtd">
<svg version="1.1" id="Layer_1" xmlns="http://www.w3.org/2000/svg" xmlns:xlink="http://www.w3.org/1999/xlink" x="0px" y="0px"
	 width="210.586px" height="110.82px" viewBox="0 0 210.586 110.82" enable-background="new 0 0 210.586 110.82"
	 xml:space="preserve">
<polygon id="_x33_1_kentucky" fill="#175AC6" points="124.855,0 121.693,1.795 120.557,2.916 122.172,5.885 121.27,8.119 
	123.494,10.617 123.053,12.848 118.096,14.213 113.586,17.871 110.85,16.043 108.557,16.967 106.334,17.188 106.547,19.658 
	107.477,22.387 106.758,24.867 104.982,27.121 102.469,28.484 101.807,33.223 99.518,35.262 97.014,35.051 95.445,39.822 
	95.656,42.295 95.205,44.76 92.984,46.127 88.246,45.701 85.951,44.76 83.889,41.182 81.654,40.031 82.793,42.295 80.299,43.885 
	78.498,46.127 78.711,48.609 76.922,50.879 76.422,53.381 73.969,51.807 71.689,51.334 69.896,48.854 67.869,50.654 65.596,51.58 
	64.012,53.818 64.012,54.744 62.65,57.008 60.414,55.176 53.166,52.451 50.879,53.596 47.732,53.818 48.438,56.068 46.148,57.008 
	45.709,54.523 43.422,55.865 38.689,55.176 39.596,57.436 38.25,59.695 35.752,59.26 35.752,60.131 34.807,62.422 33.238,64.678 
	33.721,67.164 35.529,69.666 33.943,71.904 29.361,73.041 26.918,74.619 24.629,75.547 23.98,77.811 24.416,80.277 26.27,82.543 
	26.918,84.812 25.113,87.744 22.822,87.318 20.809,85.947 16.299,84.582 14.01,83.439 11.549,83.018 9.275,83.902 5.883,88.463 
	5.883,90.934 7.242,92.27 7.691,94.34 7.242,96.785 7.895,100.221 5.678,102.023 6.76,104.285 5.678,107.678 3.172,106.756 
	0.662,107.906 0,110.82 40.039,107.406 40.254,104.963 38.689,100.443 43.635,100.443 46.369,101.316 58.559,99.729 70.324,98.861 
	85.035,96.785 99.312,96.113 113.789,94.785 121.693,93.41 134.594,92.709 144.082,91.834 153.396,90.479 163.752,89.799 
	166.961,88.672 171.473,85.49 173.973,85.027 176.221,83.227 181.879,81.004 182.309,78.49 184.598,76.67 186.84,75.547 
	188.689,73.26 188.9,71.031 191.572,68.99 191.854,66.502 193.434,64 201.531,57.904 210.586,47.291 205.852,47.053 201.107,43.641 
	196.146,37.307 193.861,35.051 193.219,32.789 188.205,27.59 189.336,23.061 189.127,20.588 188.205,19.449 187.973,17.871 
	186.197,15.607 183.895,13.568 181.664,13.332 179.369,11.049 177.586,7.023 174.859,8.359 172.348,10.617 170.988,12.848 
	168.746,12.848 166.479,13.996 164.238,11.979 161.301,11.514 159.01,11.768 157.42,13.996 154.971,14.213 150.172,10.406 
	148.875,10.16 144.082,10.617 141.629,10.16 137.969,5.393 136.617,2.693 130.949,0.436 127.141,1.58 "/>
</svg>
