<?xml version="1.0" encoding="utf-8"?>
<!-- Generator: Adobe Illustrator 15.0.0, SVG Export Plug-In . SVG Version: 6.00 Build 0)  -->
<!DOCTYPE svg PUBLIC "-//W3C//DTD SVG 1.1//EN" "http://www.w3.org/Graphics/SVG/1.1/DTD/svg11.dtd">
<svg version="1.1" id="Layer_1" xmlns="http://www.w3.org/2000/svg" xmlns:xlink="http://www.w3.org/1999/xlink" x="0px" y="0px"
	 width="89.34px" height="155.621px" viewBox="0 0 89.34 155.621" enable-background="new 0 0 89.34 155.621" xml:space="preserve">
<polygon id="_x33_2_indiana" fill="#D3462F" points="73.543,0 35.303,4.736 21.955,6.102 20.801,6.102 16.072,9.477 11.338,11.988 
	8.844,12.666 5.664,11.988 2.455,9.721 2.455,10.84 10.629,96.572 8.338,99.086 9.48,101.316 8.113,103.818 8.338,106.332 
	10.197,109.26 12.219,111.533 11.76,114.012 13.359,118.746 12.92,121.25 12.219,121.684 9.707,126.238 9.48,128.715 6.549,133.695 
	4.75,135.959 2.455,137.982 2.021,140.486 2.455,140.912 1.803,145.68 1.373,145.895 1.15,150.447 0,152.682 1.6,155.186 
	4.094,155.621 5.441,153.363 4.535,151.102 9.268,151.789 11.557,150.447 11.996,152.934 14.285,151.994 13.576,149.742 
	16.725,149.518 19.01,148.377 26.26,151.102 28.498,152.934 29.859,150.666 29.859,149.742 31.441,147.508 33.713,146.58 
	35.746,144.781 37.535,147.262 39.82,147.73 42.268,149.307 42.775,146.803 44.557,144.537 44.348,142.053 46.146,139.811 
	48.641,138.219 47.502,135.959 49.732,137.105 51.803,140.688 54.094,141.625 58.83,142.053 61.055,140.688 61.506,138.219 
	61.293,135.748 62.863,130.979 65.365,131.186 67.654,129.15 68.314,124.412 70.834,123.045 72.605,120.795 73.324,118.312 
	72.393,115.586 72.182,113.111 74.404,112.893 76.699,111.967 79.434,113.797 83.941,110.139 88.902,108.773 89.34,106.545 
	87.117,104.043 88.021,101.811 86.398,98.842 87.541,97.721 80.568,36.172 76.207,2.02 "/>
</svg>
