<?xml version="1.0" encoding="utf-8"?>
<!-- Generator: Adobe Illustrator 15.0.0, SVG Export Plug-In . SVG Version: 6.00 Build 0)  -->
<!DOCTYPE svg PUBLIC "-//W3C//DTD SVG 1.1//EN" "http://www.w3.org/Graphics/SVG/1.1/DTD/svg11.dtd">
<svg version="1.1" id="Layer_1" xmlns="http://www.w3.org/2000/svg" xmlns:xlink="http://www.w3.org/1999/xlink" x="0px" y="0px"
	 width="221.705px" height="194.781px" viewBox="0 0 221.705 194.781" enable-background="new 0 0 221.705 194.781"
	 xml:space="preserve">
<g id="_x33_3_michigan">
	<polygon fill="#175AC6" points="41.408,0 36.447,5.668 35.088,7.959 30.363,9.969 27.859,12.447 25.564,14.053 23.322,14.93 
		20.816,15.145 18.58,15.854 16.09,15.854 13.574,17.209 9.27,21.951 2.307,25.102 0,26.477 1.146,27.623 3.658,28.49 5.893,30.342 
		8.613,34.861 33.52,39.604 41.629,43.225 42.561,42.979 47.301,43.686 49.529,42.979 52.025,43.9 58.129,44.584 60.428,45.947 
		60.855,50.217 63.152,50.439 66.744,51.576 69.24,53.842 68.584,54.525 69.682,56.811 69.24,61.549 68.363,63.787 69.24,65.826 
		71.482,65.148 73.975,64.924 72.609,69.666 72.889,71.955 75.117,73.975 75.342,73.975 76.477,74.396 76.264,72.172 78.725,68.311 
		82.139,61.328 83.459,56.592 84.867,54.086 86.881,51.576 87.814,47.055 89.846,43.686 88.904,45.947 89.846,48.428 91.205,50.686 
		93.422,48.641 93.91,47.281 96.158,44.799 98.443,43.9 100.672,44.332 100.469,46.838 98.174,48.641 97.092,51.576 99.314,51.805 
		100.943,49.354 103.18,47.055 105.678,45.264 105.896,42.541 107.258,40.281 109.051,39.143 111.561,38.693 113.799,38.914 
		118.328,37.559 120.83,37.559 123.066,36.215 125.133,32.605 129.652,31.918 132.115,32.605 134.393,32.35 139.133,33.934 
		144.084,38.018 146.369,38.914 146.369,34.646 147.08,32.137 149.301,31.676 151.592,33.029 153.826,32.137 164.945,32.35 
		167.18,31.676 165.82,29.408 163.377,28.268 163.146,26.037 160.85,24.893 160.207,24.893 157.914,23.311 157.707,20.805 
		156.986,18.576 155.684,16.064 153.611,13.807 151.83,14.273 151.592,14.488 150.23,16.51 147.951,17.648 146.369,15.414 
		141.637,17.209 137.109,16.51 135.977,14.488 135.748,6.127 131.229,6.812 128.998,7.684 124.42,10.398 122.186,11.082 
		112.654,11.764 110.428,12.693 106.338,13.561 104.055,15.854 99.314,18.785 95.715,23.531 93.691,22.66 91.406,22.879 
		88.904,22.385 86.68,20.371 81.221,22.385 78.998,22.66 76.477,21.52 75.117,19.01 70.838,14.488 69.463,12.012 67.217,11.549 
		64.924,9.531 62.445,9.041 57.707,9.041 55.471,9.969 53.883,12.229 52.729,12.91 54.756,8.168 52.529,10.398 50.238,11.764 
		49.529,14.053 48.666,14.93 48.004,12.693 48.426,7.959 44.572,3.16 42.988,2.285 	"/>
	<polygon fill="#175AC6" points="144.354,42.541 142.07,43.686 140.695,46.166 138.465,48.861 138.465,51.117 139.621,53.623 
		141.861,54.967 142.07,57.023 138.893,57.023 136.406,58.357 134.178,60.188 132.592,62.424 133.732,69.666 133.732,72.393 
		133.234,74.684 132.592,77.154 130.516,79.416 131.229,77.154 131.229,72.393 130.311,72.633 129.652,77.381 128.066,79.637 
		127.635,77.381 128.508,75.109 127.426,72.633 128.066,71.027 128.727,64.488 126.492,66.287 125.561,68.58 123.992,70.818 
		123.551,73.07 121.76,75.326 119.453,74.684 116.512,78.957 116.744,81.213 114.729,83.498 112.447,85.301 113.799,89.82 
		113.355,93.904 113.799,96.137 113.572,98.646 110.859,105.641 108.846,108.121 108.627,110.408 109.932,112.674 111.793,119.674 
		110.203,122.178 109.27,124.404 109.717,126.701 116.295,139.141 118.527,138.219 117.184,140.51 120.4,147.725 121.76,157.258 
		121.76,164.225 120.4,172.836 119.453,175.336 116.955,180.07 114.941,187.109 113.799,189.336 112.225,191.842 109.932,194.111 
		109.051,194.781 110.203,194.781 123.551,193.414 161.791,188.68 164.455,190.699 189.127,186.639 200.236,184.373 201.83,179.615 
		205.854,172.617 206.119,165.59 206.781,163.355 207.492,162.207 207.703,161.777 210.371,159.711 212.225,157.475 
		211.953,152.488 213.582,150.225 214.027,148.154 216.525,146.826 217.604,148.426 218.338,150.666 217.844,151.35 
		219.473,150.666 220.83,148.426 221.262,143.416 220.574,141.188 221.061,136.395 221.705,135.52 221.479,133.699 221.262,133.699 
		218.984,129.855 217.844,127.125 216.525,122.178 215.164,117.434 213.803,115.146 211.289,105.887 208.59,101.154 206.334,98.861 
		204.057,97.963 201.598,97.5 197.965,100.221 195.721,101.154 193.227,103.387 190.934,104.309 191.369,106.57 190.273,110.627 
		188.035,112.432 186.91,114.715 185.043,117.191 182.809,116.289 180.311,116.074 177.365,113.359 177.146,109.707 
		177.588,104.961 180.088,103.166 182.588,102.734 184.82,99.082 185.043,94.336 185.746,92.08 188.035,90.719 190.273,88.461 
		189.35,80.992 189.623,76.26 188.473,71.488 187.336,69.23 184.82,67.654 183.459,65.396 184.393,62.424 186.629,61.988 
		186.629,59.727 185.268,58.826 183.459,56.592 182.809,54.309 180.311,52.729 178.025,52.729 175.574,51.576 170.547,50.217 
		168.32,49.076 165.82,49.076 163.584,48.428 162.219,46.166 159.93,44.799 157.707,44.121 155.684,44.584 153.41,44.584 
		151.107,42.76 148.875,42.104 146.369,40.748 	"/>
</g>
</svg>
