<?xml version="1.0" encoding="utf-8"?>
<!-- Generator: Adobe Illustrator 15.0.0, SVG Export Plug-In . SVG Version: 6.00 Build 0)  -->
<!DOCTYPE svg PUBLIC "-//W3C//DTD SVG 1.1//EN" "http://www.w3.org/Graphics/SVG/1.1/DTD/svg11.dtd">
<svg version="1.1" id="Layer_1" xmlns="http://www.w3.org/2000/svg" xmlns:xlink="http://www.w3.org/1999/xlink" x="0px" y="0px"
	 width="104.055px" height="180.287px" viewBox="0 0 104.055 180.287" enable-background="new 0 0 104.055 180.287"
	 xml:space="preserve">
<polygon id="_x33_4_mississippi" fill="#FFCB41" points="94.797,0 73.107,2.035 32.162,5.174 33.074,5.879 33.518,8.352 
	31.225,10.404 28.764,11.543 27.627,9.961 28.291,15.146 26.482,15.383 25.822,12.91 25.822,16.283 28.068,17.635 25.822,18.789 
	25.121,16.502 24.9,20.119 26.482,21.27 25.121,24.189 25.562,26.031 23.764,28.482 22.404,29.193 20.158,29.193 20.594,31.418 
	18.312,33.686 17.873,35.043 15.438,34.363 17.002,36.188 16.09,36.861 16.09,39.1 17.221,41.389 11.342,43.895 12.924,45.25 
	12.484,47.738 12.924,49.76 12.484,51.1 9.977,51.1 9.977,52.941 12.484,53.588 10.197,54.951 9.49,54.055 7.959,54.951 
	9.77,57.467 7.477,59.033 9.049,61.305 7.736,63.781 9.977,61.732 11.342,63.344 9.049,64.924 11.342,65.574 11.561,65.361 
	10.852,67.4 11.785,70.123 12.484,70.592 13.145,74.4 12.924,74.869 10.621,74.869 11.127,76.898 10.852,80.061 9.977,81.205 
	9.49,83.475 11.785,81.889 13.572,82.326 13.852,84.588 11.785,86.658 11.988,89.113 14.711,90.469 11.988,93.416 12.707,94.994 
	16.732,94.307 14.928,96.602 16.51,98.852 14.279,98.158 14.072,98.635 15.156,100.873 17.441,102.014 18.096,103.814 
	20.385,104.521 20.816,104.951 20.594,105.615 18.801,105.615 17.002,107.902 14.508,108.795 13.145,111.062 15.438,111.49 
	17.873,111.062 16.09,113.785 15.859,114.686 13.572,114.893 15.859,115.814 16.09,116.262 10.621,122.141 8.611,123.07 
	7.736,125.332 9.266,126.43 7.029,128.707 6.602,130.965 4.102,132.57 6.375,132.793 5.893,133.664 3.658,135.49 4.74,140.26 
	2.023,140.463 4.102,142.734 3.377,144.559 0,145.209 1.592,147.713 1.145,150.195 2.738,152.455 0.506,154.941 31.225,153.113 
	60.627,150.873 60.855,151.312 60.424,153.822 58.84,158.557 57.924,162.631 58.84,165.152 60.213,167.375 63.576,170.346 
	64.234,172.832 65.643,175.086 65.377,176.203 66.74,178.492 68.361,179.584 69.463,180.287 71.756,180.07 72.609,177.783 
	75.119,175.771 75.777,174.623 75.344,174.406 77.359,173.969 76.914,174.406 79.205,174.199 83.943,172.117 88.693,171.248 
	89.844,170.566 86.455,170.346 90.271,169.879 92.785,171.688 95.053,172.338 97.301,171.465 97.955,170.566 102.76,172.338 
	104.055,169.879 103.83,168.738 96.588,114.209 98.654,3.15 96.359,1.783 95.277,0.211 "/>
</svg>
