<?xml version="1.0" encoding="utf-8"?>
<!-- Generator: Adobe Illustrator 15.0.0, SVG Export Plug-In . SVG Version: 6.00 Build 0)  -->
<!DOCTYPE svg PUBLIC "-//W3C//DTD SVG 1.1//EN" "http://www.w3.org/Graphics/SVG/1.1/DTD/svg11.dtd">
<svg version="1.1" id="Layer_1" xmlns="http://www.w3.org/2000/svg" xmlns:xlink="http://www.w3.org/1999/xlink" x="0px" y="0px"
	 width="116.089px" height="206.277px" viewBox="0 0 116.089 206.277" enable-background="new 0 0 116.089 206.277"
	 xml:space="preserve">
<polygon id="_x33_5_illinois" fill="#41B741" points="93.693,0 61.344,2.908 18.59,5.391 18.371,5.877 20.162,7.898 24.904,11.488 
	25.338,14.436 27.627,16.258 30.127,17.615 32.359,19.881 33.289,22.365 32.359,29.602 29.195,33.932 28.764,38.887 26.475,40.906 
	21.737,42.729 19.504,44.553 10.63,46.357 9.76,48.838 9.107,53.598 13.356,58.121 13.842,63.1 10.413,67.592 9.973,69.195 
	9.973,71.686 9.334,73.973 3.642,76.875 1.857,79.139 3.443,81.434 3.163,83.914 1.65,85.459 0.501,87.742 0,90.223 0,94.771 
	0.927,99.508 1.857,100.652 3.163,105.395 4.525,107.904 5.227,110.139 8.391,112.422 10.63,114.877 13.131,116.48 14.061,118.74 
	19.957,122.363 22.223,124.166 23.534,126.42 26.046,136.826 27.834,139.113 30.346,138.406 31.709,136.145 32.795,135.922 
	35.301,136.826 37.59,137.064 42.115,139.986 42.115,140.912 40.543,143.854 40.75,147.93 38.96,151.535 37.806,155.621 
	36.446,157.889 36.238,160.363 36.674,162.613 40.971,167.383 48.005,172.117 49.349,172.117 49.801,175.062 52.307,173.912 
	56.38,176.426 57.688,178.902 59.979,180.506 62.488,181.381 62.912,186.604 65.65,191.139 65.145,193.643 63.589,196.082 
	66.512,200.832 70.157,205.625 72.407,204.482 75.823,206.277 74.463,204.936 74.463,202.465 77.856,197.906 80.128,197.021 
	82.588,197.445 84.88,198.586 89.389,199.951 91.398,201.324 93.693,201.746 95.496,198.814 94.85,196.549 92.996,194.281 
	92.557,191.816 93.211,189.553 95.496,188.621 97.943,187.047 102.522,185.906 104.107,183.672 102.299,181.168 101.817,178.682 
	103.386,176.426 104.331,174.137 104.331,173.262 102.729,170.762 103.882,168.527 104.107,163.971 104.53,163.756 105.189,158.992 
	104.755,158.564 105.189,156.062 107.484,154.037 109.283,151.773 112.213,146.795 112.438,144.314 114.954,139.764 
	115.654,139.326 116.089,136.826 114.493,132.088 114.954,129.611 112.929,127.34 111.072,124.41 110.848,121.895 112.213,119.396 
	111.072,117.16 113.359,114.652 105.189,28.92 105.189,27.799 102.729,24.18 102.092,21.91 100.673,19.436 100.011,15.83 
	97.732,13.773 95.272,9.262 94.85,6.971 95.053,2.238 94.85,0 "/>
</svg>
