<?xml version="1.0" encoding="utf-8"?>
<!-- Generator: Adobe Illustrator 15.0.0, SVG Export Plug-In . SVG Version: 6.00 Build 0)  -->
<!DOCTYPE svg PUBLIC "-//W3C//DTD SVG 1.1//EN" "http://www.w3.org/Graphics/SVG/1.1/DTD/svg11.dtd">
<svg version="1.1" id="Layer_1" xmlns="http://www.w3.org/2000/svg" xmlns:xlink="http://www.w3.org/1999/xlink" x="0px" y="0px"
	 width="145.926px" height="162.865px" viewBox="0 0 145.926 162.865" enable-background="new 0 0 145.926 162.865"
	 xml:space="preserve">
<polygon id="_x33_6_wisconsin" fill="#2ABFF4" points="49.141,0 46.184,1.361 43.895,3.162 41.441,4.52 38.941,5.203 34.42,7.9 
	25.104,11.305 22.869,11.768 20.379,11.305 18.133,9.041 17.201,10.186 16.994,10.404 15.848,12.91 13.836,13.125 14.768,31.887 
	14.264,34.586 12.902,36.658 8.389,38.916 3.641,42.322 3.215,44.557 1.852,47.057 0,49.08 0,51.59 1.629,54.096 3.857,54.303 
	6.58,59.041 4.092,65.145 4.516,69.67 3.418,72.172 4.793,77.129 4.516,81.209 3.418,83.719 7.24,86.414 9.529,88.676 12.021,89.82 
	16.061,90.475 17.641,92.979 19.928,94.338 23.092,95.48 26.477,97.711 29.689,102.736 34.191,106.787 36.65,108.121 
	38.941,108.557 41.229,110.191 43.469,112.424 45.488,115.367 46.41,121.68 47.049,124.197 46.846,125.092 47.775,127.596 
	47.549,129.418 48.205,130.289 49.141,132.795 50.922,133.473 52.074,135.74 49.783,140.477 50.691,144.131 51.145,148.156 
	52.715,150.441 53.166,153.387 54.307,155.613 56.809,156.764 63.844,158.129 65.641,162.865 108.395,160.381 140.74,157.479 
	141.9,157.479 141.184,152.463 141.615,150.23 141.615,147.715 140.961,145.457 139.373,143.201 139.373,140.938 137.314,138.461 
	138.01,136.168 136.438,131.006 136.877,126.451 138.449,121.473 138.248,119.213 138.686,116.727 140.045,114.248 140.045,111.746 
	138.893,106.787 138.893,104.525 140.045,99.768 141.184,97.281 143.465,95.48 143.678,94.338 141.9,89.605 142.549,87.092 
	142.986,82.578 145.475,75.768 145.926,73.533 144.781,71.031 142.754,68.795 140.258,70.596 138.01,71.49 136.652,73.756 
	136.232,75.979 134.645,78.486 132.371,80.312 131.215,82.578 128.992,82.363 128.541,80.098 129.203,77.129 130.998,72.381 
	132.371,69.881 132.578,67.646 135.082,66.758 137.314,65.145 137.314,63.562 138.01,61.271 136.877,60.846 136.652,60.846 
	134.424,58.828 134.145,56.539 135.512,51.801 133.016,52.023 130.775,52.699 129.896,50.658 130.775,48.42 131.215,43.682 
	130.117,41.4 130.775,40.715 128.277,38.447 124.686,37.311 122.387,37.092 121.961,32.822 119.668,31.457 113.559,30.773 
	111.062,29.85 108.834,30.557 104.096,29.85 103.166,30.098 95.053,26.477 70.146,21.736 67.426,17.211 65.191,15.361 
	62.682,14.494 61.535,13.348 57.461,12.91 55.223,11.768 52.715,11.305 50.492,12.662 47.977,12.662 48.908,11.086 49.561,8.824 
	49.561,6.561 51.145,4.303 51.576,1.801 "/>
</svg>
