<?xml version="1.0" encoding="utf-8"?>
<!-- Generator: Adobe Illustrator 15.0.0, SVG Export Plug-In . SVG Version: 6.00 Build 0)  -->
<!DOCTYPE svg PUBLIC "-//W3C//DTD SVG 1.1//EN" "http://www.w3.org/Graphics/SVG/1.1/DTD/svg11.dtd">
<svg version="1.1" id="Layer_1" xmlns="http://www.w3.org/2000/svg" xmlns:xlink="http://www.w3.org/1999/xlink" x="0px" y="0px"
	 width="164.918px" height="145.936px" viewBox="0 0 164.918 145.936" enable-background="new 0 0 164.918 145.936"
	 xml:space="preserve">
<polygon id="_x33_7_louisiana" fill="#2ABFF4" points="87.527,0 37.789,2.74 0,4.094 1.141,41.404 5.209,45.053 6.807,47.287 
	8.582,52.027 8.16,55.67 9.955,57.902 11.107,60.402 11.979,60.848 13.123,63.141 13.123,65.584 16.99,70.375 17.865,70.6 
	17.65,72.828 18.354,75.342 17.193,77.16 18.072,79.412 17.193,81.66 17.65,84.152 16.289,86.451 15.832,88.895 14.057,91.188 
	12.896,93.699 13.561,98.188 11.979,100.66 13.123,103.6 14.264,109.273 13.561,111.99 11.328,114.475 11.107,114.719 
	11.328,114.719 12.195,117.189 11.328,119.672 9.092,120.818 8.582,123.293 11.107,125.121 13.336,123.508 24.459,122.395 
	25.322,121.029 23.086,119.465 25.322,117.658 25.824,111.785 27.834,114.01 28.752,116.293 28.752,118.527 26.451,119.672 
	25.824,120.818 28.039,121.719 30.547,121.932 35.287,123.072 40.027,124.873 42.533,126.213 46.613,127.6 58.383,129.4 
	60.625,129.174 64.045,127.359 66.283,127.359 64.699,123.764 62.463,121.932 64.922,121.719 65.83,120.818 68.307,119.672 
	73.09,118.102 72.602,120.596 72.82,121.932 75.107,121.262 79.848,120.818 80.559,123.293 82.789,124.41 83.701,127.85 
	86.16,127.85 90.746,129.4 92.113,127.137 92.762,126.922 92.762,125.121 93.188,127.359 92.762,127.6 92.535,130.08 
	94.115,132.367 96.613,133.943 97.764,136.428 97.061,138.682 98.861,139.828 101.348,138.908 105.873,141.836 108.387,140.703 
	109.045,140.703 111.537,142.062 113.352,140.969 113.352,137.791 113.994,135.281 116.512,135.066 118.805,134.168 
	119.873,133.732 120.803,136.176 123.098,135.281 125.551,135.963 125.342,139.609 126.475,141.836 128.482,140.969 
	130.766,139.131 131.912,136.855 130.328,134.605 132.57,133.943 131.912,129.4 127.127,126.699 126.678,124.41 126.912,124.193 
	135.295,127.6 137.533,128.062 139.828,129.174 140.908,130.08 139.324,132.59 141.834,132.59 144.127,131.873 145.703,134.379 
	148.434,134.814 150.648,134.168 151.369,136.428 152.939,138.908 155.182,139.344 155.402,136.428 156.531,138.908 
	154.953,141.186 153.148,145.936 155.402,143.664 156.322,141.408 158.123,138.908 161.289,142.742 161.77,140.484 162.857,138.01 
	162.635,136.645 164.918,135.963 164.709,135.281 162.414,134.605 161.289,132.367 159.26,131.008 154.744,130.324 152.221,128.932 
	149.283,129.174 148.156,126.699 145.703,125.561 142.967,124.873 142.051,122.395 144.34,121.469 143.68,119.895 146.137,119.672 
	148.434,120.596 146.783,118.74 145.703,116.514 148.156,114.266 150.441,114.719 151.143,115.377 151.791,112.916 151.791,110.637 
	149.781,109.488 149.559,106.764 148.854,104.533 145.256,107.035 145.037,109.488 144.127,111.785 141.834,111.785 140.67,109.488 
	138.457,109.957 136.65,108.383 136.445,107.693 141.398,104.736 142.531,102.268 142.051,102.027 139.602,103.6 139.324,101.371 
	137.807,103.6 135.516,102.268 133.453,104.533 131.213,105.396 124.461,106.121 120.803,106.121 117.867,104.736 117.654,102.494 
	119.662,100.227 122.807,95.236 125.1,94.562 128.277,95.025 130.766,96.6 133.002,98.65 135.295,98.65 136.883,99.523 
	137.807,98.865 140.043,100.906 142.531,101.127 143.189,100.66 143.416,101.371 146.137,100.227 145.037,99.523 143.416,98.432 
	142.051,96.143 142.316,95.025 140.908,92.771 140.248,90.283 136.883,87.314 135.516,85.092 134.594,82.568 135.516,78.496 
	137.098,73.762 137.533,71.252 137.301,70.812 107.898,73.053 77.174,74.883 79.41,72.395 77.818,70.135 78.27,67.652 
	76.674,65.148 80.051,64.498 80.775,62.678 78.695,60.402 81.418,60.199 80.33,55.43 82.564,53.6 83.049,52.732 80.775,52.51 
	83.273,50.904 83.701,48.646 85.939,46.371 84.41,45.27 85.285,43.01 87.295,42.08 92.762,36.201 92.535,35.758 90.246,34.832 
	92.535,34.625 92.762,33.725 94.549,31 92.113,31.43 89.818,31 91.182,28.734 93.678,27.838 95.475,25.555 97.268,25.555 
	97.488,24.891 97.061,24.459 94.771,23.754 94.115,21.953 91.828,20.812 90.746,18.576 90.949,18.098 93.188,18.787 91.602,16.539 
	93.404,14.246 89.381,14.934 88.662,13.355 91.385,10.406 88.662,9.053 88.459,6.598 90.523,4.525 90.246,2.264 88.459,1.828 
	86.16,3.414 86.648,1.145 "/>
</svg>
