<?xml version="1.0" encoding="utf-8"?>
<!-- Generator: Adobe Illustrator 15.0.0, SVG Export Plug-In . SVG Version: 6.00 Build 0)  -->
<!DOCTYPE svg PUBLIC "-//W3C//DTD SVG 1.1//EN" "http://www.w3.org/Graphics/SVG/1.1/DTD/svg11.dtd">
<svg version="1.1" id="Layer_1" xmlns="http://www.w3.org/2000/svg" xmlns:xlink="http://www.w3.org/1999/xlink" x="0px" y="0px"
	 width="145.5px" height="134.594px" viewBox="0 0 145.5 134.594" enable-background="new 0 0 145.5 134.594" xml:space="preserve">
<polygon id="_x33_8_arkansas" fill="#175AC6" points="128.508,0 75.568,3.377 29.209,5.424 0,6.094 5.232,37.09 6.324,47.271 
	6.82,111.492 7.691,112.176 7.969,113.098 10.201,114.875 12.711,113.328 20.162,114.648 20.824,134.594 58.615,133.24 
	108.354,130.502 108.627,127.34 108.121,125.309 110.424,125.309 110.646,124.842 109.98,121.031 109.283,120.566 108.354,117.838 
	109.059,115.801 108.84,116.012 106.545,115.367 108.84,113.783 107.473,112.176 105.236,114.225 106.545,111.746 104.975,109.473 
	107.266,107.906 105.459,105.396 106.99,104.494 107.699,105.396 109.98,104.031 107.473,103.381 107.473,101.539 109.98,101.539 
	110.424,100.203 109.98,98.18 110.424,95.689 108.84,94.336 114.721,91.83 113.586,89.541 113.586,87.303 114.504,86.627 
	112.938,84.805 115.371,85.486 115.807,84.125 118.094,81.861 117.654,79.635 119.898,79.635 121.262,78.92 123.061,76.475 
	122.621,74.629 123.984,71.711 122.398,70.561 122.621,66.941 123.32,69.23 125.566,68.078 123.32,66.727 123.32,63.352 
	123.984,65.824 125.789,65.584 125.127,60.4 126.262,61.986 128.723,60.846 131.018,58.791 130.568,56.316 129.662,55.613 
	129.869,54.963 132.139,53.594 133.244,51.338 135.529,50.648 135.957,49.748 134.6,43.656 135.049,40.686 132.812,41.398 
	133.244,38.891 135.529,37.99 136.402,39.562 137.34,37.527 135.957,35.289 137.541,34.369 138.689,32.785 140.26,31.426 
	138.477,29.193 138.477,28.705 139.83,27.34 142.068,26.221 144.361,24.432 142.992,21.939 145.5,21.018 145.055,18.766 
	144.137,17.402 127.145,19.227 126.047,16.723 127.145,14.488 128.934,11.984 131.443,10.617 133.244,8.393 133.244,5.883 
	132.586,3.6 130.779,1.363 "/>
</svg>
