<?xml version="1.0" encoding="utf-8"?>
<!-- Generator: Adobe Illustrator 15.0.0, SVG Export Plug-In . SVG Version: 6.00 Build 0)  -->
<!DOCTYPE svg PUBLIC "-//W3C//DTD SVG 1.1//EN" "http://www.w3.org/Graphics/SVG/1.1/DTD/svg11.dtd">
<svg version="1.1" id="Layer_1" xmlns="http://www.w3.org/2000/svg" xmlns:xlink="http://www.w3.org/1999/xlink" x="0px" y="0px"
	 width="194.769px" height="168.994px" viewBox="0 0 194.769 168.994" enable-background="new 0 0 194.769 168.994"
	 xml:space="preserve">
<polygon id="_x33_9_missouri" fill="#EDC51B" points="111.063,0 92.759,2.039 50.216,4.549 30.778,4.984 0,4.771 0,7.25 
	2.063,9.502 3.646,14.027 5.661,16.266 7.898,17.896 8.374,20.373 10.188,22.641 9.966,24.865 12.685,26.906 19.276,31.895 
	21.528,30.316 23.329,30.971 24.888,33.477 25.394,35.977 25.112,36.633 22.649,36.42 21.737,38.676 19.015,42.514 19.931,44.807 
	22.171,47.746 24.888,49.549 24.888,52.053 28.532,56.57 30.558,57.229 33.071,59.051 34.862,137.561 35.29,155.863 64.497,155.191 
	110.856,153.146 163.796,149.766 166.067,151.131 167.87,153.365 168.53,155.648 168.53,158.164 166.731,160.389 164.218,161.754 
	162.433,164.256 161.335,166.492 162.433,168.994 179.425,167.168 181.003,163.328 182.313,161.064 180.081,158.803 
	183.241,156.521 181.888,154.033 184.39,153.146 183.444,150.91 183.022,148.404 183.952,145.9 185.097,148.162 184.597,149.98 
	186.88,148.162 187.54,145.25 190.05,144.098 192.556,145.02 193.642,141.625 192.556,139.363 194.769,137.561 194.122,134.127 
	194.569,131.682 194.122,129.611 190.702,127.818 188.462,128.963 184.812,124.17 181.888,119.418 183.444,116.979 183.952,114.479 
	181.21,109.943 180.786,104.723 178.278,103.846 175.983,102.238 174.679,99.762 170.606,97.252 168.103,98.4 167.647,95.459 
	166.302,95.459 159.271,90.719 154.974,85.953 154.536,83.699 154.745,81.225 156.103,78.959 157.257,74.873 159.048,71.27 
	158.843,67.193 160.413,64.248 160.413,63.322 155.892,60.402 153.601,60.162 151.095,59.262 150.009,59.48 148.647,61.742 
	146.134,62.449 144.345,60.162 141.831,49.76 140.521,47.502 138.253,45.703 132.358,42.078 131.429,39.816 128.929,38.215 
	126.69,35.76 123.526,33.477 122.825,31.238 121.458,28.732 120.155,23.99 119.228,22.85 118.3,18.107 118.3,13.562 118.798,11.082 
	119.948,8.797 118.798,8.365 116.942,5.881 112.479,2.475 "/>
</svg>
