<?xml version="1.0" encoding="utf-8"?>
<!-- Generator: Adobe Illustrator 15.0.0, SVG Export Plug-In . SVG Version: 6.00 Build 0)  -->
<!DOCTYPE svg PUBLIC "-//W3C//DTD SVG 1.1//EN" "http://www.w3.org/Graphics/SVG/1.1/DTD/svg11.dtd">
<svg version="1.1" id="Layer_1" xmlns="http://www.w3.org/2000/svg" xmlns:xlink="http://www.w3.org/1999/xlink" x="0px" y="0px"
	 width="175.992px" height="115.338px" viewBox="0 0 175.992 115.338" enable-background="new 0 0 175.992 115.338"
	 xml:space="preserve">
<polygon id="_x34_0_iowa" fill="#175AC6" points="143.431,0 115.808,1.555 77.835,3.18 32.091,4.275 4.737,4.523 0.661,4.523 
	1.36,7.221 2.733,9.502 2.513,11.982 1.36,12.445 2.011,14.898 4.521,17.184 4.521,19.445 3.159,21.703 3.382,24.213 1.81,28.73 
	1.157,29.172 0.001,31.43 0.661,33.91 2.94,35.979 4.099,40.938 6.312,41.369 6.542,44.092 6.11,45.709 7.462,48.178 8.124,50.463 
	7.907,52.695 9.97,55.207 10.196,57.436 13.335,61.529 13.335,63.811 14.937,66.291 15.364,68.557 14.937,70.783 14.937,73.291 
	15.364,75.52 15.14,76.449 17.425,76.449 17.425,78.719 19.669,79.863 19.235,82.553 20.595,84.84 19.896,87.771 21.741,90.002 
	21.247,92.525 21.247,95.459 22.612,100.441 21.474,107.439 23.751,109.02 24.405,111.316 55.185,111.527 74.626,111.092 
	117.167,108.584 135.472,106.543 136.886,109.02 141.354,112.422 143.206,114.908 144.356,115.338 145.87,113.791 146.151,111.316 
	144.562,109.02 146.347,106.758 152.042,103.85 152.681,101.566 152.681,99.076 153.12,97.473 156.548,92.979 156.063,88.002 
	151.815,83.48 152.464,78.719 153.335,76.238 162.21,74.434 164.444,72.607 169.181,70.783 171.47,68.764 171.901,63.811 
	175.067,59.482 175.993,52.244 175.067,49.76 172.833,47.496 170.333,46.139 168.046,44.312 167.608,41.369 162.868,37.773 
	161.077,35.756 161.294,35.271 159.497,30.533 152.464,29.172 149.958,28.023 148.823,25.793 148.37,22.848 146.8,20.559 
	146.347,16.535 145.44,12.885 147.731,8.145 146.577,5.881 144.794,5.199 143.862,2.695 143.206,1.824 "/>
</svg>
