<?xml version="1.0" encoding="utf-8"?>
<!-- Generator: Adobe Illustrator 15.0.0, SVG Export Plug-In . SVG Version: 6.00 Build 0)  -->
<!DOCTYPE svg PUBLIC "-//W3C//DTD SVG 1.1//EN" "http://www.w3.org/Graphics/SVG/1.1/DTD/svg11.dtd">
<svg version="1.1" id="Layer_1" xmlns="http://www.w3.org/2000/svg" xmlns:xlink="http://www.w3.org/1999/xlink" x="0px" y="0px"
	 width="189.828px" height="215.133px" viewBox="0 0 189.828 215.133" enable-background="new 0 0 189.828 215.133"
	 xml:space="preserve">
<polygon id="_x34_1_minnesota" fill="#D3462F" points="50.934,11.334 50.445,13.564 31.916,14.025 0.428,14.025 0,15.148 0,15.393 
	0.93,17.162 2.516,23.967 3.432,26.258 2.072,30.783 2.717,35.055 2.295,37.312 2.717,38.676 2.516,43.197 2.951,45.703 
	5.67,53.387 5.238,54.746 8.402,61.746 9.541,66.73 9.541,69.234 9.043,71.471 9.758,73.752 9.758,78.496 10.402,83.449 
	10.195,86.852 11.549,89.361 11.119,91.621 11.328,100.441 12.479,102.705 12.256,105.188 13.137,107.445 15.861,111.277 
	16.293,113.572 16.293,116.055 16.992,120.789 16.789,123.051 17.217,125.557 15.861,130.299 14.496,132.807 12.256,134.143 
	9.961,136.391 9.264,138.199 11.119,140.26 13.787,144.996 16.076,145.434 18.367,146.805 19.934,149.086 20.369,215.133 
	47.723,214.883 93.465,213.787 131.439,212.164 159.064,210.607 158.137,208.107 158.34,207.211 157.699,204.695 156.777,198.381 
	154.756,195.439 152.52,193.203 150.234,191.57 147.939,191.137 145.48,189.801 140.979,185.75 137.766,180.727 134.381,178.496 
	131.215,177.354 128.932,175.994 127.354,173.492 123.312,172.832 120.82,171.689 118.529,169.43 114.707,166.732 115.805,164.223 
	116.082,160.146 114.707,155.188 115.805,152.68 115.381,148.16 117.867,142.055 115.148,137.318 112.918,137.107 111.289,134.604 
	111.289,132.096 113.141,130.072 114.502,127.57 114.93,125.334 119.678,121.932 124.191,119.67 125.555,117.604 126.055,114.904 
	125.123,96.141 127.137,95.924 128.283,93.42 128.49,93.201 129.424,92.053 130.572,90.26 137.543,84.59 139.816,82.578 
	141.178,80.756 143.637,78.713 149.729,71.684 152.246,67.877 161.07,59.264 168.311,54.959 172.824,52.947 175.352,52.242 
	183.025,48.188 185.307,46.818 187.539,44.557 189.828,42.977 184.166,42.977 181.666,44.121 179.426,42.977 179.201,42.297 
	176.932,40.039 172.178,40.479 169.676,41.186 164.938,40.939 162.434,41.615 160.195,41.615 159.496,39.354 158.137,38.676 
	158.34,37.1 155.904,37.312 151.105,40.479 148.879,42.762 144.133,44.781 141.178,44.557 136.879,42.297 136.395,40.479 
	129.65,37.533 128.713,35.299 126.277,34.617 122.6,35.055 121.979,38.676 119.453,37.533 118.09,35.951 117.867,33.693 
	115.592,31.648 113.141,31.922 113.803,29.42 104.311,25.551 99.07,25.551 96.855,25.77 96.148,26.01 95.49,26.477 93.916,26.695 
	92.561,28.953 86.67,30.291 84.17,28.953 83.502,26.695 73.322,25.551 71.031,23.967 66.279,23.967 64.004,23.07 61.979,20.812 
	62.209,17.436 60.193,10.629 58.84,3.381 56.824,1.117 52.295,0.682 50.711,0 "/>
</svg>
