<?xml version="1.0" encoding="utf-8"?>
<!-- Generator: Adobe Illustrator 15.0.0, SVG Export Plug-In . SVG Version: 6.00 Build 0)  -->
<!DOCTYPE svg PUBLIC "-//W3C//DTD SVG 1.1//EN" "http://www.w3.org/Graphics/SVG/1.1/DTD/svg11.dtd">
<svg version="1.1" id="Layer_1" xmlns="http://www.w3.org/2000/svg" xmlns:xlink="http://www.w3.org/1999/xlink" x="0px" y="0px"
	 width="407.432px" height="396.758px" viewBox="0 0 407.432 396.758" enable-background="new 0 0 407.432 396.758"
	 xml:space="preserve">
<polygon id="_x34_2_alaska" fill="#41B741" points="123.514,0 122.148,0.432 121.932,2.941 116.479,91.615 113.551,125.096 
	111.064,163.328 109.018,165.592 107.895,165.592 80.768,163.756 53.809,161.504 23.518,159.023 0,156.537 0,157.658 1.332,162.217 
	2.691,164.012 2.691,164.91 4.732,166.025 4.951,166.24 6.102,166.488 8.354,168.309 9.723,170.547 10.186,172.834 12.199,177.324 
	14.455,179.148 19.006,181.654 21.238,183.918 25.756,190.02 30.311,194.506 31.42,197.012 35.512,201.758 38.02,203.578 
	40.244,204.51 44.99,208.785 47.273,209.93 47.715,212.191 49.529,213.303 50.438,215.594 51.088,220.332 52.23,221.203 
	54.279,225.996 55.637,228.225 55.637,230.52 54.961,232.99 55.172,237.521 60.186,249.316 63.348,252.434 65.57,253.334 
	67.855,254.922 69.447,257.201 74.865,262.176 77.127,263.09 81.859,264.205 83.004,266.719 89.361,269.629 91.615,272.133 
	93.848,273.928 96.135,274.139 96.359,275.064 98.635,275.508 102.457,275.508 103.133,273.498 105.611,271.91 106.977,269.629 
	109.238,268.748 110.154,266.459 110.615,263.992 111.994,263.09 115.795,253.588 117.844,250.645 118.955,249.521 121.252,249.316 
	123.727,248.166 125.99,248.393 128.279,247.666 129.602,245.439 131.867,245.439 135.957,247.666 138.215,248.393 140.697,247.947 
	142.949,248.393 145.434,248.393 151.771,250.188 154.258,248.594 156.521,249.521 158.771,251.318 159.705,253.588 
	161.498,255.625 161.967,257.424 164.207,256.984 165.156,259.25 167.607,261.295 169.881,262.375 170.113,264.426 176.883,269.629 
	179.578,274.369 181.424,276.652 182.768,282.756 185.447,287.732 186.393,290 186.393,290.9 187.969,292.939 189.121,295.219 
	191.154,297.676 190.477,298.354 191.602,303.123 193.854,307.861 196.33,309.938 198.607,310.803 200.652,314.207 201.32,316.469 
	203.361,318.045 205.188,320.553 205.625,322.789 210.139,329.102 214.008,330.254 216.238,332.08 216.924,333.213 216.695,335.479 
	217.604,337.707 217.383,340.215 216.238,342.727 218.748,344.521 218.748,346.998 218.285,349.254 218.533,351.521 220.32,353.807 
	222.812,358.301 224.639,360.797 226.428,365.793 227.123,370.775 229.592,373.004 229.143,375.293 230.512,375.955 235.262,376.43 
	237.514,377.529 238.873,377.316 241.143,378.889 242.707,381.184 244.078,382.055 246.584,381.617 248.812,382.762 251.32,382.969 
	255.842,387.275 257.891,388.166 267.385,389.074 272.844,388.861 275.068,390.002 277.359,390.443 281.885,394.957 
	282.312,394.957 284.822,396.758 287.057,396.537 287.057,394.281 292.93,392.701 294.082,392.475 293.637,389.777 290.91,392.025 
	291.582,389.51 289.779,392.025 287.982,388.861 290.486,388.861 288.848,386.604 288.193,381.83 284.379,373.926 284.602,371.43 
	282.756,363.311 280.521,361.025 280.521,358.766 282.756,359.662 280.244,356.725 280.521,354.48 282.756,354.48 283.018,351.99 
	284.111,349.695 284.111,347.25 284.822,344.963 280.244,346.1 275.494,344.74 275.998,342.24 274.641,340.891 273.49,338.428 
	275.771,340.215 277.57,342.508 279.803,342.24 281.393,341.58 283.678,342.24 281.393,344.092 284.822,342.941 289.559,331.182 
	288.848,328.895 287.754,328.232 285.953,325.975 285.953,324.146 283.678,324.824 282.312,323.926 284.822,323.277 
	289.779,322.789 292.064,325.051 296.574,318.727 297.945,316.25 297.945,314.207 295.646,315.756 294.516,318.045 292.273,316.035 
	293.637,313.74 292.93,312.629 295.445,312.842 297.719,311.701 298.389,313.518 300.615,311.266 301.334,309.014 301.537,311.266 
	300.615,313.518 302.893,312.381 305.621,309.217 305.621,306.746 304.479,304.488 305.621,301.984 305.182,301.074 
	308.361,305.602 310.574,306.529 317.605,302.686 318.047,301.77 315.801,300.393 313.301,301.074 314.672,298.82 312.434,297.232 
	309.924,292.473 312.434,292.262 312.863,293.844 316.473,296.805 318.758,295.881 316.689,291.359 317.174,291.139 
	318.531,293.625 320.777,294.736 323.258,293.162 324.141,295.443 326.439,295.219 325.059,296.805 329.812,294.736 
	329.156,297.029 324.41,299.719 324.141,300.393 331.172,296.592 335.912,294.736 338.631,292.939 336.127,293.402 333.902,294.949 
	333.461,292.717 338.203,291.139 342.711,290.672 347.236,287.494 350.613,285.938 352.898,284.111 357.436,279.816 
	357.859,275.727 361.736,273.033 363.309,270.764 365.602,269.629 366.689,266.719 364.18,265.779 364.18,262.375 361.947,260.588 
	362.164,258.326 361.02,255.85 362.164,254.922 365.602,256.984 366.893,254.49 369.182,252.688 371.43,253.117 371.43,256.984 
	369.627,261.725 374.582,260.367 379.156,260.367 378.672,261.012 376.225,261.516 370.99,265.098 369.627,267.607 370.342,267.607 
	372.789,265.098 375.074,263.742 377.59,262.867 384.332,259.25 391.795,255.85 398.826,255.137 395.398,250.188 398.17,245.439 
	400.186,243.643 400.408,243.4 402.641,240.916 403.346,238.197 402.207,232.527 401.061,229.586 402.641,227.111 401.973,222.627 
	403.139,220.109 404.914,217.82 405.375,215.379 406.732,213.076 406.275,210.588 407.154,208.336 406.275,206.082 407.432,204.27 
	406.732,201.758 406.941,199.523 406.07,199.299 402.207,194.506 402.207,192.064 401.061,189.775 400.186,189.328 399.037,186.83 
	397.24,184.598 397.664,180.951 395.889,176.211 394.287,173.977 390.219,170.33 389.078,133.018 388.418,113.074 380.965,111.75 
	378.459,113.299 376.225,111.525 375.947,110.6 375.074,109.916 368.488,108.559 366.039,106.971 363.748,106.334 359.211,102.678 
	353.773,99.301 351.535,99.301 350.18,101.58 348.592,102.453 346.1,102.453 344.52,102.029 342.018,99.736 337.537,101.58 
	335.477,103.127 332.965,103.127 330.736,101.58 328.455,103.365 325.986,103.598 323.258,106.543 320.777,106.543 319.629,108.797 
	317.385,106.754 314.877,105.854 312.66,104.502 311.072,102.029 308.791,101.803 306.5,103.598 304.26,102.678 302.193,100.445 
	299.947,99.525 299.303,99.961 299.035,101.58 296.574,103.127 295.646,107.688 294.082,107.898 293.357,107.479 292.502,104.967 
	293.357,102.678 291.143,102.453 287.27,104.281 285.029,103.818 284.111,101.58 281.885,101.58 280.955,99.301 278.504,98.4 
	274.854,102.029 272.566,102.918 270.334,102.453 270.111,99.301 269.674,97.938 267.174,97.502 265.801,95.215 266.021,92.76 
	263.518,92.986 258.777,92.494 256.527,94.338 254.051,94.998 252.225,93.42 251.113,91.838 248.598,91.838 246.34,92.27 
	241.557,90.719 239.121,89.117 236.82,89.793 235.723,89.355 233.236,89.355 232.531,86.879 232.531,84.592 230.943,82.33 
	228.711,81.217 228.006,79.857 226.867,82.33 224.639,82.551 222.121,81.65 219.619,82.785 217.604,81.65 213.523,77.123 
	211.021,75.344 208.779,75.111 208.998,71.031 211.021,5.387 208.35,4.053 205.842,3.852 193.627,3.629 163.543,2.264 "/>
</svg>
