<?xml version="1.0" encoding="utf-8"?>
<!-- Generator: Adobe Illustrator 15.0.0, SVG Export Plug-In . SVG Version: 6.00 Build 0)  -->
<!DOCTYPE svg PUBLIC "-//W3C//DTD SVG 1.1//EN" "http://www.w3.org/Graphics/SVG/1.1/DTD/svg11.dtd">
<svg version="1.1" id="Layer_1" xmlns="http://www.w3.org/2000/svg" xmlns:xlink="http://www.w3.org/1999/xlink" x="0px" y="0px"
	 width="251.561px" height="128.484px" viewBox="0 0 251.561 128.484" enable-background="new 0 0 251.561 128.484"
	 xml:space="preserve">
<polygon id="_x34_3_oklahoma" fill="#D3462F" points="1.111,0 0,18.562 40.029,20.826 70.111,22.197 82.326,22.414 84.834,22.619 
	87.512,23.955 85.486,89.594 85.262,93.678 87.512,93.906 90.006,95.688 94.092,100.215 96.109,101.354 98.605,100.215 
	101.123,101.115 103.354,100.895 104.492,98.422 105.197,99.781 107.43,100.895 109.02,103.154 109.02,105.445 109.723,107.92 
	112.207,107.92 113.305,108.359 115.605,107.684 118.043,109.287 122.826,110.836 125.084,110.402 127.598,110.402 128.711,111.986 
	130.535,113.561 133.012,112.902 135.268,111.061 140.006,111.549 142.508,111.328 142.289,113.783 143.662,116.066 
	146.166,116.504 146.594,117.869 146.818,121.02 149.053,121.482 151.336,120.592 154.992,116.967 157.441,117.869 158.369,120.146 
	160.598,120.146 161.514,122.385 163.75,122.848 167.629,121.02 169.844,121.244 168.99,123.533 169.844,126.039 170.57,126.467 
	172.133,126.252 173.062,121.695 175.521,120.146 175.785,118.527 176.438,118.092 178.678,119.006 180.738,121.244 182.986,122.16 
	185.275,120.371 187.564,120.592 189.146,123.068 191.359,124.422 193.875,125.322 196.115,127.361 197.264,125.111 
	199.744,125.111 202.473,122.16 204.941,121.928 207.223,120.146 209.451,121.695 211.961,121.695 214.02,120.146 218.502,118.301 
	221.006,120.592 222.584,121.02 225.08,121.02 226.666,120.146 228.025,117.869 230.26,117.869 235.695,121.244 240.232,124.896 
	242.523,125.537 244.973,127.123 251.561,128.484 251.066,64.264 249.973,54.08 244.744,23.086 244.316,4.785 208.143,5.439 
	141.859,5.439 76.008,3.852 29.596,1.812 "/>
</svg>
