<?xml version="1.0" encoding="utf-8"?>
<!-- Generator: Adobe Illustrator 15.0.0, SVG Export Plug-In . SVG Version: 6.00 Build 0)  -->
<!DOCTYPE svg PUBLIC "-//W3C//DTD SVG 1.1//EN" "http://www.w3.org/Graphics/SVG/1.1/DTD/svg11.dtd">
<svg version="1.1" id="Layer_1" xmlns="http://www.w3.org/2000/svg" xmlns:xlink="http://www.w3.org/1999/xlink" x="0px" y="0px"
	 width="239.826px" height="117.873px" viewBox="0 0 239.826 117.873" enable-background="new 0 0 239.826 117.873"
	 xml:space="preserve">
<polygon id="_x34_5_nebraska" fill="#2ABFF4" points="5.017,0 0,73.758 25.132,75.582 52.077,76.939 54.532,78.271 52.731,114.008 
	88.226,115.832 157.03,117.654 192.981,117.873 239.826,117.412 237.105,115.369 237.329,113.143 235.511,110.873 235.04,108.398 
	232.8,106.768 230.788,104.535 229.203,100.004 227.14,97.75 227.14,95.275 226.482,92.98 224.206,91.4 225.347,84.402 
	223.982,79.42 223.982,76.484 224.475,73.965 222.631,71.734 223.331,68.799 221.97,66.514 222.406,63.822 220.156,62.682 
	220.156,60.412 217.876,60.412 218.096,59.482 217.673,57.252 217.673,54.748 218.096,52.518 217.673,50.254 216.067,47.773 
	216.067,45.49 212.933,41.4 212.705,39.17 210.643,36.656 210.857,34.424 210.199,32.141 208.842,29.674 209.274,28.055 
	209.047,25.332 206.831,24.896 204.542,24.211 202.247,22.17 201.161,19.719 198.653,18.797 196.368,16.541 194.123,16.752 
	193.919,16.078 191.406,14.955 189.176,14.709 185.317,11.332 174.895,12.471 170.17,11.77 168.315,14.051 165.865,14.955 
	155.884,9.506 152.952,6.594 123.313,6.102 78.765,4.521 32.599,2.047 "/>
</svg>
