<?xml version="1.0" encoding="utf-8"?>
<!-- Generator: Adobe Illustrator 15.0.0, SVG Export Plug-In . SVG Version: 6.00 Build 0)  -->
<!DOCTYPE svg PUBLIC "-//W3C//DTD SVG 1.1//EN" "http://www.w3.org/Graphics/SVG/1.1/DTD/svg11.dtd">
<svg version="1.1" id="Layer_1" xmlns="http://www.w3.org/2000/svg" xmlns:xlink="http://www.w3.org/1999/xlink" x="0px" y="0px"
	 width="202.455px" height="132.582px" viewBox="0 0 202.455 132.582" enable-background="new 0 0 202.455 132.582"
	 xml:space="preserve">
<polygon id="_x34_6_southdakota" fill="#41B741" points="8.322,0 6.314,31.92 5.201,34.42 0,107.686 27.584,109.732 73.748,112.207 
	118.299,113.783 147.934,114.281 150.875,117.188 160.85,122.641 163.297,121.736 165.15,119.453 169.877,120.156 180.299,119.016 
	184.156,122.396 186.393,122.641 188.904,123.76 189.109,124.434 191.348,124.225 193.635,126.479 196.146,127.402 197.234,129.855 
	199.527,131.896 201.818,132.582 200.656,127.623 198.373,125.559 197.719,123.074 198.877,120.816 199.527,120.377 
	201.094,115.855 200.875,113.352 202.238,111.09 202.238,108.83 199.73,106.543 199.074,104.092 200.232,103.627 200.453,101.145 
	199.074,98.865 198.373,96.172 202.455,96.172 202.021,30.123 200.453,27.838 198.162,26.471 195.869,26.031 193.205,21.299 
	191.348,19.236 192.049,17.428 194.338,15.18 196.578,13.842 197.949,11.336 199.303,6.592 151.59,6.369 104.527,5.232 
	53.826,2.969 "/>
</svg>
