<?xml version="1.0" encoding="utf-8"?>
<!-- Generator: Adobe Illustrator 15.0.0, SVG Export Plug-In . SVG Version: 6.00 Build 0)  -->
<!DOCTYPE svg PUBLIC "-//W3C//DTD SVG 1.1//EN" "http://www.w3.org/Graphics/SVG/1.1/DTD/svg11.dtd">
<svg version="1.1" id="Layer_1" xmlns="http://www.w3.org/2000/svg" xmlns:xlink="http://www.w3.org/1999/xlink" x="0px" y="0px"
	 width="234.627px" height="163.271px" viewBox="0 0 234.627 163.271" enable-background="new 0 0 234.627 163.271"
	 xml:space="preserve">
<g id="_x34_7_hawai">
	<path fill="#175AC6" d="M1.193,3.178C0.84,4.461,0.518,5.824,0,7.74c3.15,1.361,9.852,4.217,11.051,4.68
		c0.689-0.113,1.256-0.227,2.268-0.332c0.807-1.979,2.26-5.445,2.742-6.615c-0.182-0.959-0.545-2.75-0.854-4.691
		C12.771,0.482,9.498,0.084,8.49,0C7.375,0.482,3.025,2.375,1.193,3.178"/>
	<path fill="#175AC6" d="M72.174,31.154c-0.186,0.594-0.309,0.791-0.52,1.475c1.244,1.848,5.23,7.738,6.697,9.908
		c1.48-0.215,2.881-0.383,3.291-0.438c0.572-0.24,4.111-1.732,4.111-1.732s2.973,2.604,3.93,3.479
		c1.109-0.045,2.445-0.111,4.412-0.223c-1.469-0.863-3.752-2.281-3.752-2.281l-4.941-9.482c0,0-1.92-3.234-3.336-5.631
		C78.957,27.719,73.664,30.395,72.174,31.154"/>
	<path fill="#175AC6" d="M131.271,54.084c0,0-0.41,0.336-0.748,0.549c2.322,0.248,6.053,0.459,7.23,0.562
		c0.303-0.184,0.727-0.402,1.33-0.729c-3.527-0.383-6.156-0.625-7.246-0.762C131.568,53.914,131.271,54.084,131.271,54.084"/>
	<path fill="#175AC6" d="M148.096,63.381c2.076,2.846,8.961,12.275,9.504,13.098c0.773,0.434,2.9,1.678,4.172,2.445
		c1.832-0.381,9.064-1.854,9.727-1.957c0.516-0.256,4.133-2.096,6.215-3.104v-0.879c-2.082-1.307-7.691-4.846-8.344-5.229
		c-0.871-0.242-10.121-2.604-10.121-2.604s-6.057-3.168-8.941-4.668C149.381,61.717,148.996,62.234,148.096,63.381"/>
	<path fill="#175AC6" d="M134.023,71.131c1.301-0.479,1.814-0.701,2.887-1.055c0.027-0.357,0.027-0.381,0.078-0.689
		c-0.711-0.945-1.336-1.742-2.064-2.693c-0.846-0.025-1.609-0.133-3.271-0.291C132.445,67.979,133.037,69.264,134.023,71.131"/>
	<path fill="#175AC6" d="M186.498,100.99c0.131,0.973,0.199,1.477,0.328,2.111c0.906,0.988,4.611,5.072,4.611,5.072l-2.236,4.365
		l-5.562,8.129c0,0-2.523,1.121-4.051,1.748c0.029,1.15,0.076,1.641,0.135,2.533c1.303,1.092,4.631,3.922,4.631,3.922l4.258,14.951
		c0,0-1.322,5.176-1.594,6.029c0.045,0.805,0.492,6.527,0.617,8.596c1.566,1.143,5.432,3.98,6.459,4.693
		c0.5,0.051,0.824,0.092,1.613,0.131c1.275-1.711,4.172-5.422,4.172-5.422l6.059-8.035l9.127-5.281c0,0,2.729,1.16,3.764,1.654
		c1.689-0.621,7.246-2.549,8.07-2.83c0.74-0.562,6.344-5.223,7.729-6.42c-2.438-1.611-8.232-5.293-8.232-5.293
		s-4.629-10.365-4.84-10.834c-0.211-0.352-2.668-3.971-3.266-4.908c-0.967-0.592-6.922-4.232-7.189-4.459
		c-0.336-0.107-17.596-8.225-17.596-8.225s-4-1.914-6.184-2.943C186.936,100.656,186.908,100.656,186.498,100.99"/>
</g>
</svg>
