<?xml version="1.0" encoding="utf-8"?>
<!-- Generator: Adobe Illustrator 15.0.0, SVG Export Plug-In . SVG Version: 6.00 Build 0)  -->
<!DOCTYPE svg PUBLIC "-//W3C//DTD SVG 1.1//EN" "http://www.w3.org/Graphics/SVG/1.1/DTD/svg11.dtd">
<svg version="1.1" id="Layer_1" xmlns="http://www.w3.org/2000/svg" xmlns:xlink="http://www.w3.org/1999/xlink" x="0px" y="0px"
	 width="190.977px" height="117.631px" viewBox="0 0 190.977 117.631" enable-background="new 0 0 190.977 117.631"
	 xml:space="preserve">
<polygon id="_x34_8_northdakota" fill="#EDC51B" points="7.742,0 7.742,0.9 0,111.037 45.504,114.006 96.203,116.27 143.264,117.41 
	190.977,117.631 190.551,115.123 190.756,112.863 190.055,108.127 190.055,105.643 189.621,103.35 186.895,99.52 186.014,97.26 
	186.24,94.781 185.09,92.516 184.881,83.691 185.309,81.434 183.957,78.924 184.162,75.525 183.521,70.57 183.521,65.826 
	182.803,63.539 183.299,61.305 183.299,58.801 182.166,53.82 179.002,46.82 179.432,45.461 176.715,37.775 176.279,35.271 
	176.475,30.748 176.057,29.387 176.475,27.127 175.83,22.854 177.193,18.334 176.279,16.043 174.693,9.236 173.764,7.467 
	173.764,7.223 174.188,6.098 152.527,6.098 103.424,4.957 45.988,2.48 "/>
</svg>
