<?xml version="1.0" encoding="utf-8"?>
<!-- Generator: Adobe Illustrator 15.0.0, SVG Export Plug-In . SVG Version: 6.00 Build 0)  -->
<!DOCTYPE svg PUBLIC "-//W3C//DTD SVG 1.1//EN" "http://www.w3.org/Graphics/SVG/1.1/DTD/svg11.dtd">
<svg version="1.1" id="Layer_1" xmlns="http://www.w3.org/2000/svg" xmlns:xlink="http://www.w3.org/1999/xlink" x="0px" y="0px"
	 width="232.992px" height="194.109px" viewBox="0 0 232.992 194.109" enable-background="new 0 0 232.992 194.109"
	 xml:space="preserve">
<polygon id="_x34_9_oregon" fill="#EDC51B" points="52.449,0 51.549,2.477 50.65,7.246 48.629,9.508 48.848,9.947 48.424,12.229 
	47.273,14.492 47.49,16.971 48.424,18.547 46.352,20.809 45.232,23.285 46.783,25.576 44.545,24.871 44.324,26.689 43.191,28.955 
	42.965,31.453 41.83,33.938 41.393,36.414 38.893,40.031 38.205,42.539 34.584,49.322 33.719,53.846 31.643,58.582 32.107,61.09 
	31.895,61.988 30.277,63.105 28.953,65.393 27.555,70.133 22.822,82.109 21.457,84.621 20.795,86.855 23.283,85.977 23.498,87.098 
	21.02,87.098 18.986,89.135 16.26,93.66 15.361,96.141 16.26,96.389 16.494,96.141 16.494,96.389 17.617,96.598 16.936,98.186 
	16.494,96.389 16.26,96.389 13.994,97.744 13.123,100.197 12.203,97.959 7.676,107.441 3.152,113.32 3.152,118.068 4.271,122.83 
	3.598,125.309 1.793,127.812 1.359,130.074 0,133.045 0.432,142.307 2.689,147.037 3.838,147.258 62.635,163.541 112.432,176.236 
	158.555,187.084 191.377,194.109 204.934,128.959 206.086,127.139 206.984,126.449 208.994,121.715 209.199,118.549 
	211.051,116.047 209.703,113.787 207.42,112.186 205.152,111.529 204.262,110.174 205.832,102.922 208.119,100.658 211.051,96.141 
	214.885,93.66 216.914,91.369 218.281,88.902 218.498,86.855 222.557,82.363 226.205,75.111 231.623,68.988 232.992,66.719 
	232.092,61.988 227.574,57.715 226.65,56.352 225.525,53.846 225.074,50.686 195.432,44.582 172.369,39.139 169.891,40.498 
	167.383,40.254 164.898,39.361 159.482,39.139 157.654,38.484 155.402,39.818 147.943,39.578 143.195,40.031 138.652,41.18 
	136.174,41.395 133.877,40.932 131.648,38.924 129.145,38.209 121.896,39.818 119.67,38.924 114.934,39.139 114.439,36.852 
	111.955,35.082 109.697,34.621 107.201,33.256 103.141,33.037 100.867,32.111 98.615,32.111 96.127,33.475 93.84,33.938 
	89.107,34.367 86.881,34.152 84.375,32.598 83.225,32.328 80.723,30.746 77.127,29.172 76.223,27.836 77.564,15.822 76.445,11.084 
	73.963,8.824 72.602,6.566 70.777,5.881 68.521,6.998 66.01,5.881 65.791,5.641 64.461,3.625 62.207,1.822 59.695,2.477 
	57.441,2.264 56.754,1.146 54.963,0.902 54.732,1.578 55.613,2.941 54.963,2.697 54.732,2.045 "/>
</svg>
