<?xml version="1.0" encoding="utf-8"?>
<!-- Generator: Adobe Illustrator 15.0.0, SVG Export Plug-In . SVG Version: 6.00 Build 0)  -->
<!DOCTYPE svg PUBLIC "-//W3C//DTD SVG 1.1//EN" "http://www.w3.org/Graphics/SVG/1.1/DTD/svg11.dtd">
<svg version="1.1" id="Layer_1" xmlns="http://www.w3.org/2000/svg" xmlns:xlink="http://www.w3.org/1999/xlink" x="0px" y="0px"
	 width="193.419px" height="140.479px" viewBox="0 0 193.419 140.479" enable-background="new 0 0 193.419 140.479"
	 xml:space="preserve">
<polygon id="_x35_0_washington" fill="#41B741" points="57.462,0 55.642,1.58 55.888,3.838 56.974,6.102 56.974,7.025 58.827,9.479 
	61.095,10.621 60.627,12.854 60.851,15.145 60.405,17.404 58.121,16.289 59.269,18.512 58.612,21.029 56.11,19.662 54.526,19.23 
	54.526,21.705 56.774,21.461 57.462,23.75 59.493,26.693 58.827,28.707 59.042,29.605 58.612,34.371 59.955,36.635 60.167,39.113 
	57.698,41.396 54.97,44.557 55.214,46.791 52.925,48.4 54.526,50.873 52.485,53.164 52.925,58.119 50.663,60.408 46.133,62.199 
	44.782,63.787 42.557,65.584 40.263,65.801 38.892,63.32 36.446,64.467 35.962,66.945 34.621,65.145 34.841,63.107 32.585,62.426 
	34.841,62.199 36.663,59.914 41.399,56.539 40.938,59.053 39.821,61.279 40.047,63.539 40.938,62.646 41.399,60.133 42.983,57.904 
	45.241,57.438 43.194,59.914 45.7,61.5 49.526,52.947 48.427,50.662 46.133,51.117 46.133,48.645 48.427,49.297 48.646,47.066 
	48.187,44.557 50.663,44.994 52.485,43.662 52.71,41.182 51.593,38.889 46.133,43.877 44.125,46.354 39.366,47.717 34.621,52.236 
	35.065,54.742 37.321,54.309 39.821,54.523 35.065,55.398 33.017,53.377 34.621,51.117 39.149,47.066 41.399,45.701 45.7,40.475 
	44.993,42.73 44.993,44.994 46.133,42.73 48.646,40.475 49.526,37.527 48.187,31.648 48.86,29.172 46.388,30.996 46.133,33.443 
	44.569,29.848 42.099,30.752 41.837,28.271 41.179,25.984 38.892,26.693 36.446,26.906 33.696,25.109 28.958,23.971 26.476,22.387 
	21.954,21.029 18.55,18.986 16.958,16.725 14.501,15.365 11.989,13.35 7.683,9.043 5.183,7.688 5.892,10.844 5.183,11.305 
	4.53,13.779 2.943,16.289 3.173,18.512 2.505,20.809 2.505,23.285 2.943,25.551 4.747,28.271 5.892,33.014 6.113,35.516 
	4.958,44.994 5.892,50.873 5.183,57.904 4.308,60.408 5.183,61.062 5.892,58.803 8.142,60.408 10.411,62.855 12.671,63.787 
	8.831,64.246 5.183,66.02 4.747,63.539 3.874,68.305 4.53,70.783 4.958,70.566 9.698,72.146 10.627,74.406 9.976,74.406 
	7.477,73.047 5.892,75.332 6.562,77.59 4.747,80.074 6.325,82.332 6.113,83.229 4.747,81.215 2.505,81.436 3.386,76.883 
	2.943,74.406 0,86.396 2.236,86.172 4.089,88.676 9.056,87.533 10.411,89.793 12.671,90.256 13.352,90.477 14.501,91.16 
	15.153,91.373 15.853,93.633 18.093,95.92 20.353,95.674 22.173,96.357 23.535,98.617 26.015,100.877 27.135,105.617 
	25.792,117.629 26.698,118.965 30.293,120.543 32.794,122.123 33.944,122.395 36.446,123.947 38.678,124.162 43.413,123.73 
	45.7,123.264 48.187,121.906 50.437,121.906 52.71,122.832 56.774,123.053 59.269,124.414 61.526,124.877 64.015,126.645 
	64.505,128.928 69.24,128.717 71.472,129.611 78.715,128.004 81.22,128.717 83.447,130.725 85.742,131.188 88.222,130.973 
	92.765,129.828 97.513,129.369 104.972,129.611 107.222,128.275 109.054,128.928 114.467,129.154 116.954,130.047 119.462,130.293 
	121.938,128.928 145.003,134.375 174.646,140.479 173.954,138.225 175.093,130.973 173.493,126.209 174.646,123.947 175.56,116.484 
	193.215,34.158 193.419,32.791 170.337,28.057 127.36,18.084 90.271,8.795 "/>
</svg>
