<?xml version="1.0" standalone="no"?>
<!DOCTYPE svg PUBLIC "-//W3C//DTD SVG 1.1//EN" "http://www.w3.org/Graphics/SVG/1.1/DTD/svg11.dtd" >
<svg xmlns="http://www.w3.org/2000/svg">
<metadata></metadata>
<defs>
<font id="toonishregular" horiz-adv-x="1171" >
<font-face units-per-em="2048" ascent="1536" descent="-512" />
<missing-glyph horiz-adv-x="335" />
<glyph horiz-adv-x="0" />
<glyph unicode="&#xd;" horiz-adv-x="335" />
<glyph unicode=" "  horiz-adv-x="335" />
<glyph unicode="&#x09;" horiz-adv-x="335" />
<glyph unicode="&#xa0;" horiz-adv-x="335" />
<glyph unicode="!" horiz-adv-x="694" d="M32 122q-7 44 5 91q10 43 36.5 79t62.5 59.5t79 33.5t86 2q43 -10 77 -35.5t54.5 -61.5t27.5 -79t-5 -86q-10 -47 -37 -85t-63 -62.5t-79 -33.5t-86 1q-43 8 -76.5 33.5t-54 62.5t-27.5 81zM121 508q2 -2 5 46t6 128t7 181.5t8 209.5q8 250 19 574l446 -33l-198 -1125 q-84 6 -150 13q-29 2 -54.5 4t-46 3t-32.5 1t-10 -2z" />
<glyph unicode="-" horiz-adv-x="940" d="M68 555l22 295h768v-275z" />
<glyph unicode="." horiz-adv-x="483" d="M-3 158q-5 45 5 94q8 45 31.5 82t55.5 60.5t70 32.5t77 1q39 -10 69.5 -35.5t49 -62.5t24.5 -81t-4 -89q-10 -49 -34 -87t-55.5 -63.5t-69.5 -35t-77 0.5q-39 8 -69.5 35t-49 65t-23.5 83z" />
<glyph unicode="/" horiz-adv-x="1556" d="M-57 -6l56 72q56 71 148.5 191t211 272.5t243.5 312.5q291 375 662 852l354 -269l-1327 -1706l-172 140q-33 27 -63.5 51t-55.5 42.5t-33 24.5z" />
<glyph unicode="0" horiz-adv-x="1128" d="M10.5 894q12.5 138 50 247.5t95 190.5t121 135.5t126 81t111.5 26.5h35q63 0 131 -23q76 -23 154.5 -72.5t140 -147t97.5 -248t28 -371.5q-6 -145 -32 -254t-64.5 -189t-85 -134t-95.5 -87q-113 -82 -252 -86h-22q-135 0 -250 90t-186 244q-23 45 -37.5 87t-23.5 72.5 t-13 49.5l-4 20q-4 16 -6 31t-4 31q-27 168 -14.5 306zM358 799q-4 -109 9.5 -181.5t37 -119.5t53 -72t58.5 -35q25 -12 49 -12q8 0 15 2q27 0 64.5 28.5t70.5 87t49 148.5t2 213v13.5t-2 13.5q-2 16 -6 35q-4 16 -9.5 35.5t-13.5 41.5q-29 74 -71.5 119t-94.5 45h-8 q-53 -4 -96 -41q-37 -35 -70 -108.5t-37 -212.5z" />
<glyph unicode="1" horiz-adv-x="786" d="M-18 1368l294 217l369 -22l-10 -1586l-391 -22l2 1186l-148 -41z" />
<glyph unicode="2" horiz-adv-x="1003" d="M8 365l391 464q78 80 123 150q18 31 32.5 61.5t17.5 60t-7 55.5t-41 44q-35 20 -65.5 9t-57 -39.5t-50 -67.5t-44.5 -74l-287 162q33 104 89 186q25 35 55.5 70t70 62.5t89 47t108.5 25.5q78 6 164 -16.5t158.5 -70.5t124 -123t60.5 -173t-33 -220t-152 -263l-318 -363 l563 13l-43 -359l-929 -26z" />
<glyph unicode="3" horiz-adv-x="1079" d="M-20 352l329 187q27 -35 63 -74t74.5 -66.5t80.5 -37t83 15.5q39 25 51.5 60.5t4 72.5t-35 70.5t-65.5 54.5q-35 23 -72.5 30t-70.5 7q-37 0 -76 -6l-27 276q84 -8 141.5 9.5t92.5 39.5q41 27 68 66q23 47 21.5 78.5t-50.5 60.5q-39 20 -76 9t-70.5 -38.5t-62.5 -65.5 t-51 -71l-279 221q39 76 99 142q51 55 130.5 106t192.5 68q86 12 175 -6.5t164 -65.5t127 -115.5t66.5 -155.5t-19.5 -189.5t-132 -211.5q119 -94 169 -197.5t46 -201.5t-53 -185t-129 -149.5t-182.5 -94.5t-208.5 -20q-72 8 -131.5 29t-109.5 48.5t-90 61t-71 66.5 q-72 78 -116 172z" />
<glyph unicode="4" d="M12 815l557 744l293 18l78 4v-727l197 16l37 -311l-256 -43l-7 -543h-387l13 488l-463 -62zM416 821l76 8l102 15v223z" />
<glyph unicode="5" horiz-adv-x="1013" d="M-76 190l191 385q27 -39 78 -70.5t112.5 -54t126 -30.5t113.5 0t77.5 37.5t20.5 83.5q-6 39 -35.5 67.5t-74 48t-97.5 29.5t-108 16q-129 12 -289 0l84 859l854 -29l-35 -361l-512 19l-20 -156q59 0 127 -10q57 -10 126.5 -30.5t141.5 -59.5q47 -25 89 -80t70.5 -128 t37 -159t-10 -174t-70 -173t-143.5 -154q-70 -53 -142.5 -76t-146 -24t-143.5 15.5t-133 41.5q-147 57 -289 167z" />
<glyph unicode="6" horiz-adv-x="1069" d="M12 823q6 143 32 253t63.5 190t85 133t96.5 88q113 80 252 86h22q131 0 243 -84t183 -229l-282 -166q-23 31 -45.5 47t-45.5 24q-25 12 -49 13q-8 0 -14 -2q-23 0 -51.5 -17.5t-56 -53.5t-50 -90t-30.5 -128q18 14 64 38.5t113.5 36t151.5 -2.5t180 -82 q74 -51 115 -109.5t58.5 -118t17.5 -116t-10.5 -104.5t-24.5 -86t-24 -56q-43 -82 -96.5 -143.5t-109 -101.5t-107.5 -60.5t-95 -20.5h-35q-63 0 -131 23q-78 23 -155.5 72.5t-139 147t-97.5 248t-28 371.5zM408 528q10 -78 65 -129t109 -65q20 -4 44.5 2t47 24.5t40 52.5 t27.5 87q10 59 -12 98t-61 59.5t-87.5 22.5t-88 -14.5t-65.5 -51t-19 -86.5z" />
<glyph unicode="7" horiz-adv-x="993" d="M-2 1143l27 366l913 23l25 -436q-111 -219 -205 -424q-41 -88 -80 -181.5t-73 -183.5t-58.5 -173t-34.5 -148l-379 22q33 162 92 350q51 160 136 366t219 431z" />
<glyph unicode="8" horiz-adv-x="1046" d="M17.5 476q9.5 81 53.5 165t130 162q-88 102 -122 198.5t-27 180.5t48 152.5t103 117.5q51 41 112.5 66.5t124.5 29.5q57 10 119 6t129 -26q31 -10 59.5 -23.5t57.5 -34.5q68 -45 115 -111.5t57 -151.5t-21.5 -182t-119.5 -204q109 -90 154.5 -187.5t45.5 -191.5 q6 -45 -15.5 -116.5t-74.5 -144t-142 -133t-218 -79.5q-127 -20 -220.5 10.5t-152.5 75.5q-70 53 -117 125q-45 63 -66.5 139t-12 157zM373 449.5q2 -33.5 20 -60.5q33 -55 102 -64.5t132 25.5q66 39 61 103v2q-4 45 -31.5 87t-70.5 68q-16 12 -33.5 20.5t-32.5 12.5 q-10 -4 -21.5 -9t-21.5 -11q-33 -18 -57.5 -47t-36.5 -61t-10 -65.5zM389 1133q4 -10 8 -22.5t9 -25.5q8 -14 22 -28q12 -12 30.5 -27.5t47.5 -25.5q29 12 51.5 27.5t36.5 29.5q16 16 27 33q18 47 18 80.5t-47 58.5q-39 18 -78 14t-68.5 -22.5t-46 -44t-10.5 -47.5z" />
<glyph unicode="9" horiz-adv-x="1003" d="M-15 1023q3 56 15 104.5t28.5 84t28.5 54.5q45 78 101.5 135t113 94t108.5 54.5t93 15.5l35 -2q35 -2 65.5 -10.5t61.5 -20.5q74 -27 146.5 -81t128 -153.5t82 -251t5.5 -370.5q-14 -143 -45.5 -250t-73.5 -183.5t-90.5 -128t-97.5 -81.5q-115 -74 -250 -70h-22 q-129 8 -232.5 97.5t-167.5 238.5l285 147q20 -31 41 -48t43 -27q23 -12 49 -15q8 0 15 2q20 -2 48.5 13.5t57.5 49.5t54.5 86t37.5 126q-18 -12 -65 -35t-112.5 -31t-148.5 12.5t-171 92.5q-68 55 -105 115.5t-51 120t-11 115.5zM317.5 989q4.5 -35 14.5 -59 q10 -20 29.5 -36.5t49 -24t67.5 -1.5t87 33q55 27 74.5 70t13.5 88t-34.5 86t-67.5 64.5t-83 22.5t-85 -38q-29 -29 -44 -63.5t-20.5 -70.5t-1 -71z" />
<glyph unicode=":" horiz-adv-x="491" d="M24.5 987q-8.5 45 0.5 94q6 45 26.5 84t51 64.5t68.5 38t77 6.5q39 -8 71.5 -32.5t53 -60.5t29 -80t1.5 -89q-6 -49 -27.5 -89t-52 -67t-68.5 -38t-77 -3q-41 6 -72.5 30.5t-52 60.5t-29 81zM61 465q6 45 27 84t51.5 64.5t68.5 37t77 2.5q39 -8 70.5 -31.5t53 -58.5 t29.5 -79t2 -89q-8 -49 -29.5 -89t-52 -66.5t-67.5 -38.5t-76 -4q-41 8 -72.5 32.5t-52 60.5t-29 81t-0.5 94z" />
<glyph unicode=";" horiz-adv-x="512" d="M20 1139q6 45 26 84t49.5 66.5t66.5 39.5t76 6t71.5 -29.5t55 -57.5t33 -78t3.5 -89q-6 -49 -26.5 -90t-50 -68.5t-66.5 -39.5t-76 -6q-41 6 -72.5 28.5t-54 58t-32 81t-3.5 94.5zM78 524q4 45 24.5 84t49 65.5t65.5 39t76 6.5t72.5 -29.5t55 -57.5t32 -78t4.5 -89 q-2 -8 -2 -14.5t-4 -14.5v-2v-2q-2 -8 -7 -29q-10 -25 -28.5 -64.5t-50 -82.5t-80.5 -85t-117 -73l-53 45q16 12 32 33q14 16 26.5 40t21.5 56q-61 29 -95 97.5t-22 154.5z" />
<glyph unicode="&#x3c;" horiz-adv-x="851" d="M27 866l630 398l144 -271l-430 -250l397 -241l-139 -262l-582 335z" />
<glyph unicode="=" horiz-adv-x="921" d="M20 1032l830 21l43 -246l-848 -41zM45 356l23 287h788v-266z" />
<glyph unicode="&#x3e;" horiz-adv-x="782" d="M18 997l136 263l600 -386l-19 -284l-553 -326l-133 254l377 236z" />
<glyph unicode="A" horiz-adv-x="1132" d="M-82 -31l387 1553l477 43l451 -1571l-434 -25l-103 467l-293 -57l-81 -414zM473 741l150 25l-72 354z" />
<glyph unicode="B" horiz-adv-x="1097" d="M8 1534q142 18 290 22h35q127 0 236 -23q123 -26 209 -86.5t109 -168.5q11 -53 11 -99q0 -47 -12 -87q-24 -78 -59 -131q-41 -62 -102 -105q131 -29 210 -94.5t113 -149.5q29 -72 30 -150q0 -14 -1 -27q-6 -93 -44 -175t-106.5 -143.5t-158.5 -81.5q-135 -35 -262 -49.5 t-225 -18.5q-69 -4 -134 -4q-44 0 -86 2zM373 1227l8 -207q45 16 82 39q31 18 56.5 40.5t27.5 51.5q0 27 -21.5 44t-50.5 26.5t-59 10.5h-8q-23 0 -35 -5zM410 543l14 -221q74 2 133 18q51 14 93 42t42 79q0 29 -29.5 50t-72.5 33.5t-92 12.5t-88 -14z" />
<glyph unicode="C" horiz-adv-x="1056" d="M2 662q-2 33 -2 68q0 97 16 205q22 146 82 277t160 229.5t246 127.5q58 11 107 11q14 0 28 -1q61 -4 113.5 -20.5t93.5 -43t74 -55.5q76 -68 122 -166l-305 -192q-59 80 -111 90q-14 3 -28 3q-37 -1 -68 -21q-43 -28 -75.5 -79t-51.5 -94q-12 -29 -24 -80t-18.5 -112 t-6.5 -128t12.5 -126t37 -106.5t67.5 -67.5q39 -20 75 -20q18 1 34 5q52 14 90 42q45 33 84 86l288 -185q-18 -49 -62 -107.5t-113.5 -108.5t-162 -84t-204.5 -34q-131 0 -222.5 59.5t-149.5 156t-88 220.5t-38 251z" />
<glyph unicode="D" horiz-adv-x="1130" d="M37 1544q125 19 241 19q102 -1 198 -15q206 -30 354 -138t222 -298q55 -141 55 -333q0 -67 -7 -140q-16 -154 -67.5 -265.5t-126.5 -188t-165 -123t-182 -70.5q-147 -40 -315 -40q-80 0 -164 9zM424 1151l49 -750q74 16 131 60q49 37 90 106.5t41 190.5q0 92 -24.5 165.5 t-67.5 124t-99.5 77t-119.5 26.5z" />
<glyph unicode="E" horiz-adv-x="1073" d="M37 1538l944 35v-369l-537 -41l25 -176l373 17l22 -377l-362 -27l12 -203l528 9l5 -402l-979 -18z" />
<glyph unicode="F" horiz-adv-x="1015" d="M37 1559l950 20l8 -360l-530 -37l8 -193l385 21l25 -377l-385 -27l32 -612l-460 -12z" />
<glyph unicode="G" horiz-adv-x="1130" d="M14 902q15 155 67 284t142 225t219 145q82 31 153 33h14q63 0 114 -15q57 -18 103 -48.5t83 -67.5q82 -86 135 -217l-385 -102q-35 49 -71 58q-13 3 -25 3q-24 0 -47 -12q-35 -17 -63.5 -53.5t-44.5 -79.5q-12 -35 -23.5 -112t-11.5 -168t16.5 -179t59.5 -145 q39 -51 75 -72q32 -19 62 -19h6q33 2 59.5 20.5t45 43.5t27.5 51.5t7 46.5l-168 8l12 340h515q12 -74 17 -158q2 -39 2 -78q0 -47 -3 -94q-6 -87 -27.5 -171t-62.5 -157t-106.5 -129t-159.5 -87q-86 -28 -168 -28q-43 0 -85 8q-122 22 -220.5 100t-166 207t-87.5 295 q-14 103 -14 201q0 62 5 123z" />
<glyph unicode="H" horiz-adv-x="1155" d="M25 1538l428 33l-7 -621l259 11l-7 571l426 27l-16 -1547l-383 -20l-4 616l-283 -20l8 -602l-399 -9z" />
<glyph unicode="I" horiz-adv-x="552" d="M84 1554l405 13l-18 -1581l-362 6z" />
<glyph unicode="J" horiz-adv-x="1040" d="M27 698l356 -32q-4 -36 -4 -69q0 -41 6 -77q4 -27 13.5 -52.5t24.5 -46t37.5 -32.5t55.5 -12q6 -1 12 -1q37 0 66 34q27 33 48 118q16 61 16 164q0 43 -3 94l-10 789l352 -23l13 -909v-14q0 -190 -52 -336q-23 -66 -60.5 -125t-96 -103.5t-139.5 -64.5q-50 -12 -111 -12 q-37 0 -78 4q-104 12 -179 49t-126 89t-82 113.5t-45 125.5q-23 91 -23 195q0 64 9 134z" />
<glyph unicode="K" horiz-adv-x="1163" d="M29 -45l24 1634l367 -30l-19 -480l412 555l307 -211l-372 -497l413 -817l-352 -123l-320 669l-69 -86l-12 -600z" />
<glyph unicode="L" horiz-adv-x="980" d="M37 1565l422 -21l30 -1132l486 12l-4 -426l-885 -16z" />
<glyph unicode="M" horiz-adv-x="1390" d="M20 0l127 1583l408 -43l129 -663l141 673l373 21l186 -1561l-399 -45l-39 768l-117 -473l-270 -31l-133 502l-18 -731h-388z" />
<glyph unicode="N" d="M12 1532l459 39l307 -877l-35 869l359 2l49 -1549l-444 -45l-295 789l53 -795l-371 -4z" />
<glyph unicode="O" horiz-adv-x="1112" d="M-6 827q6 143 31.5 253t63.5 190t85 133t96 88q113 80 252 86h23q135 0 249.5 -90t186.5 -244q23 -47 37 -88t23.5 -71.5t13.5 -49.5l4 -20q4 -16 6 -31t4 -31q18 -115 19 -216q0 -47 -4 -90q-12 -138 -50.5 -247.5t-95.5 -190.5t-120.5 -135.5t-126 -81t-111.5 -26.5 h-35q-63 0 -131 23q-78 23 -156 73t-140 147q-60 98 -96 248q-29 123 -29 292q0 38 1 79zM348 689q0 -7 2 -13q2 -16 6 -35q4 -16 8.5 -35.5t14.5 -42.5q29 -74 72 -119t94 -45h8q53 2 96 41q37 33 69 107t38 215q1 24 1 47q-1 76 -11 133q-14 74 -37 121t-52.5 71.5 t-58.5 34.5q-25 12 -49 13q-8 0 -14 -2q-27 0 -65 -29t-70 -87t-50 -148q-9 -47 -10 -104q0 -51 8 -110v-13z" />
<glyph unicode="P" horiz-adv-x="1062" d="M23 1542q104 6 210 12q92 4 200 7.5t206 3.5q96 0 170 -37t125 -91.5t81 -117t38 -113.5q6 -35 7 -87v-7q0 -50 -14 -104q-14 -58 -49.5 -117.5t-104.5 -108.5t-177.5 -83.5t-265.5 -41.5l20 -665l-416 -12zM403 1212l17 -217q143 0 211.5 32t86.5 72q9 19 8 38 q0 21 -10 39q-18 36 -48 43q-29 8 -75 8t-87 -4q-51 -4 -103 -11z" />
<glyph unicode="Q" d="M18 902q19 138 60 246.5t99.5 188.5t121.5 131.5t125 75.5q56 23 101 23h7l35 -2q66 -2 127 -27q74 -25 147.5 -79t130 -154.5t86.5 -252.5q19 -99 19 -227q0 -69 -6 -147q-14 -182 -59 -309l164 -176l-269 -259l-96 115q-53 -43 -103.5 -63.5t-91.5 -30.5q-39 -8 -74 -8 h-14l-22 2q-131 4 -238.5 99t-171.5 251q-41 96 -54 163.5t-13 69.5q-4 16 -6.5 32t-2.5 32q-10 87 -10 166q0 74 8 140zM358 799q-3 -47 -3 -88q0 -53 5 -95q11 -75 32.5 -123.5t49 -74t56.5 -37.5q20 -14 49 -14h4l-115 139l252 213l68 -72q10 52 10 114q0 38 -4 81v24 q0 16 -4 37q-6 33 -19 80q-27 76 -68.5 123t-88.5 49h-11q-53 0 -96 -37q-37 -33 -71.5 -105.5t-45.5 -213.5z" />
<glyph unicode="R" horiz-adv-x="1165" d="M20 -10l39 1562q104 4 211 4q92 0 200 -2t206 -6q96 -4 167.5 -44t121 -96t76 -120.5t32.5 -116.5q3 -23 2 -54v-32q-2 -51 -18.5 -109t-55 -116.5t-108.5 -105.5l348 -658l-362 -168l-353 725q-20 -2 -39.5 -3t-40.5 -1l-10 -637zM438 997q52 -6 94 -6q69 1 110 17 q65 26 81 66q7 18 7 36q0 22 -10 43q-20 39 -48 49q-29 10 -68 14.5t-74 6.5q-20 1 -42 1t-44 -1z" />
<glyph unicode="S" horiz-adv-x="1073" d="M-14 477l325 90q8 -39 39 -87t75 -85q43 -37 99 -52q19 -5 40 -6q37 0 75 19q57 27 59 69v5q0 39 -28 78q-30 41 -78.5 74.5t-93.5 46.5q-45 12 -110.5 33.5t-134.5 59.5t-130.5 95t-95.5 144q-30 73 -30 158q0 15 1 30q6 102 57 193.5t151.5 155t258.5 69.5q20 1 39 1 q54 0 102 -8q64 -12 114 -31.5t90 -46t69 -55.5q68 -68 104 -155l-260 -142q-59 59 -131 85q-62 23 -117 23q-9 0 -17 -1q-62 -4 -103 -35q-40 -30 -40 -79q0 -28 14.5 -47t37 -36.5t51 -31t59.5 -25.5q70 -27 160 -47q160 -51 257 -135q97 -85 142 -181q41 -89 41 -180v-16 q-4 -100 -48 -187t-123 -152t-183 -89q-99 -24 -180 -24q-18 0 -36 2q-95 6 -169 35.5t-129 74.5t-94 98q-92 123 -129 295z" />
<glyph unicode="T" horiz-adv-x="1062" d="M-92 1583l1165 -16l-10 -379h-367l-14 -1208l-379 -15l25 1227l-402 -4z" />
<glyph unicode="U" horiz-adv-x="1144" d="M23 528l59 1031l403 -11q-14 -205 -24 -387q-4 -78 -8 -157.5t-7.5 -152.5t-5.5 -134.5t-2 -100.5q0 -102 42 -151t94 -57q12 -2 23 -3q40 0 77 24q47 30 57 85q8 47 11 116q2 68 4 148q1 30 1 61q1 52 -1 106q-2 87 -5 171q-8 197 -20 414l379 16q18 -274 26 -522 q2 -104 4 -214q1 -46 1 -90q1 -62 -1 -120q-4 -100 -11 -185t-19 -141q-16 -68 -50 -116.5t-78 -82.5t-94.5 -54.5t-101.5 -30.5q-85 -18 -182 -18q-39 0 -80 3q-141 6 -252 68q-47 25 -91 64.5t-78 98.5q-35 58 -55 138q-16 64 -16 144q0 20 1 40z" />
<glyph unicode="V" horiz-adv-x="1132" d="M-16 1573l424 -17l133 -1011l192 1011l416 -14l-395 -1560l-441 -21z" />
<glyph unicode="W" horiz-adv-x="1372" d="M-35 1544l377 25l37 -785l164 625l280 -10l140 -668l51 832l350 -23l-182 -1544l-437 -31l-88 690l-133 -669l-389 20z" />
<glyph unicode="X" horiz-adv-x="1247" d="M-82 147l444 621q-84 131 -182 272.5t-215 319.5l340 213l316 -479l362 481l279 -176l-424 -617l407 -598l-330 -254q-31 59 -75 140q-39 68 -97.5 166t-136.5 225l-344 -527z" />
<glyph unicode="Y" horiz-adv-x="944" d="M-244 1341l330 220l291 -396l311 443l273 -193l-390 -569l23 -852l-395 -27l-2 858z" />
<glyph unicode="Z" horiz-adv-x="1144" d="M18 496l586 673l-573 5l47 382l977 -16l18 -369l-688 -786l754 37l-21 -393l-1067 -70z" />
<glyph unicode="a" horiz-adv-x="1132" d="M-82 -31l387 1553l477 43l451 -1571l-434 -25l-103 467l-293 -57l-81 -414zM473 741l150 25l-72 354z" />
<glyph unicode="b" horiz-adv-x="1097" d="M8 1534q142 18 290 22h35q127 0 236 -23q123 -26 209 -86.5t109 -168.5q11 -53 11 -99q0 -47 -12 -87q-24 -78 -59 -131q-41 -62 -102 -105q131 -29 210 -94.5t113 -149.5q29 -72 30 -150q0 -14 -1 -27q-6 -93 -44 -175t-106.5 -143.5t-158.5 -81.5q-135 -35 -262 -49.5 t-225 -18.5q-69 -4 -134 -4q-44 0 -86 2zM373 1227l8 -207q45 16 82 39q31 18 56.5 40.5t27.5 51.5q0 27 -21.5 44t-50.5 26.5t-59 10.5h-8q-23 0 -35 -5zM410 543l14 -221q74 2 133 18q51 14 93 42t42 79q0 29 -29.5 50t-72.5 33.5t-92 12.5t-88 -14z" />
<glyph unicode="c" horiz-adv-x="1056" d="M2 662q-2 33 -2 68q0 97 16 205q22 146 82 277t160 229.5t246 127.5q58 11 107 11q14 0 28 -1q61 -4 113.5 -20.5t93.5 -43t74 -55.5q76 -68 122 -166l-305 -192q-59 80 -111 90q-14 3 -28 3q-37 -1 -68 -21q-43 -28 -75.5 -79t-51.5 -94q-12 -29 -24 -80t-18.5 -112 t-6.5 -128t12.5 -126t37 -106.5t67.5 -67.5q39 -20 75 -20q18 1 34 5q52 14 90 42q45 33 84 86l288 -185q-18 -49 -62 -107.5t-113.5 -108.5t-162 -84t-204.5 -34q-131 0 -222.5 59.5t-149.5 156t-88 220.5t-38 251z" />
<glyph unicode="d" horiz-adv-x="1130" d="M37 1544q125 19 241 19q102 -1 198 -15q206 -30 354 -138t222 -298q55 -141 55 -333q0 -67 -7 -140q-16 -154 -67.5 -265.5t-126.5 -188t-165 -123t-182 -70.5q-147 -40 -315 -40q-80 0 -164 9zM424 1151l49 -750q74 16 131 60q49 37 90 106.5t41 190.5q0 92 -24.5 165.5 t-67.5 124t-99.5 77t-119.5 26.5z" />
<glyph unicode="e" horiz-adv-x="1073" d="M37 1538l944 35v-369l-537 -41l25 -176l373 17l22 -377l-362 -27l12 -203l528 9l5 -402l-979 -18z" />
<glyph unicode="f" horiz-adv-x="1015" d="M37 1559l950 20l8 -360l-530 -37l8 -193l385 21l25 -377l-385 -27l32 -612l-460 -12z" />
<glyph unicode="g" horiz-adv-x="1130" d="M14 902q15 155 67 284t142 225t219 145q82 31 153 33h14q63 0 114 -15q57 -18 103 -48.5t83 -67.5q82 -86 135 -217l-385 -102q-35 49 -71 58q-13 3 -25 3q-24 0 -47 -12q-35 -17 -63.5 -53.5t-44.5 -79.5q-12 -35 -23.5 -112t-11.5 -168t16.5 -179t59.5 -145 q39 -51 75 -72q32 -19 62 -19h6q33 2 59.5 20.5t45 43.5t27.5 51.5t7 46.5l-168 8l12 340h515q12 -74 17 -158q2 -39 2 -78q0 -47 -3 -94q-6 -87 -27.5 -171t-62.5 -157t-106.5 -129t-159.5 -87q-86 -28 -168 -28q-43 0 -85 8q-122 22 -220.5 100t-166 207t-87.5 295 q-14 103 -14 201q0 62 5 123z" />
<glyph unicode="h" horiz-adv-x="1155" d="M25 1538l428 33l-7 -621l259 11l-7 571l426 27l-16 -1547l-383 -20l-4 616l-283 -20l8 -602l-399 -9z" />
<glyph unicode="i" horiz-adv-x="552" d="M84 1554l405 13l-18 -1581l-362 6z" />
<glyph unicode="j" horiz-adv-x="1040" d="M27 698l356 -32q-4 -36 -4 -69q0 -41 6 -77q4 -27 13.5 -52.5t24.5 -46t37.5 -32.5t55.5 -12q6 -1 12 -1q37 0 66 34q27 33 48 118q16 61 16 164q0 43 -3 94l-10 789l352 -23l13 -909v-14q0 -190 -52 -336q-23 -66 -60.5 -125t-96 -103.5t-139.5 -64.5q-50 -12 -111 -12 q-37 0 -78 4q-104 12 -179 49t-126 89t-82 113.5t-45 125.5q-23 91 -23 195q0 64 9 134z" />
<glyph unicode="k" horiz-adv-x="1163" d="M29 -45l24 1634l367 -30l-19 -480l412 555l307 -211l-372 -497l413 -817l-352 -123l-320 669l-69 -86l-12 -600z" />
<glyph unicode="l" horiz-adv-x="980" d="M37 1565l422 -21l30 -1132l486 12l-4 -426l-885 -16z" />
<glyph unicode="m" horiz-adv-x="1390" d="M20 0l127 1583l408 -43l129 -663l141 673l373 21l186 -1561l-399 -45l-39 768l-117 -473l-270 -31l-133 502l-18 -731h-388z" />
<glyph unicode="n" d="M12 1532l459 39l307 -877l-35 869l359 2l49 -1549l-444 -45l-295 789l53 -795l-371 -4z" />
<glyph unicode="o" horiz-adv-x="1112" d="M-6 827q6 143 31.5 253t63.5 190t85 133t96 88q113 80 252 86h23q135 0 249.5 -90t186.5 -244q23 -47 37 -88t23.5 -71.5t13.5 -49.5l4 -20q4 -16 6 -31t4 -31q18 -115 19 -216q0 -47 -4 -90q-12 -138 -50.5 -247.5t-95.5 -190.5t-120.5 -135.5t-126 -81t-111.5 -26.5 h-35q-63 0 -131 23q-78 23 -156 73t-140 147q-60 98 -96 248q-29 123 -29 292q0 38 1 79zM348 689q0 -7 2 -13q2 -16 6 -35q4 -16 8.5 -35.5t14.5 -42.5q29 -74 72 -119t94 -45h8q53 2 96 41q37 33 69 107t38 215q1 24 1 47q-1 76 -11 133q-14 74 -37 121t-52.5 71.5 t-58.5 34.5q-25 12 -49 13q-8 0 -14 -2q-27 0 -65 -29t-70 -87t-50 -148q-9 -47 -10 -104q0 -51 8 -110v-13z" />
<glyph unicode="p" horiz-adv-x="1062" d="M23 1542q104 6 210 12q92 4 200 7.5t206 3.5q96 0 170 -37t125 -91.5t81 -117t38 -113.5q6 -35 7 -87v-7q0 -49 -14 -104q-14 -58 -49.5 -117.5t-104.5 -108.5t-177.5 -83.5t-265.5 -41.5l20 -665l-416 -12zM403 1212l17 -217q143 0 211.5 32t86.5 72q8 19 8 38 q0 20 -10 39q-18 36 -48 43q-29 8 -75 8t-87 -4q-51 -4 -103 -11z" />
<glyph unicode="q" d="M18 902q19 138 60 246.5t99.5 188.5t121.5 131.5t125 75.5q56 23 101 23h7l35 -2q66 -2 127 -27q74 -25 147.5 -79t130 -154.5t86.5 -252.5q19 -99 19 -227q0 -69 -6 -147q-14 -182 -59 -309l164 -176l-269 -259l-96 115q-53 -43 -103.5 -63.5t-91.5 -30.5q-39 -8 -74 -8 h-14l-22 2q-131 4 -238.5 99t-171.5 251q-41 96 -54 163.5t-13 69.5q-4 16 -6.5 32t-2.5 32q-10 87 -10 166q0 74 8 140zM358 799q-3 -47 -3 -88q0 -53 5 -95q11 -75 32.5 -123.5t49 -74t56.5 -37.5q20 -14 49 -14h4l-115 139l252 213l68 -72q10 52 10 114q0 38 -4 81v24 q0 16 -4 37q-6 33 -19 80q-27 76 -68.5 123t-88.5 49h-11q-53 0 -96 -37q-37 -33 -71.5 -105.5t-45.5 -213.5z" />
<glyph unicode="r" horiz-adv-x="1165" d="M20 -10l39 1562q104 4 211 4q92 0 200 -2t206 -6q96 -4 167.5 -44t121 -96t76 -120.5t32.5 -116.5q3 -23 2 -54v-32q-2 -51 -18.5 -109t-55 -116.5t-108.5 -105.5l348 -658l-362 -168l-353 725q-20 -2 -39.5 -3t-40.5 -1l-10 -637zM438 997q52 -6 94 -6q69 1 110 17 q65 26 81 66q7 18 7 36q0 22 -10 43q-20 39 -48 49q-29 10 -68 14.5t-74 6.5q-20 1 -42 1t-44 -1z" />
<glyph unicode="s" horiz-adv-x="1073" d="M-14 477l325 90q8 -39 39 -87t75 -85q43 -37 99 -52q19 -5 40 -6q37 0 75 19q57 27 59 69v5q0 39 -28 78q-30 41 -78.5 74.5t-93.5 46.5q-45 12 -110.5 33.5t-134.5 59.5t-130.5 95t-95.5 144q-30 73 -30 158q0 15 1 30q6 102 57 193.5t151.5 155t258.5 69.5q20 1 39 1 q54 0 102 -8q64 -12 114 -31.5t90 -46t69 -55.5q68 -68 104 -155l-260 -142q-59 59 -131 85q-62 23 -117 23q-9 0 -17 -1q-62 -4 -103 -35q-40 -30 -40 -79q0 -28 14.5 -47t37 -36.5t51 -31t59.5 -25.5q70 -27 160 -47q160 -51 257 -135q97 -85 142 -181q41 -89 41 -180v-16 q-4 -100 -48 -187t-123 -152t-183 -89q-99 -24 -180 -24q-18 0 -36 2q-95 6 -169 35.5t-129 74.5t-94 98q-92 123 -129 295z" />
<glyph unicode="t" horiz-adv-x="1062" d="M-92 1583l1165 -16l-10 -379h-367l-14 -1208l-379 -15l25 1227l-402 -4z" />
<glyph unicode="u" horiz-adv-x="1144" d="M23 528l59 1031l403 -11q-14 -205 -24 -387q-4 -78 -8 -157.5t-7.5 -152.5t-5.5 -134.5t-2 -100.5q0 -102 42 -151t94 -57q12 -2 23 -3q40 0 77 24q47 30 57 85q8 47 11 116q2 68 4 148q1 30 1 61q1 52 -1 106q-2 87 -5 171q-8 197 -20 414l379 16q18 -274 26 -522 q2 -104 4 -214q1 -46 1 -90q1 -62 -1 -120q-4 -100 -11 -185t-19 -141q-16 -68 -50 -116.5t-78 -82.5t-94.5 -54.5t-101.5 -30.5q-85 -18 -182 -18q-39 0 -80 3q-141 6 -252 68q-47 25 -91 64.5t-78 98.5q-35 58 -55 138q-16 64 -16 144q0 20 1 40z" />
<glyph unicode="v" horiz-adv-x="1132" d="M-16 1573l424 -17l133 -1011l192 1011l416 -14l-395 -1560l-441 -21z" />
<glyph unicode="w" horiz-adv-x="1372" d="M-35 1544l377 25l37 -785l164 625l280 -10l140 -668l51 832l350 -23l-182 -1544l-437 -31l-88 690l-133 -669l-389 20z" />
<glyph unicode="x" horiz-adv-x="1247" d="M-82 147l444 621q-84 131 -182 272.5t-215 319.5l340 213l316 -479l362 481l279 -176l-424 -617l407 -598l-330 -254q-31 59 -75 140q-39 68 -97.5 166t-136.5 225l-344 -527z" />
<glyph unicode="y" horiz-adv-x="944" d="M-244 1341l330 220l291 -396l311 443l273 -193l-390 -569l23 -852l-395 -27l-2 858z" />
<glyph unicode="z" horiz-adv-x="1144" d="M18 496l586 673l-573 5l47 382l977 -16l18 -369l-688 -786l754 37l-21 -393l-1067 -70z" />
<glyph unicode="&#xa9;" horiz-adv-x="1705" />
<glyph unicode="&#xad;" horiz-adv-x="940" d="M68 555l22 295h768v-275z" />
<glyph unicode="&#xff;" horiz-adv-x="1705" />
<glyph unicode="&#x2000;" horiz-adv-x="847" />
<glyph unicode="&#x2001;" horiz-adv-x="1694" />
<glyph unicode="&#x2002;" horiz-adv-x="847" />
<glyph unicode="&#x2003;" horiz-adv-x="1694" />
<glyph unicode="&#x2004;" horiz-adv-x="564" />
<glyph unicode="&#x2005;" horiz-adv-x="423" />
<glyph unicode="&#x2006;" horiz-adv-x="282" />
<glyph unicode="&#x2007;" horiz-adv-x="282" />
<glyph unicode="&#x2008;" horiz-adv-x="211" />
<glyph unicode="&#x2009;" horiz-adv-x="338" />
<glyph unicode="&#x200a;" horiz-adv-x="94" />
<glyph unicode="&#x2010;" horiz-adv-x="940" d="M68 555l22 295h768v-275z" />
<glyph unicode="&#x2011;" horiz-adv-x="940" d="M68 555l22 295h768v-275z" />
<glyph unicode="&#x2012;" horiz-adv-x="940" d="M68 555l22 295h768v-275z" />
<glyph unicode="&#x2013;" horiz-adv-x="1174" d="M68 555l29 295h995v-275z" />
<glyph unicode="&#x2014;" horiz-adv-x="2198" d="M68 555l57 295h1991v-275z" />
<glyph unicode="&#x202f;" horiz-adv-x="338" />
<glyph unicode="&#x205f;" horiz-adv-x="423" />
<glyph unicode="&#x25fc;" horiz-adv-x="1576" d="M0 0v1577h1577v-1577h-1577z" />
</font>
</defs>
</svg>
